<svg width="50" height="40" viewBox="0 0 50 40" fill="none" xmlns="http://www.w3.org/2000/svg">
<g clip-path="url(#clip0_102:216)">
<rect x="15" y="7" width="23" height="28" fill="white"/>
<path fill-rule="evenodd" clip-rule="evenodd" d="M10.3852 0.00402832C7.53223 0.00402832 5.42119 2.51113 5.51572 5.23001C5.60645 7.84212 5.48857 11.2252 4.64033 13.9841C3.78906 16.7507 2.35039 18.5039 0 18.7289V21.2696C2.35039 21.4951 3.78906 23.2474 4.64023 26.0144C5.48857 28.7733 5.60635 32.1564 5.51562 34.7685C5.42109 37.487 7.53213 39.9945 10.3855 39.9945H39.6187C42.4716 39.9945 44.5822 37.4874 44.4877 34.7685C44.397 32.1564 44.5148 28.7733 45.3631 26.0144C46.2144 23.2474 47.6495 21.4944 50 21.2696V18.7289C47.6496 18.5034 46.2145 16.7511 45.3631 13.9841C44.5147 11.2256 44.397 7.84212 44.4877 5.23001C44.5822 2.51152 42.4716 0.00402832 39.6187 0.00402832H10.3848H10.3852ZM33.8983 24.6208C33.8983 28.3645 31.117 30.6351 26.5013 30.6351H18.644C18.4193 30.6351 18.2037 30.5454 18.0448 30.3858C17.8859 30.2263 17.7966 30.0099 17.7966 29.7842V10.2144C17.7966 9.98874 17.8859 9.77232 18.0448 9.61275C18.2037 9.45318 18.4193 9.36354 18.644 9.36354H26.4565C30.3053 9.36354 32.8312 11.4567 32.8312 14.6703C32.8312 16.9259 31.1319 18.9452 28.9672 19.299V19.4166C31.9141 19.7412 33.8983 21.7904 33.8983 24.6208V24.6208ZM25.6445 12.0608H21.1645V18.4143H24.9378C27.8548 18.4143 29.4632 17.235 29.4632 15.127C29.4629 13.1515 28.0801 12.0608 25.6445 12.0608ZM21.1645 20.9352V27.937H25.8094C28.8465 27.937 30.4552 26.7134 30.4552 24.414C30.4552 22.1145 28.8014 20.9348 25.6141 20.9348H21.1645V20.9352Z" fill="#7952B3"/>
</g>
<defs>
<clipPath id="clip0_102:216">
<rect width="50" height="40" fill="white"/>
</clipPath>
</defs>
</svg>
