<svg width="50" height="51" viewBox="0 0 50 51" fill="none" xmlns="http://www.w3.org/2000/svg">
<g clip-path="url(#clip0_102:206)">
<path d="M4.18669 45.5121L0 0.833862L50 0.923647L45.573 45.5121L25.1887 50.6661L4.18669 45.5121Z" fill="#1B73BA"/>
<path d="M25.1885 46.3512V5.08899L45.7788 5.14885L42.107 42.0662L25.1885 46.3512Z" fill="#1C88C7"/>
<path d="M40.6656 10.363H8.99097L9.84903 15.7564H24.8797L10.0894 21.3002L10.947 26.514H32.7385L31.949 33.7954L24.5708 35.0541L17.8793 33.5559L17.3644 29.4206H11.2216L12.045 38.0209L25.2228 41.227L37.8519 37.7212L39.4648 20.9104H26.1148L40.6652 15.6367L40.6656 10.363Z" fill="white"/>
</g>
<defs>
<clipPath id="clip0_102:206">
<rect width="50" height="50" fill="white" transform="translate(0 0.75)"/>
</clipPath>
</defs>
</svg>
