<svg width="50" height="50" viewBox="0 0 50 50" fill="none" xmlns="http://www.w3.org/2000/svg">
<path d="M22.9167 6.25V16.9963C22.1938 16.7025 20.6337 16.6667 19.8649 16.6667C14.0816 16.6667 8.72803 19.3875 8.72803 27.0833C8.72803 36.2917 15.9792 37.5 20.8333 37.5C22.75 37.5 27.0833 37.3107 29.1667 36.7065V6.25H22.9167ZM33.3333 6.25V12.5H39.5833V6.25H33.3333ZM33.3333 16.6667V34.7941C33.3333 37.9524 31.4125 41.2399 27.0833 43.1274L33.0404 45.8252C39.0945 43.7419 39.5833 36.8774 39.5833 34.7941V16.6667H33.3333ZM20.7723 21.9808C21.439 21.9808 22.1875 22.103 22.9167 22.2697V32.0679C22.1875 32.2345 21.439 32.3608 20.7723 32.3608C18.0431 32.3608 15.3971 31.5 15.3971 27.0833C15.3971 22.6667 18.0431 21.9808 20.7723 21.9808Z" fill="white"/>
</svg>
