<svg width="80" height="29" viewBox="0 0 80 29" fill="none" xmlns="http://www.w3.org/2000/svg">
<path fill-rule="evenodd" clip-rule="evenodd" d="M3 26.3903H6.87619V16.1952H10.6643C12.5437 19.683 16.8486 26.9268 19.0333 28L22.2048 26.3903H38.0619V22.813H28.3714V14.9432H47.7524C49.6024 15.6288 53.0381 17.1789 53.0381 19.057V20.7562C53.0381 21.0695 52.478 22.1881 51.4524 22.6342C50.1361 23.2066 48.281 23.0813 48.281 23.0813C47.2825 23.0813 44.5633 22.7594 41.6738 21.4716V25.3171C43.2008 25.9431 47.1533 27.0342 50.7476 26.3903C53.0087 25.9729 57.4252 23.9935 57.0024 19.4147C56.973 18.1925 56.5267 15.4977 54.9762 14.496C54.2127 13.9297 52.0338 12.5465 49.4262 11.5448C47.9873 11.0977 45.2681 9.52372 45.9024 6.80505C46.1373 5.70207 47.6467 3.72865 51.8048 4.65872L55.4167 5.82131L55.8571 4.74815H66.0762V26.3903H69.9524V4.74815H77V1.34981H52.6857C50.4833 0.783414 45.4619 0.491276 42.9952 3.85385C42.2024 5.07606 41.0924 8.32536 42.9952 11.5448H28.3714V4.74815H38.0619V1.34981H24.4952V22.9919H19.0333L14.1881 15.3009C15.8325 14.7643 19.0686 12.6001 18.8571 8.23593C18.9746 5.97036 17.5886 1.42135 11.1048 1.34981H3V26.3903ZM6.87619 4.83758V12.9757C10.3295 13.1904 12.6024 12.469 13.3071 12.0814C15.4214 10.9367 14.8341 7.90802 14.2762 6.53676C13.2895 4.67661 8.93175 4.62891 6.87619 4.83758Z" fill="white"/>
<path fill-rule="evenodd" clip-rule="evenodd" d="M3 26.3903H6.87619V16.1952H10.6643C12.5437 19.683 16.8486 26.9268 19.0333 28L22.2048 26.3903H38.0619V22.813H28.3714V14.9432H47.7524C49.6024 15.6288 53.0381 17.1789 53.0381 19.057V20.7562C53.0381 21.0695 52.478 22.1881 51.4524 22.6342C50.1361 23.2066 48.281 23.0813 48.281 23.0813C47.2825 23.0813 44.5633 22.7594 41.6738 21.4716V25.3171C43.2008 25.9431 47.1533 27.0342 50.7476 26.3903C53.0087 25.9729 57.4252 23.9935 57.0024 19.4147C56.973 18.1925 56.5267 15.4977 54.9762 14.496C54.2127 13.9297 52.0338 12.5465 49.4262 11.5448C47.9873 11.0977 45.2681 9.52372 45.9024 6.80505C46.1373 5.70207 47.6467 3.72865 51.8048 4.65872L55.4167 5.82131L55.8571 4.74815H66.0762V26.3903H69.9524V4.74815H77V1.34981H52.6857C50.4833 0.783414 45.4619 0.491276 42.9952 3.85385C42.2024 5.07606 41.0924 8.32536 42.9952 11.5448H28.3714V4.74815H38.0619V1.34981H24.4952V22.9919H19.0333L14.1881 15.3009C15.8325 14.7643 19.0686 12.6001 18.8571 8.23593C18.9746 5.97036 17.5886 1.42135 11.1048 1.34981H3V26.3903ZM6.34762 25.8537H3.52857L3.61667 1.88639H9.25476C14.2586 1.81484 16.7429 3.82404 17.3595 4.83758C20.1081 10.4896 15.9206 14.0489 13.4833 15.1221L18.681 23.5285H25.0238V1.88639H37.5333V4.21157H27.8429V12.0814H44.0524C42.4314 10.2213 42.4373 7.37144 42.6429 6.17904C44.0524 1.24249 49.9254 1.26038 52.6857 1.88639H76.4714V4.21157H69.4238V25.8537H66.6048V4.21157H55.4167L54.9762 5.10587C53.4962 4.39043 51.2468 3.97309 50.3071 3.85385C46.2195 3.49613 45.2564 6.26846 45.2857 7.69935C45.2857 10.418 48.046 11.7535 49.4262 12.0814C54.9938 14.2993 56.327 16.8808 56.2976 17.8944C57.3548 21.7578 54.6238 24.2737 53.1262 25.0488C49.5319 26.8374 44.4048 25.6748 42.2905 24.8699V22.2765C44.5457 23.3496 47.7524 23.6775 49.0738 23.7073C52.95 23.7789 53.7429 20.9946 53.6548 19.5936C53.9367 17.1611 49.8373 15.1221 47.7524 14.4066H27.8429V23.3496H37.5333V25.8537H22.2048L19.0333 27.4634C17.6943 26.6764 13.131 19.2657 11.0167 15.6586H6.34762V25.8537Z" fill="#6B1F22"/>
<path fill-rule="evenodd" clip-rule="evenodd" d="M6.34762 13.5123V4.21157C8.75556 3.97309 13.8181 4.03271 14.8048 6.17904C15.4214 7.66954 16.0557 11.0262 13.6595 12.5286C13.3071 12.9757 11.3514 13.7985 6.34762 13.5123ZM6.87619 4.83758V12.9757C10.3295 13.1904 12.6024 12.469 13.3071 12.0814C15.4214 10.9367 14.8341 7.90802 14.2762 6.53676C13.2895 4.67661 8.93175 4.62891 6.87619 4.83758Z" fill="#6B1F22"/>
</svg>
