<svg width="136" height="38" viewBox="0 0 136 38" fill="none" xmlns="http://www.w3.org/2000/svg">
<path d="M0.885063 29.4835V14.9607H19.7827V14.1112H0.885063V0.862173H20.9775V0.0129395H0V30.3328H21.1544V29.4835H0.885328H0.885063ZM38.1934 8.50579L30.3601 18.4002L22.7035 8.50604H21.5528L29.8289 19.0374L20.7559 30.3325H21.8182L30.3596 19.6738L38.9454 30.3325H40.0517L30.935 19.0368L39.2551 8.50553H38.1932L38.1934 8.50579ZM42.7075 37.8066V24.2181H42.7959C43.3272 26.1998 44.3745 27.7922 45.9383 28.9955C47.502 30.1985 49.4934 30.8002 51.9127 30.8002C53.4764 30.8002 54.8633 30.4959 56.0729 29.8873C57.2826 29.2786 58.293 28.4505 59.1045 27.403C59.9157 26.3555 60.5354 25.1382 60.9633 23.751C61.391 22.3639 61.6051 20.9058 61.6051 19.3774C61.6051 17.7352 61.3835 16.2205 60.941 14.8335C60.4985 13.4462 59.8567 12.243 59.016 11.224C58.1751 10.2048 57.1572 9.41186 55.9621 8.84604C54.7674 8.27971 53.4175 7.99655 51.9127 7.99655C50.762 7.99655 49.6926 8.15942 48.7042 8.48489C47.7158 8.81061 46.8382 9.2704 46.0711 9.86502C45.2994 10.4642 44.6278 11.173 44.0794 11.9669C43.5189 12.7739 43.091 13.6585 42.7959 14.6212H42.7075V8.50579H41.8224V37.8066H42.7075V37.8066ZM51.9127 29.993C49.1396 29.993 46.9118 29.0801 45.2301 27.2542C43.5484 25.4283 42.7075 22.8023 42.7075 19.3768C42.7075 17.9613 42.9141 16.6166 43.3272 15.3427C43.7402 14.0689 44.3376 12.9505 45.1193 11.9881C45.9013 11.0255 46.8677 10.2611 48.0181 9.69502C49.1688 9.12869 50.4672 8.84553 51.9127 8.84553C53.388 8.84553 54.6789 9.12869 55.7852 9.69502C56.8916 10.2611 57.8064 11.0326 58.5291 12.0093C59.2519 12.9859 59.7978 14.1043 60.1667 15.3639C60.5354 16.6237 60.7197 17.9613 60.7197 19.3768C60.7197 20.6509 60.5503 21.9179 60.2108 23.1775C59.8716 24.4373 59.3478 25.5697 58.6396 26.5749C57.9318 27.5796 57.0246 28.4006 55.918 29.0378C54.8115 29.6747 53.4764 29.993 51.9127 29.993V29.993ZM66.4732 30.3328V17.9756C66.4732 16.7866 66.6501 15.6256 67.0044 14.4935C67.3582 13.3611 67.9041 12.363 68.6417 11.4998C69.3794 10.6363 70.316 9.95677 71.4521 9.4613C72.5879 8.96583 73.9378 8.76066 75.5015 8.84553V7.9963C74.1442 7.96826 72.9568 8.10946 71.939 8.42091C70.9208 8.73237 70.0432 9.15698 69.3055 9.69502C68.5679 10.2328 67.978 10.8626 67.5354 11.5846C67.0932 12.3055 66.7651 13.0855 66.5616 13.8989H66.4732V8.50579H65.5881V30.333H66.4732V30.3328ZM76.6078 19.5892H95.638C95.6973 18.0887 95.5424 16.6451 95.1734 15.2579C94.8047 13.8706 94.2145 12.639 93.4033 11.5635C92.5918 10.4877 91.5445 9.62416 90.261 8.97297C88.9775 8.32177 87.4507 7.9963 85.6805 7.9963C84.4116 7.9963 83.1725 8.25117 81.9628 8.76091C80.7532 9.2704 79.691 10.0134 78.7764 10.99C77.8619 11.9667 77.1242 13.1628 76.5637 14.5786C76.0033 15.9939 75.7228 17.6075 75.7228 19.4194C75.7228 21.033 75.9146 22.5406 76.2981 23.9419C76.6817 25.3431 77.2716 26.5607 78.0682 27.5939C78.8651 28.6272 79.8904 29.427 81.1442 29.993C82.3979 30.5594 83.9101 30.8282 85.6805 30.8C88.2768 30.8 90.4602 30.0991 92.2303 28.698C94.0007 27.2965 95.0481 25.322 95.3727 22.774H94.4876C94.104 25.1805 93.1228 26.9853 91.5445 28.1883C89.9659 29.3915 87.9819 29.993 85.5918 29.993C83.9691 29.993 82.5972 29.7241 81.476 29.1864C80.355 28.6486 79.4402 27.9123 78.7321 26.9781C78.0242 26.0438 77.5003 24.9468 77.1611 23.687C76.8217 22.4274 76.6373 21.0613 76.6078 19.5892ZM94.753 18.7399H76.6081C76.6963 17.2112 76.9914 15.8382 77.4929 14.6209C77.9947 13.4034 78.651 12.363 79.4625 11.4998C80.2737 10.6363 81.218 9.97818 82.2949 9.52502C83.3717 9.07211 84.5298 8.84553 85.769 8.84553C87.2443 8.84553 88.5421 9.10754 89.6636 9.6313C90.7845 10.1551 91.7214 10.87 92.4739 11.7758C93.2261 12.6816 93.794 13.7363 94.1776 14.9393C94.5612 16.1425 94.753 17.4095 94.753 18.7399ZM114.005 14.9607H114.89C114.89 12.5259 114.152 10.7566 112.677 9.65246C111.202 8.54835 109.195 7.9963 106.658 7.9963C105.242 7.9963 104.047 8.1663 103.073 8.50604C102.1 8.84553 101.303 9.28442 100.683 9.8222C100.064 10.36 99.6213 10.9546 99.3557 11.6058C99.0901 12.257 98.9573 12.8799 98.9573 13.4743C98.9573 14.6632 99.1785 15.6116 99.6213 16.3194C100.064 17.0272 100.757 17.5792 101.701 17.9756C102.35 18.2585 103.088 18.5133 103.914 18.7402C104.74 18.9665 105.699 19.2071 106.791 19.4617C107.764 19.6886 108.723 19.9149 109.668 20.1412C110.612 20.3678 111.445 20.6721 112.168 21.0542C112.891 21.4365 113.481 21.9248 113.938 22.5194C114.395 23.1138 114.624 23.8924 114.624 24.8548C114.624 25.7892 114.396 26.5818 113.938 27.2328C113.485 27.8806 112.888 28.4244 112.19 28.8255C111.482 29.2358 110.693 29.533 109.822 29.717C108.952 29.901 108.104 29.993 107.278 29.993C104.593 29.993 102.535 29.4198 101.104 28.2734C99.6729 27.1267 98.9575 25.322 98.9575 22.8589H98.0722C98.0722 25.6052 98.8468 27.6151 100.396 28.8892C101.945 30.163 104.239 30.8 107.278 30.8C108.251 30.8 109.232 30.6937 110.221 30.4814C111.209 30.2691 112.094 29.9224 112.876 29.441C113.651 28.9663 114.302 28.3272 114.779 27.5728C115.266 26.8081 115.509 25.874 115.509 24.7699C115.509 23.7224 115.295 22.8732 114.868 22.222C114.44 21.571 113.879 21.033 113.186 20.6084C112.492 20.1838 111.711 19.8512 110.84 19.6106C109.965 19.3685 109.087 19.1349 108.207 18.9097C107.124 18.637 106.039 18.3681 104.954 18.103C104.025 17.8764 103.162 17.6075 102.365 17.2961C101.598 16.9846 100.986 16.5388 100.528 15.9585C100.071 15.3782 99.8426 14.5501 99.8426 13.4743C99.8426 13.2762 99.9016 12.9222 100.02 12.4127C100.137 11.903 100.418 11.3864 100.86 10.8626C101.303 10.3391 101.981 9.8719 102.896 9.4613C103.811 9.05096 105.065 8.84553 106.658 8.84553C107.75 8.84553 108.745 8.95895 109.645 9.18527C110.545 9.41186 111.32 9.77275 111.969 10.2682C112.618 10.7637 113.119 11.3935 113.473 12.1578C113.827 12.9225 114.005 13.8566 114.005 14.9607V14.9607ZM134.495 14.9607H135.38C135.38 12.5259 134.643 10.7566 133.168 9.65246C131.692 8.54835 129.686 7.9963 127.149 7.9963C125.733 7.9963 124.537 8.1663 123.564 8.50604C122.59 8.84553 121.794 9.28442 121.174 9.8222C120.554 10.36 120.112 10.9546 119.846 11.6058C119.581 12.257 119.448 12.8799 119.448 13.4743C119.448 14.6632 119.669 15.6116 120.112 16.3194C120.554 17.0272 121.248 17.5792 122.192 17.9756C122.841 18.2585 123.579 18.5133 124.405 18.7402C125.231 18.9665 126.19 19.2071 127.281 19.4617C128.255 19.6886 129.214 19.9149 130.158 20.1412C131.102 20.3678 131.936 20.6721 132.659 21.0542C133.381 21.4365 133.972 21.9248 134.429 22.5194C134.886 23.1138 135.115 23.8924 135.115 24.8548C135.115 25.7892 134.886 26.5818 134.429 27.2328C133.975 27.8805 133.379 28.4244 132.681 28.8255C131.973 29.2358 131.183 29.533 130.313 29.717C129.443 29.901 128.594 29.993 127.768 29.993C125.083 29.993 123.026 29.4198 121.595 28.2734C120.163 27.1267 119.448 25.322 119.448 22.8589H118.563C118.563 25.6052 119.337 27.6151 120.886 28.8892C122.435 30.163 124.729 30.8 127.768 30.8C128.742 30.8 129.723 30.6937 130.711 30.4814C131.7 30.2691 132.585 29.9224 133.367 29.441C134.142 28.9663 134.793 28.3272 135.27 27.5728C135.757 26.8081 136 25.874 136 24.7699C136 23.7224 135.786 22.8732 135.358 22.222C134.931 21.571 134.37 21.033 133.677 20.6084C132.983 20.1838 132.201 19.8512 131.331 19.6106C130.456 19.3685 129.578 19.1349 128.698 18.9097C127.614 18.637 126.53 18.3681 125.445 18.103C124.515 17.8764 123.652 17.6075 122.856 17.2961C122.089 16.9846 121.476 16.5388 121.019 15.9585C120.562 15.3782 120.333 14.5501 120.333 13.4743C120.333 13.2762 120.392 12.9222 120.51 12.4127C120.628 11.903 120.909 11.3864 121.351 10.8626C121.794 10.3391 122.472 9.8719 123.387 9.4613C124.302 9.05096 125.555 8.84553 127.149 8.84553C128.241 8.84553 129.236 8.95895 130.136 9.18527C131.036 9.41186 131.81 9.77275 132.459 10.2682C133.109 10.7637 133.61 11.3935 133.964 12.1578C134.318 12.9225 134.495 13.8566 134.495 14.9607H134.495Z" fill="white"/>
</svg>
