<svg width="175" height="69" viewBox="0 0 175 69" fill="none" xmlns="http://www.w3.org/2000/svg">
<path d="M23.6238 60.7667C20.7165 58.48 17.6181 56.2914 15.4996 53.2044C11.0406 47.7621 7.61062 41.4444 5.26189 34.8375C3.84089 30.5304 3.35743 25.9146 1.52809 21.7741C-0.382907 18.7688 1.85803 15.4809 5.15083 14.5254C6.61593 14.2428 9.19496 12.8594 6.08182 13.8492C3.30516 15.8958 3.02259 11.9905 5.88256 11.7259C7.83602 11.4645 8.55469 9.86876 7.88502 8.43143C5.78782 7.06269 12.968 5.56329 9.35503 3.52163C5.59346 -0.537208 14.6176 -1.31957 12.393 3.29296C11.8606 6.83729 18.701 2.63963 17.1297 6.73603C18.7434 8.70256 23.173 7.18519 23.0587 9.94226C25.4107 10.1056 26.2159 12.0656 28.4193 12.2322C30.706 13.2645 34.8514 14.0779 35.6272 16.6536C33.3405 18.4503 28.109 12.946 27.8558 17.9146C28.5418 25.258 28.367 32.822 31.0522 39.8127C32.323 44.0463 35.4034 47.3783 38.185 50.6743C40.8473 53.9034 44.4521 56.1787 48.1287 58.0897C51.3529 59.6087 54.8254 60.6164 58.3403 61.2502C59.7646 60.1607 62.2799 56.1084 64.5029 57.8169C64.6107 59.7393 60.0929 61.8316 64.2906 61.6193C66.7406 60.8745 68.467 63.5254 70.4972 61.1342C72.3674 63.3506 78.2719 59.7197 76.9423 64.249C75.1424 65.3923 72.5324 64.7063 70.7145 66.307C67.7418 64.837 65.3767 67.6332 62.0855 67.2788C58.4318 67.9321 54.7127 68.1967 51.0083 68.2016C44.929 67.7214 38.7224 67.5189 32.9404 65.4037C29.6819 64.4564 26.505 62.6009 23.6402 60.7455L23.6238 60.7667ZM28.7574 62.9929C31.9375 64.3649 35.049 65.8186 38.5345 66.2547C44.065 67.0224 49.7768 68.2082 55.3252 67.1285C52.8131 65.995 50.2161 67.5695 47.7139 66.3184C44.7134 66.9636 41.5072 66.1551 38.4398 65.7533C34.9706 64.2081 31.2254 63.1465 27.9767 61.1391C23.9146 59.656 30.0755 63.0419 31.1731 63.3163C33.7113 64.7569 28.3964 62.5781 27.6288 61.977C25.5022 60.7847 25.2327 61.0329 27.4164 62.2432C27.8574 62.5013 28.2919 62.7708 28.7525 62.9913L28.7574 62.9929ZM22.7043 58.7136C25.788 59.8569 22.6912 56.5462 21.28 56.7536C20.6544 55.6674 18.8888 54.9814 20.1334 54.4016C17.8957 55.1791 17.7863 51.4616 16.7361 51.9794C14.3677 51.2313 15.8149 48.582 12.9908 46.952C12.7328 45.237 10.1864 43.7506 9.37626 41.1634C9.01692 39.8568 6.49833 36.0348 8.04509 39.5742C9.36156 42.9813 11.6793 45.9001 13.6082 48.814C15.1044 51.5906 16.8749 54.4914 19.6026 56.2211C20.5221 57.1031 21.409 58.4539 22.7059 58.7316L22.7043 58.7136ZM13.8255 48.9626C13.9316 48.4971 14.389 49.9704 13.8255 48.9626V48.9626ZM26.3972 60.0807C27.08 59.7753 25.4172 59.6952 26.3972 60.0807V60.0807ZM28.0698 60.6916C27.8966 59.8488 27.3054 61.1816 28.0698 60.6916V60.6916ZM30.1653 61.5654C31.1453 60.6181 28.63 60.966 30.1653 61.5654V61.5654ZM33.7554 63.5662C34.3597 62.6712 31.8166 63.2298 33.7554 63.5662V63.5662ZM26.8627 58.761C28.4095 57.7597 24.8619 58.7446 26.8627 58.761V58.761ZM28.434 59.545C28.3899 59.0174 27.8754 59.7818 28.434 59.545V59.545ZM36.2854 64.445C37.548 65.242 43.6583 66.1926 39.833 64.7716C39.1911 64.9056 32.7395 62.9456 36.2854 64.445ZM23.8231 54.7364C23.7006 54.2072 21.8631 54.1484 23.8231 54.7364V54.7364ZM27.4769 56.8679C28.4291 56.2032 25.5169 56.3551 27.4769 56.8679V56.8679ZM30.5524 58.7528C31.9179 58.2383 28.3393 58.2367 30.5524 58.7528V58.7528ZM22.3335 53.1178C23.8149 54.2546 28.3082 53.2811 24.6202 52.44C22.9346 51.5416 19.1322 50.9259 21.7243 52.9822L22.3515 53.1178H22.3335ZM32.6349 59.4061C33.2523 58.3559 30.0461 58.8051 32.6349 59.4061V59.4061ZM29.5055 56.9186C33.1266 57.941 26.4593 54.627 28.612 56.5396L29.089 56.7569L29.5055 56.9202V56.9186ZM35.7807 60.5446C39.2107 60.5772 32.6823 60.0546 35.7807 60.5446V60.5446ZM21.0154 51.1333C20.8815 50.48 20.1693 51.1856 21.0154 51.1333V51.1333ZM41.584 63.7982C41.6754 62.645 40.4651 64.6573 41.584 63.7982V63.7982ZM26.884 54.7168C26.6749 54.1092 25.8125 54.6907 26.884 54.7168V54.7168ZM21.3551 50.7315C23.3233 50.6123 18.6601 49.8658 21.3551 50.7315V50.7315ZM14.8218 46.4979C14.5768 45.5506 12.6985 44.7992 14.8218 46.4979V46.4979ZM32.0159 57.4086C31.6566 56.997 31.846 57.4984 32.0159 57.4086V57.4086ZM42.7175 63.9746C42.6848 63.3457 42.1344 64.2114 42.7175 63.9746V63.9746ZM31.0718 56.4286C31.2646 55.6184 29.3928 56.1836 31.0718 56.4286V56.4286ZM23.1012 51.375C24.5663 51.2182 20.7524 50.3852 23.1012 51.375V51.375ZM36.5876 59.754C38.871 58.8492 34.3614 59.313 36.5876 59.754V59.754ZM29.5741 54.9929C32.1874 55.331 26.443 53.2011 28.9959 54.8018L29.5741 54.9929ZM38.7175 60.6148C41.1756 59.1481 40.3639 64.0546 42.8857 61.0297C45.3717 59.2134 40.7379 63.2755 43.8004 61.3531C46.0185 59.87 49.2917 62.0554 51.3595 62.7675C52.8295 62.6957 54.2929 64.053 55.8185 63.2249C58.7536 62.4343 50.0773 62.0521 52.3509 60.6507C49.6657 61.4347 47.6796 59.7197 46.3598 57.9982C43.3463 57.3024 39.8641 55.7605 38.3598 53.0949C37.7456 52.0953 39.245 53.237 37.8306 51.6004C36.0339 49.9867 35.1094 48.1704 33.891 46.1908C32.421 45.415 32.2642 43.1283 32.1172 46.1157C32.1286 44.2308 30.3597 42.9634 29.9285 43.4893C29.9203 41.6926 31.8232 42.5844 30.492 41.2418C30.2062 39.3602 29.2621 37.4002 28.9795 35.2769C28.5385 34.2544 28.9175 32.0592 27.4769 34.3786C26.9542 36.8286 27.3037 31.37 28.1204 33.1699C29.1919 31.334 27.7349 31.5366 27.6761 31.8044C28.3736 30.256 28.1171 28.0559 27.4932 28.8971C27.8656 27.254 28.0812 22.8538 26.9379 23.6329C27.632 21.9146 28.2527 15.7716 25.2392 18.1122C24.0191 18.1285 21.9072 18.5532 20.9076 19.0514C24.0387 20.7778 20.5924 19.6753 19.3151 19.4009C19.1518 20.9983 17.8859 20.309 16.3098 20.3237C18.8316 20.6504 15.0815 22.9044 13.6376 22.0224C11.7593 22.9207 15.271 25.1584 13.6752 25.8542C13.8712 26.8963 10.8005 25.4785 11.039 27.8893C9.21619 27.1217 10.7891 30.7477 11.7021 29.5227C14.8022 30.3622 13.8843 32.2748 13.9627 34.0927C13.4727 35.1511 11.4686 31.6035 13.5217 31.7685C11.8883 29.1552 11.7315 30.8179 10.3857 32.0396C10.059 32.1278 13.8157 33.7775 11.4669 34.5925C13.5331 34.9127 13.5935 36.7208 14.0149 37.8641C15.2563 39.1577 15.0015 36.4349 16.4878 37.9915C15.547 36.6032 11.5061 34.0715 14.7597 34.8947C14.7434 33.5015 14.1717 32.3761 15.1681 32.4039C16.1562 30.617 14.1325 36.8139 16.3604 34.5403C16.9762 34.2708 17.1281 32.7518 18.2387 34.684C19.8459 36.2683 18.8202 37.4117 16.5515 35.9629C16.9566 37.3414 19.5862 37.8314 19.0913 39.9858C19.614 41.8805 20.349 41.1814 20.986 41.0736C21.4874 42.9127 21.77 41.5603 21.7945 40.6816C24.0877 41.1716 23.5503 42.5273 24.269 43.4583C25.8501 44.1704 22.0068 38.6236 24.7198 41.7923C27.5749 44.3729 25.7913 45.446 23.2286 45.0328C24.8505 44.9021 25.3715 47.2247 27.4001 47.1431C29.249 48.0251 30.5034 51.4028 27.3135 49.9965C26.2078 49.0165 22.2927 47.7686 25.4907 49.6649C28.4405 51.0337 30.7876 51.8503 33.6345 53.5849C35.6713 55.0549 36.5517 56.6883 37.3226 57.0345C35.6076 57.8512 32.1613 56.3812 34.7223 55.932C33.1249 55.6413 31.3283 54.8328 32.8571 56.8222C34.1588 57.91 37.4663 57.794 38.0609 57.9165C37.5578 59.0239 36.6954 59.1121 38.0805 59.1971C36.5353 60.0219 38.577 60.1493 38.7338 60.6181L38.7175 60.6148ZM35.557 51.687C34.6162 50.7021 34.3728 48.8613 35.3887 50.462C35.9114 50.6743 37.0596 53.4739 35.557 51.687ZM45.8535 58.2269C46.4415 58.1877 45.8698 58.6728 45.8535 58.2269V58.2269ZM34.0723 49.2762C34.0347 47.8062 34.4104 50.4244 34.0723 49.2762V49.2762ZM33.0498 47.9009C31.8656 45.6143 34.541 48.5477 33.0498 47.9009V47.9009ZM20.6479 39.3423C21.3437 39.1561 20.9746 40.5313 20.6479 39.3423V39.3423ZM30.5198 44.6914C30.9444 43.0875 31.0212 46.0357 30.5198 44.6914V44.6914ZM23.5454 39.8404C23.0554 38.9552 24.5744 40.6571 23.5454 39.8404V39.8404ZM29.5283 41.758C28.4079 39.2475 30.3238 40.386 29.7782 42.1696L29.5283 41.758ZM19.2089 34.8767C18.7075 34.0519 17.8794 31.6362 18.1473 30.8979C18.3874 32.1001 20.7018 36.0707 19.2808 32.5427C17.7128 29.6027 21.1591 33.5015 21.5119 34.2414C21.6753 34.9764 20.5434 34.0405 21.311 35.7604C19.9096 33.8004 20.4846 36.8416 19.2089 34.8784V34.8767ZM16.0207 32.6783C16.1513 30.7624 16.7491 33.9915 16.0207 32.6783V32.6783ZM17.4547 33.1732C18.1407 31.7277 18.5981 35.1887 17.4547 33.1732V33.1732ZM14.0035 30.5043C12.8161 29.3234 11.9569 28.2176 14.0607 29.7693C14.8692 29.802 12.2607 27.2964 14.2567 28.9739C16.3539 29.3561 15.2922 32.4137 14.0051 30.5027L14.0035 30.5043ZM15.8002 30.4553C16.4894 29.7693 16.166 31.1282 15.8002 30.4553V30.4553ZM16.9174 30.8114C15.872 28.8514 18.1865 31.6329 16.9174 30.8114V30.8114ZM14.6993 28.6929C11.2481 25.619 19.0358 30.2985 15.2628 29.2613L14.6993 28.6929ZM24.5891 34.4374C23.0946 33.5423 24.1922 28.1327 24.7035 31.8322C26.1735 31.3618 24.6218 33.7432 25.7047 33.7203C25.5348 35.223 25.0514 35.762 24.5908 34.439L24.5891 34.4374ZM28.22 36.5934C28.3834 34.96 28.5271 37.7089 28.22 36.5934V36.5934ZM27.5667 35.9645C27.73 35.2687 27.583 36.7845 27.5667 35.9645V35.9645ZM15.3167 27.6754C13.0986 24.6161 21.7618 30.7705 16.7377 28.4512C16.215 28.3124 15.5944 28.2634 15.3167 27.6754V27.6754ZM22.3613 31.4092C22.1489 28.8334 22.83 31.8338 22.3613 31.4092V31.4092ZM27.7088 34.8392C28.122 33.3724 27.7415 35.8094 27.7088 34.8392V34.8392ZM15.6581 26.5059C16.9762 26.2233 21.1183 28.8187 17.3143 27.2474C16.8896 26.7787 16.0076 26.9926 15.6581 26.5059ZM26.9771 32.1458C27.1175 29.5112 27.7643 30.5729 26.9836 32.5247L26.9771 32.1458ZM16.6413 25.588C17.1803 24.8007 15.2138 22.0273 16.9239 24.608C17.6622 25.196 19.0472 25.588 17.8271 25.8379C19.7871 27.5529 17.3371 26.3017 16.643 25.6027L16.6413 25.588ZM26.4185 31.3046C26.7892 28.3026 26.7451 33.0621 26.4185 31.3046V31.3046ZM15.5192 22.7982C15.9308 22.6218 15.7365 23.3454 15.5192 22.7982V22.7982ZM18.0705 24.3172C18.7271 22.9387 19.2792 25.8526 18.0705 24.3172V24.3172ZM25.2637 28.3189C25.2572 27.7913 25.3993 29.0866 25.2637 28.3189V28.3189ZM24.8472 27.3977C23.8672 24.9346 25.7782 28.7011 24.8472 27.3977V27.3977ZM24.2347 25.7644C24.0681 24.7468 24.8064 27.0433 24.2347 25.7644V25.7644ZM25.2147 24.1425C24.5287 22.9338 26.0804 18.8227 26.2535 21.374C25.5299 23.3617 26.0444 24.4724 26.5475 21.8068C27.4785 19.7096 26.3466 25.9489 25.2147 24.1425ZM26.2404 18.0256C26.5393 17.6581 26.3058 18.4666 26.2404 18.0256V18.0256ZM24.5254 51.7654C24.1204 51.411 24.5777 51.9892 24.5254 51.7654V51.7654ZM28.0534 53.549C30.0134 54.039 30.0069 53.2452 28.2168 53.0035C27.2645 52.1166 24.2527 51.1741 26.9477 52.894C27.111 53.3465 27.6892 53.335 28.0371 53.5474L28.0534 53.549ZM21.0889 48.9218C22.1669 49.7286 25.1592 51.2052 22.6291 49.2484C23.4834 48.2554 20.9958 47.7294 21.8206 47.063C19.7218 45.7776 20.1644 45.8936 21.6361 45.9197C19.1142 44.7764 22.0003 44.8776 21.8647 44.2978C20.8929 44.1067 17.0333 42.5828 19.3037 44.4219C16.9958 43.2459 18.7532 44.8597 18.0558 44.6914C15.6956 44.0479 20.1563 46.4881 17.6801 45.8838C19.0325 46.9552 21.3225 48.631 18.2518 47.0173C17.8484 47.6004 20.4503 48.4824 21.0889 48.925V48.9218ZM24.777 51.0418C29.2621 52.4857 22.5769 49.2746 24.777 51.0418V51.0418ZM43.6616 62.4817C43.7204 61.5915 43.0491 63.2412 43.6616 62.4817V62.4817ZM45.6216 63.2984C46.6571 62.2971 45.664 64.8958 47.3366 63.0534C47.3529 61.7336 47.2876 60.9545 45.4158 62.5585C44.8996 62.8459 44.6693 64.0611 45.6216 63.3V63.2984ZM14.8398 43.9858C14.5213 42.7363 12.6119 42.7445 14.8398 43.9858V43.9858ZM16.9108 45.3415C16.1432 44.0675 14.1668 44.1867 16.9108 45.3415V45.3415ZM28.7035 52.453C29.855 53.4755 33.9906 53.2044 30.1016 52.5804C29.5267 51.7311 26.4462 51.9336 28.7035 52.453ZM44.9111 62.4654C46.6832 60.9954 43.1961 63.1285 44.9111 62.4654V62.4654ZM48.5959 64.997C48.6073 64.5201 47.8315 65.2061 48.5959 64.997V64.997ZM48.6024 64.3437C50.5624 62.2661 46.7028 64.4662 48.6024 64.3437V64.3437ZM9.74049 39.7179C8.06796 37.3333 8.70169 36.2602 7.08796 34.3279C6.78089 32.8367 4.32109 29.4573 5.81396 33.0213C7.18269 35.1168 7.58776 38.359 9.73886 39.7179H9.74049ZM47.9866 63.6691C51.58 61.3367 46.5052 62.6532 47.9866 63.6691V63.6691ZM50.7421 64.7471C52.5502 63.1955 49.5987 64.4237 50.7421 64.7471V64.7471ZM14.2256 41.33C14.7418 40.5624 12.8896 41.232 14.2256 41.33V41.33ZM50.1671 63.9925C51.9181 62.8492 49.7637 63.037 49.8503 64.0954L50.1671 63.9925ZM26.4152 49.0394C26.3548 48.275 25.4891 49.1047 26.4152 49.0394V49.0394ZM27.8819 49.8838C27.4148 48.9397 27.1633 50.0471 27.8819 49.8838V49.8838ZM52.9748 64.7733C55.2174 63.1399 51.6192 64.4466 52.5061 65.0803L52.9748 64.7733ZM52.1157 64.3584C53.945 62.828 50.1884 65.0362 52.1157 64.3584V64.3584ZM56.5045 67.2788C57.7295 66.4589 55.0132 67.0142 56.5045 67.2788V67.2788ZM15.3494 40.791C16.9925 41.1585 21.9186 44.8384 19.0129 41.0458C17.5429 40.6048 18.4168 36.9674 16.8994 37.6093C17.9186 39.3129 17.7373 40.0348 15.5976 38.965C12.9108 37.6518 14.0868 39.6134 14.6144 40.1573C13.8957 40.3206 15.5617 40.778 15.3494 40.8106V40.791ZM7.86053 34.8784C8.15453 33.6599 5.14919 28.1817 6.43952 32.1344C6.90502 32.9625 6.85603 34.5305 7.86053 34.8784ZM21.6067 43.3717C20.7573 42.6645 21.5658 43.2704 21.6067 43.3717V43.3717ZM23.6908 43.8568C23.6908 42.5501 21.4041 43.3341 23.6908 43.8568V43.8568ZM41.7555 55.2444C41.4288 54.3624 40.3933 55.2248 41.7555 55.2444V55.2444ZM42.6211 55.8781C42.4905 55.3849 42.1197 55.9761 42.6211 55.8781V55.8781ZM49.78 60.3747C50.466 59.8847 48.9209 60.3094 49.78 60.3747V60.3747ZM11.6009 35.8339C13.5707 35.0711 9.49059 35.29 11.6009 35.8339V35.8339ZM40.1842 53.8299C40.1613 52.5559 38.9265 54.1484 40.1842 53.8299V53.8299ZM10.8381 34.0176C12.1023 33.5929 9.66699 33.7367 10.8381 34.0176V34.0176ZM14.5098 35.8143C14.4886 35.3961 14.1227 35.9743 14.5098 35.8143V35.8143ZM59.286 63.2657C60.9128 62.9358 64.6221 64.0938 65.2199 62.8345C63.2599 62.7855 58.3861 61.4396 58.1558 63.153L58.5886 63.2216L59.286 63.2641V63.2657ZM15.676 36.0903C15.7054 34.7836 14.6683 36.0413 15.676 36.0903V36.0903ZM6.03936 29.3936C5.60162 26.9322 4.37336 29.0212 6.03936 29.3936V29.3936ZM8.32603 29.9718C8.35543 29.1813 6.20269 29.2597 8.32603 29.9718V29.9718ZM9.64086 30.6186C9.26029 30.292 9.34686 31.0057 9.64086 30.6186V30.6186ZM17.9219 35.927C18.3139 35.5676 16.999 35.6624 17.9219 35.927V35.927ZM8.75069 29.1617C8.52692 27.303 6.08182 28.884 8.75069 29.1617V29.1617ZM4.01403 26.0976C3.94869 25.2401 3.55343 26.421 4.01403 26.0976V26.0976ZM4.70003 25.5684C4.58569 24.5508 4.09569 25.6958 4.70003 25.5684V25.5684ZM8.57919 27.8828C10.2207 27.2393 5.59019 26.55 8.24436 27.7619L8.57919 27.8828ZM60.5192 59.9566C61.5694 58.9766 59.1864 59.6593 60.5192 59.9566V59.9566ZM66.7912 63.2232C67.2126 61.9819 65.7295 63.3866 66.7912 63.2232V63.2232ZM8.97119 25.8526C9.14432 24.6488 7.66942 26.0927 8.97119 25.8526V25.8526ZM3.45052 22.1531C3.15652 20.4544 3.19572 17.4703 6.03119 18.4781C2.24676 19.2294 8.65269 23.1821 7.82786 20.0624C9.42036 20.1408 10.9426 19.1216 10.1064 20.6667C13.2424 20.3401 15.418 17.601 18.4478 17.9832C20.808 17.6696 23.3886 17.4327 25.9317 16.4805C28.0224 16.3302 30.0363 14.0795 28.8717 12.7434C26.0199 12.5017 23.0342 12.8578 19.8835 13.4866C16.3914 14.2118 13.2195 15.5903 9.69476 16.1816C6.25822 16.6438 10.384 17.4523 9.40076 17.6516C7.60899 18.2723 11.5241 18.692 9.16882 19.3503C7.70536 19.0726 6.17982 18.5695 6.80702 17.026C3.51749 17.4556 0.624859 18.8194 3.22513 22.1678L3.41786 22.1694L3.45052 22.1531ZM11.3804 18.1155C12.148 15.2735 15.5127 20.4544 12.6429 18.4944C12.3163 18.2363 11.7364 18.0289 11.3804 18.1155ZM11.5306 16.7369C12.6413 15.9088 12.1219 17.2024 11.5306 16.7369V16.7369ZM12.9435 16.7598C13.0447 15.4531 16.1807 17.4523 13.4596 17.2302L12.9435 16.7598ZM14.8773 15.9823C15.5846 15.1559 15.0831 16.7141 14.8773 15.9823V15.9823ZM15.3722 15.6508C16.5482 14.2379 22.0313 14.7475 18.0182 15.5119C16.9402 14.7018 16.1187 15.9889 15.3722 15.6508V15.6508ZM22.5262 14.5483C22.3498 10.6871 26.0836 15.9203 22.5262 14.5483V14.5483ZM24.5565 14.5368C25.2996 12.5768 27.4393 13.7561 24.8831 14.1448C24.937 14.3539 24.808 15.151 24.5565 14.5368ZM8.16922 24.8546C10.3873 23.4957 5.81722 23.6753 8.16922 24.8546V24.8546ZM9.81072 25.3087C10.5882 24.4822 8.11859 24.9738 9.81072 25.3087V25.3087ZM5.02669 21.8934C6.29416 20.9183 3.52402 21.5226 5.02669 21.8934V21.8934ZM70.5233 62.8672C70.5609 61.7369 69.5548 63.3572 70.5233 62.8672V62.8672ZM63.8675 58.3265C64.057 57.0264 63.0116 58.4408 63.8675 58.3265V58.3265ZM72.3527 63.3082C74.1248 63.3147 77.7215 62.7561 73.8668 62.7577C73.2625 62.8508 70.342 62.8329 72.3527 63.3082ZM11.2889 24.51C12.723 24.412 13.5315 22.9289 11.0112 23.0138C7.10429 22.6104 14.4412 24.3532 10.5098 23.8534C9.98059 24.2045 11.2579 24.608 11.2889 24.51ZM12.5515 25.1502C12.4012 24.2307 12.1072 25.6402 12.5515 25.1502V25.1502ZM14.0509 21.1551C14.6715 20.3825 13.1885 20.9493 14.0509 21.1551V21.1551ZM9.28153 13.1844C11.8426 12.3155 15.3249 11.3388 16.5499 13.614C15.32 12.1342 16.0533 10.6773 17.2146 12.8414C18.8578 15.0301 19.6646 11.8614 18.6111 11.1101C19.8296 12.6226 21.213 13.338 19.4278 11.2081C21.3878 8.87243 15.5405 11.5135 14.2142 11.4858C13.5609 11.7716 7.63186 13.0015 9.28153 13.1844V13.1844ZM10.7842 10.313C12.2444 9.21216 15.8475 10.9696 13.5282 9.21869C13.3028 9.01943 8.48446 10.5482 10.7842 10.313ZM16.1089 10.5335C17.8157 10.576 15.3739 8.23706 17.4074 9.29709C17.0742 8.20603 15.039 8.00186 14.0427 7.56576C13.4792 8.54576 15.186 10.5466 16.1105 10.5335H16.1089ZM11.7201 5.70213C12.3114 4.88546 10.6829 6.11046 11.7201 5.70213V5.70213ZM13.8957 6.22479C16.6495 5.86056 13.1934 5.04063 13.3404 6.19539L13.8957 6.22479ZM9.83359 3.04796C7.89482 0.516293 13.4808 3.47263 11.5094 0.821726C9.85156 -0.498007 8.24272 2.29173 9.83359 3.04796ZM34.7093 16.4462C35.5978 14.8717 31.0392 14.3229 34.1115 15.8909C34.394 15.984 34.3303 16.5573 34.7093 16.4462ZM80.454 16.8627C80.1486 18.0681 79.9608 20.0885 79.8889 22.906C79.8889 23.4614 79.6373 23.7423 79.1343 23.7423C78.6312 23.7423 78.2801 23.4973 78.0824 23.0138C77.5434 21.7023 77.0338 20.7876 76.5471 20.2649C75.9721 19.6557 75.2077 19.2849 74.2571 19.1608C73.233 18.9975 70.6834 18.9158 66.6066 18.9158C65.6724 18.9158 65.0615 19.0138 64.7773 19.2131C64.614 19.3388 64.5078 19.6083 64.5078 20.0216V32.2258C64.5078 32.6391 64.7691 32.8351 65.2869 32.8187L72.2383 32.4953C72.8312 32.4218 73.2314 32.2307 73.4372 31.9155C73.643 31.6003 73.8455 30.7722 74.0415 29.4769C74.1673 28.7583 74.5887 28.4969 75.3074 28.6603C75.9183 28.786 76.1796 29.0637 76.0914 29.4769C75.5883 31.9204 75.425 35.0989 75.6046 39.0156C75.6242 39.4811 75.327 39.7343 74.7161 39.7702C74.2131 39.8241 73.8995 39.5546 73.7737 38.9617C73.3082 36.7175 72.4392 35.5317 71.1603 35.3635C69.8814 35.1952 67.8316 35.1348 64.9766 35.1348C64.6532 35.1348 64.4931 35.2491 64.4931 35.4843V47.6086C64.4931 48.5069 64.8247 49.1178 65.4731 49.4379C65.9958 49.7074 67.1179 49.9508 68.841 50.1664C69.723 50.2562 70.1069 50.6433 69.9844 51.3097C69.8749 51.9026 69.086 52.1362 67.6128 52.012C63.3563 51.6854 59.8446 51.6886 57.0778 52.0659C56.3052 52.1721 55.9344 51.8585 55.9344 51.1235C55.9344 50.6564 56.3199 50.3885 57.0778 50.315C58.8385 50.119 59.7172 48.5722 59.7172 45.6812V22.6186C59.7172 21.4344 59.5049 20.523 59.0851 19.8844C58.6654 19.2457 57.8765 18.6659 56.7282 18.1465C56.0096 17.8231 55.7401 17.3837 55.9197 16.8268C56.0096 16.487 56.1533 16.2976 56.3493 16.2616C56.5126 16.2077 57.0059 16.2453 57.7768 16.3694C58.9087 16.5328 61.5776 16.6389 65.7802 16.6389L78.6345 16.3155C79.8366 16.242 80.4393 16.3417 80.4393 16.6095C80.4393 16.683 80.4295 16.7533 80.4116 16.8251L80.454 16.8627ZM97.9274 51.0647C97.9274 51.7834 97.524 52.097 96.7155 52.0071C94.2377 51.7736 91.167 51.8111 87.5035 52.1133C86.7685 52.1868 86.3144 52.1672 86.1413 52.061C85.9681 51.9549 85.8865 51.6576 85.8865 51.1709C85.8865 50.7413 86.3765 50.3771 87.3532 50.0798C88.3299 49.7825 88.8232 48.8989 88.8232 47.4273V23.0449C88.8232 21.5749 88.6109 20.5214 88.1911 19.837C87.7714 19.1526 87.0265 18.6251 85.9698 18.2494C85.4144 18.0534 85.1335 17.7725 85.1335 17.4131C85.1335 16.8741 85.5369 16.4707 86.3454 16.2012C87.5672 15.8059 88.8346 15.1967 90.1462 14.3686C91.2242 13.7218 91.907 13.4 92.1928 13.4C92.8576 13.4 93.1728 13.8574 93.1728 14.772C93.1326 15.6702 93.0961 16.5685 93.0633 17.467L93.0111 22.7215L93.1172 46.7805C93.1172 47.8748 93.3867 48.6719 93.9257 49.1651C94.4647 49.6584 95.3909 49.9867 96.7024 50.1451C97.5109 50.235 97.9143 50.5404 97.9143 51.0598L97.9274 51.0647ZM122.297 49.4755C122.297 49.8511 121.611 50.4228 120.239 51.1856C118.867 51.9483 117.764 52.3289 116.939 52.3289C116.237 52.3289 115.62 51.9892 115.081 51.3048C114.542 50.6204 114.163 50.2823 113.949 50.2823C113.785 50.2823 112.936 50.6515 111.389 51.3865C109.843 52.1215 108.291 52.4922 106.729 52.4922C105.259 52.4922 104.026 52.0594 103.038 51.1856C101.96 50.2333 101.405 48.9397 101.405 47.3048C101.405 44.1965 104.962 41.9703 112.075 40.6081C113.295 40.3745 113.916 39.8796 113.932 39.1267L113.986 37.4019C114.094 34.457 112.794 32.9837 110.079 32.9837C109.307 32.9837 108.577 33.6746 107.883 35.058C107.188 36.4415 106.2 37.1863 104.907 37.2957C103.437 37.4378 102.697 36.8188 102.697 35.4337C102.697 34.5713 103.791 33.5668 105.985 32.4153C108.284 31.2132 110.493 30.6105 112.613 30.6105C116.258 30.6105 118.063 32.3451 118.027 35.811L117.918 46.9095C117.901 48.0773 118.395 48.6604 119.399 48.6604C119.595 48.6604 119.976 48.6163 120.531 48.5265L121.503 48.3926C122.022 48.3926 122.284 48.7437 122.284 49.4444L122.297 49.4755ZM113.999 43.3341C114.016 42.885 113.913 42.5877 113.673 42.4456C113.433 42.3035 113.095 42.2741 112.611 42.3639C108.283 43.1365 106.117 44.5477 106.117 46.6106C106.117 48.6735 107.239 49.709 109.485 49.709C110.383 49.709 111.309 49.5392 112.262 49.1978C113.377 48.8009 113.932 48.3256 113.932 47.7686L113.986 43.3505L113.999 43.3341ZM142.325 46.3934C142.325 48.2978 141.59 49.8119 140.128 50.934C138.666 52.0561 136.667 52.6 134.134 52.6C132.431 52.5985 130.733 52.4178 129.069 52.061C127.599 51.7376 126.769 51.4404 126.537 51.1725C126.393 50.9193 126.321 49.6911 126.321 47.4812C126.321 46.5289 126.537 46.0357 126.968 45.9997C127.399 45.9458 127.785 46.1631 128.072 46.6988C129.42 49.0508 131.594 50.2268 134.592 50.2268C137.124 50.2268 138.39 49.3448 138.39 47.5841C138.39 46.8131 138.104 46.1663 137.528 45.6453C136.899 45.0524 135.679 44.3599 133.864 43.571C131.241 42.4031 129.49 41.3823 128.61 40.5003C127.657 39.566 127.182 38.3116 127.182 36.7436C127.182 34.8032 127.927 33.3136 129.42 32.2193C130.803 31.1772 132.654 30.6562 134.968 30.6562C136.306 30.6446 137.641 30.7617 138.957 31.0057C140.25 31.2393 140.923 31.5251 140.977 31.8681C141.119 32.8726 141.418 34.3279 141.866 36.234C141.92 36.466 141.666 36.6554 141.111 36.7992C140.518 36.9249 140.123 36.8253 139.925 36.5052C138.508 34.1858 136.711 33.0294 134.535 33.0294C132.076 33.0294 130.844 33.82 130.844 35.401C130.844 36.283 131.177 36.9821 131.824 37.5015C132.417 37.9507 133.808 38.653 136 39.6052C138.3 40.5934 139.862 41.4836 140.688 42.2708C141.766 43.2949 142.321 44.6718 142.321 46.3934H142.325ZM174.02 51.1072C174.02 51.736 173.595 52.0872 172.752 52.0872L167.823 52.3567C166.817 52.5527 166.098 52.4302 165.667 51.981C162.828 48.9267 160.42 45.7302 158.447 42.3884C158.284 42.1026 158.08 41.9572 157.827 41.9572C157.521 41.9572 157.01 42.2267 156.239 42.7657C155.393 43.2312 154.972 43.8976 154.972 44.7584L155.025 47.4011C155.061 48.5494 155.347 49.304 155.886 49.6633C156.262 49.9165 157.136 50.1125 158.5 50.2562C159.344 50.364 159.767 50.6809 159.767 51.1986C159.767 51.6119 159.702 51.852 159.565 51.9663C159.427 52.0806 159.075 52.0872 158.5 52.0316C156.703 51.8683 153.668 51.9598 149.394 52.3011C148.316 52.391 147.733 52.2554 147.643 51.8977C147.607 51.7719 147.589 51.5923 147.589 51.3587C147.589 50.8034 148.138 50.3787 149.234 50.0945C150.222 49.8413 150.715 48.6833 150.715 46.6188V23.0694C150.715 21.5994 150.571 20.5736 150.282 19.9987C149.887 19.2637 149.061 18.6871 147.803 18.2739C147.212 18.0779 146.914 17.7839 146.914 17.4572C146.914 16.9346 147.339 16.5311 148.18 16.2453C149.538 15.7876 150.833 15.1621 152.035 14.3833C153.023 13.7381 153.636 13.4131 153.864 13.4131C154.602 13.4131 154.97 13.8786 154.97 14.8145C154.97 14.6871 154.96 15.5773 154.942 17.4801L154.916 22.7623L154.97 39.6265C154.97 40.0936 155.096 40.3255 155.346 40.3255C155.615 40.3255 156.028 40.0936 156.587 39.6265L162.081 35.0466C162.514 34.5974 162.728 34.2381 162.728 33.9686C162.728 33.4851 162.001 33.1421 160.548 32.9461C159.919 32.8726 159.622 32.5215 159.658 31.8943C159.712 31.2654 160.027 30.9959 160.6 31.0858C161.895 31.2491 163.78 31.3634 166.258 31.383L171.403 31.4092C171.958 31.4255 172.22 31.7587 172.22 32.3892C172.22 32.9984 171.779 33.3316 170.9 33.3692C169.515 33.4214 168.213 33.735 166.993 34.3116C165.286 35.0825 163.462 36.4398 161.521 38.3949C161.379 38.5027 161.306 38.6399 161.306 38.7984C161.306 39.0499 161.611 39.6526 162.224 40.6048C164.468 44.0348 166.588 46.5943 168.581 48.337C169.855 49.4314 171.05 49.9802 172.162 49.9802C172.989 49.9802 173.502 50.0373 173.698 50.1566C173.894 50.2758 173.995 50.5812 173.995 51.0843L174.02 51.1072Z" fill="white"/>
</svg>
