<svg width="196" height="98" viewBox="0 0 196 98" fill="none" xmlns="http://www.w3.org/2000/svg">
<path d="M33.6238 76.7667C30.7165 74.48 27.6181 72.2914 25.4996 69.2044C21.0406 63.7621 17.6106 57.4444 15.2619 50.8375C13.8409 46.5304 13.3574 41.9146 11.5281 37.7741C9.61709 34.7688 11.858 31.4809 15.1508 30.5254C16.6159 30.2428 19.195 28.8594 16.0818 29.8492C13.3052 31.8958 13.0226 27.9905 15.8826 27.7259C17.836 27.4645 18.5547 25.8688 17.885 24.4314C15.7878 23.0627 22.968 21.5633 19.355 19.5216C15.5935 15.4628 24.6176 14.6804 22.393 19.293C21.8606 22.8373 28.701 18.6396 27.1297 22.736C28.7434 24.7026 33.173 23.1852 33.0587 25.9423C35.4107 26.1056 36.2159 28.0656 38.4193 28.2322C40.706 29.2645 44.8514 30.0779 45.6272 32.6536C43.3405 34.4503 38.109 28.946 37.8558 33.9146C38.5418 41.258 38.367 48.822 41.0522 55.8127C42.323 60.0463 45.4034 63.3783 48.185 66.6743C50.8473 69.9034 54.4521 72.1787 58.1287 74.0897C61.3529 75.6087 64.8254 76.6164 68.3403 77.2502C69.7646 76.1607 72.2799 72.1084 74.5029 73.8169C74.6107 75.7393 70.0929 77.8316 74.2906 77.6193C76.7406 76.8745 78.467 79.5254 80.4972 77.1342C82.3674 79.3506 88.2719 75.7197 86.9423 80.249C85.1424 81.3923 82.5324 80.7063 80.7145 82.307C77.7418 80.837 75.3767 83.6332 72.0855 83.2788C68.4318 83.9321 64.7127 84.1967 61.0083 84.2016C54.929 83.7214 48.7224 83.5189 42.9404 81.4037C39.6819 80.4564 36.505 78.6009 33.6402 76.7455L33.6238 76.7667ZM38.7574 78.9929C41.9375 80.3649 45.049 81.8186 48.5345 82.2547C54.065 83.0224 59.7768 84.2082 65.3252 83.1285C62.8131 81.995 60.2161 83.5695 57.7139 82.3184C54.7134 82.9636 51.5072 82.1551 48.4398 81.7533C44.9706 80.2081 41.2254 79.1465 37.9767 77.1391C33.9146 75.656 40.0755 79.0419 41.1731 79.3163C43.7113 80.7569 38.3964 78.5781 37.6288 77.977C35.5022 76.7847 35.2327 77.0329 37.4164 78.2432C37.8574 78.5013 38.2919 78.7708 38.7525 78.9913L38.7574 78.9929ZM32.7043 74.7136C35.788 75.8569 32.6912 72.5462 31.28 72.7536C30.6544 71.6674 28.8888 70.9814 30.1334 70.4016C27.8957 71.1791 27.7863 67.4616 26.7361 67.9794C24.3677 67.2313 25.8149 64.582 22.9908 62.952C22.7328 61.237 20.1864 59.7506 19.3763 57.1634C19.0169 55.8568 16.4983 52.0348 18.0451 55.5742C19.3616 58.9813 21.6793 61.9001 23.6082 64.814C25.1044 67.5906 26.8749 70.4914 29.6026 72.2211C30.5221 73.1031 31.409 74.4539 32.7059 74.7316L32.7043 74.7136ZM23.8255 64.9626C23.9316 64.4971 24.389 65.9704 23.8255 64.9626V64.9626ZM36.3972 76.0807C37.08 75.7753 35.4172 75.6952 36.3972 76.0807V76.0807ZM38.0698 76.6916C37.8966 75.8488 37.3054 77.1816 38.0698 76.6916V76.6916ZM40.1653 77.5654C41.1453 76.6181 38.63 76.966 40.1653 77.5654V77.5654ZM43.7554 79.5662C44.3597 78.6712 41.8166 79.2298 43.7554 79.5662V79.5662ZM36.8627 74.761C38.4095 73.7597 34.8619 74.7446 36.8627 74.761V74.761ZM38.434 75.545C38.3899 75.0174 37.8754 75.7818 38.434 75.545V75.545ZM46.2854 80.445C47.548 81.242 53.6583 82.1926 49.833 80.7716C49.1911 80.9056 42.7395 78.9456 46.2854 80.445ZM33.8231 70.7364C33.7006 70.2072 31.8631 70.1484 33.8231 70.7364V70.7364ZM37.4769 72.8679C38.4291 72.2032 35.5169 72.3551 37.4769 72.8679V72.8679ZM40.5524 74.7528C41.9179 74.2383 38.3393 74.2367 40.5524 74.7528V74.7528ZM32.3335 69.1178C33.8149 70.2546 38.3082 69.2811 34.6202 68.44C32.9346 67.5416 29.1322 66.9259 31.7243 68.9822L32.3515 69.1178H32.3335ZM42.6349 75.4061C43.2523 74.3559 40.0461 74.8051 42.6349 75.4061V75.4061ZM39.5055 72.9186C43.1266 73.941 36.4593 70.627 38.612 72.5396L39.089 72.7569L39.5055 72.9202V72.9186ZM45.7807 76.5446C49.2107 76.5772 42.6823 76.0546 45.7807 76.5446V76.5446ZM31.0154 67.1333C30.8815 66.48 30.1693 67.1856 31.0154 67.1333V67.1333ZM51.584 79.7982C51.6754 78.645 50.4651 80.6573 51.584 79.7982V79.7982ZM36.884 70.7168C36.6749 70.1092 35.8125 70.6907 36.884 70.7168V70.7168ZM31.3551 66.7315C33.3233 66.6123 28.6601 65.8658 31.3551 66.7315V66.7315ZM24.8218 62.4979C24.5768 61.5506 22.6985 60.7992 24.8218 62.4979V62.4979ZM42.0159 73.4086C41.6566 72.997 41.846 73.4984 42.0159 73.4086V73.4086ZM52.7175 79.9746C52.6848 79.3457 52.1344 80.2114 52.7175 79.9746V79.9746ZM41.0718 72.4286C41.2646 71.6184 39.3928 72.1836 41.0718 72.4286V72.4286ZM33.1012 67.375C34.5663 67.2182 30.7524 66.3852 33.1012 67.375V67.375ZM46.5876 75.754C48.871 74.8492 44.3614 75.313 46.5876 75.754V75.754ZM39.5741 70.9929C42.1874 71.331 36.443 69.2011 38.9959 70.8018L39.5741 70.9929ZM48.7175 76.6148C51.1756 75.1481 50.3639 80.0546 52.8857 77.0297C55.3717 75.2134 50.7379 79.2755 53.8004 77.3531C56.0185 75.87 59.2917 78.0554 61.3595 78.7675C62.8295 78.6957 64.2929 80.053 65.8185 79.2249C68.7536 78.4343 60.0773 78.0521 62.3509 76.6507C59.6657 77.4347 57.6796 75.7197 56.3598 73.9982C53.3463 73.3024 49.8641 71.7605 48.3598 69.0949C47.7456 68.0953 49.245 69.237 47.8306 67.6004C46.0339 65.9867 45.1094 64.1704 43.891 62.1908C42.421 61.415 42.2642 59.1283 42.1172 62.1157C42.1286 60.2308 40.3597 58.9634 39.9285 59.4893C39.9203 57.6926 41.8232 58.5844 40.492 57.2418C40.2062 55.3602 39.2621 53.4002 38.9795 51.2769C38.5385 50.2544 38.9175 48.0592 37.4769 50.3786C36.9542 52.8286 37.3037 47.37 38.1204 49.1699C39.1919 47.334 37.7349 47.5366 37.6761 47.8044C38.3736 46.256 38.1171 44.0559 37.4932 44.8971C37.8656 43.254 38.0812 38.8538 36.9379 39.6329C37.632 37.9146 38.2527 31.7716 35.2392 34.1122C34.0191 34.1285 31.9072 34.5532 30.9076 35.0514C34.0387 36.7778 30.5924 35.6753 29.3151 35.4009C29.1518 36.9983 27.8859 36.309 26.3098 36.3237C28.8316 36.6504 25.0815 38.9044 23.6376 38.0224C21.7593 38.9207 25.271 41.1584 23.6752 41.8542C23.8712 42.8963 20.8005 41.4785 21.039 43.8893C19.2162 43.1217 20.7891 46.7477 21.7021 45.5227C24.8022 46.3622 23.8843 48.2748 23.9627 50.0927C23.4727 51.1511 21.4686 47.6035 23.5217 47.7685C21.8883 45.1552 21.7315 46.8179 20.3857 48.0396C20.059 48.1278 23.8157 49.7775 21.4669 50.5925C23.5331 50.9127 23.5935 52.7208 24.0149 53.8641C25.2563 55.1577 25.0015 52.4349 26.4878 53.9915C25.547 52.6032 21.5061 50.0715 24.7597 50.8947C24.7434 49.5015 24.1717 48.3761 25.1681 48.4039C26.1562 46.617 24.1325 52.8139 26.3604 50.5403C26.9762 50.2708 27.1281 48.7518 28.2387 50.684C29.8459 52.2683 28.8202 53.4117 26.5515 51.9629C26.9566 53.3414 29.5862 53.8314 29.0913 55.9858C29.614 57.8805 30.349 57.1814 30.986 57.0736C31.4874 58.9127 31.77 57.5603 31.7945 56.6816C34.0877 57.1716 33.5503 58.5273 34.269 59.4583C35.8501 60.1704 32.0068 54.6236 34.7198 57.7923C37.5749 60.3729 35.7913 61.446 33.2286 61.0328C34.8505 60.9021 35.3715 63.2247 37.4001 63.1431C39.249 64.0251 40.5034 67.4028 37.3135 65.9965C36.2078 65.0165 32.2927 63.7686 35.4907 65.6649C38.4405 67.0337 40.7876 67.8503 43.6345 69.5849C45.6713 71.0549 46.5517 72.6883 47.3226 73.0345C45.6076 73.8512 42.1613 72.3812 44.7223 71.932C43.1249 71.6413 41.3283 70.8328 42.8571 72.8222C44.1588 73.91 47.4663 73.794 48.0609 73.9165C47.5578 75.0239 46.6954 75.1121 48.0805 75.1971C46.5353 76.0219 48.577 76.1493 48.7338 76.6181L48.7175 76.6148ZM45.557 67.687C44.6162 66.7021 44.3728 64.8613 45.3887 66.462C45.9114 66.6743 47.0596 69.4739 45.557 67.687ZM55.8535 74.2269C56.4415 74.1877 55.8698 74.6728 55.8535 74.2269V74.2269ZM44.0723 65.2762C44.0347 63.8062 44.4104 66.4244 44.0723 65.2762V65.2762ZM43.0498 63.9009C41.8656 61.6143 44.541 64.5477 43.0498 63.9009V63.9009ZM30.6479 55.3423C31.3437 55.1561 30.9746 56.5313 30.6479 55.3423V55.3423ZM40.5198 60.6914C40.9444 59.0875 41.0212 62.0357 40.5198 60.6914V60.6914ZM33.5454 55.8404C33.0554 54.9552 34.5744 56.6571 33.5454 55.8404V55.8404ZM39.5283 57.758C38.4079 55.2475 40.3238 56.386 39.7782 58.1696L39.5283 57.758ZM29.2089 50.8767C28.7075 50.0519 27.8794 47.6362 28.1473 46.8979C28.3874 48.1001 30.7018 52.0707 29.2808 48.5427C27.7128 45.6027 31.1591 49.5015 31.5119 50.2414C31.6753 50.9764 30.5434 50.0405 31.311 51.7604C29.9096 49.8004 30.4846 52.8416 29.2089 50.8784V50.8767ZM26.0207 48.6783C26.1513 46.7624 26.7491 49.9915 26.0207 48.6783V48.6783ZM27.4547 49.1732C28.1407 47.7277 28.5981 51.1887 27.4547 49.1732V49.1732ZM24.0035 46.5043C22.8161 45.3234 21.9569 44.2176 24.0607 45.7693C24.8692 45.802 22.2607 43.2964 24.2567 44.9739C26.3539 45.3561 25.2922 48.4137 24.0051 46.5027L24.0035 46.5043ZM25.8002 46.4553C26.4894 45.7693 26.166 47.1282 25.8002 46.4553V46.4553ZM26.9174 46.8114C25.872 44.8514 28.1865 47.6329 26.9174 46.8114V46.8114ZM24.6993 44.6929C21.2481 41.619 29.0358 46.2985 25.2628 45.2613L24.6993 44.6929ZM34.5891 50.4374C33.0946 49.5423 34.1922 44.1327 34.7035 47.8322C36.1735 47.3618 34.6218 49.7432 35.7047 49.7203C35.5348 51.223 35.0514 51.762 34.5908 50.439L34.5891 50.4374ZM38.22 52.5934C38.3834 50.96 38.5271 53.7089 38.22 52.5934V52.5934ZM37.5667 51.9645C37.73 51.2687 37.583 52.7845 37.5667 51.9645V51.9645ZM25.3167 43.6754C23.0986 40.6161 31.7618 46.7705 26.7377 44.4512C26.215 44.3124 25.5944 44.2634 25.3167 43.6754V43.6754ZM32.3613 47.4092C32.1489 44.8334 32.83 47.8338 32.3613 47.4092V47.4092ZM37.7088 50.8392C38.122 49.3724 37.7415 51.8094 37.7088 50.8392V50.8392ZM25.6581 42.5059C26.9762 42.2233 31.1183 44.8187 27.3143 43.2474C26.8896 42.7787 26.0076 42.9926 25.6581 42.5059ZM36.9771 48.1458C37.1175 45.5112 37.7643 46.5729 36.9836 48.5247L36.9771 48.1458ZM26.6413 41.588C27.1803 40.8007 25.2138 38.0273 26.9239 40.608C27.6622 41.196 29.0472 41.588 27.8271 41.8379C29.7871 43.5529 27.3371 42.3017 26.643 41.6027L26.6413 41.588ZM36.4185 47.3046C36.7892 44.3026 36.7451 49.0621 36.4185 47.3046V47.3046ZM25.5192 38.7982C25.9308 38.6218 25.7365 39.3454 25.5192 38.7982V38.7982ZM28.0705 40.3172C28.7271 38.9387 29.2792 41.8526 28.0705 40.3172V40.3172ZM35.2637 44.3189C35.2572 43.7913 35.3993 45.0866 35.2637 44.3189V44.3189ZM34.8472 43.3977C33.8672 40.9346 35.7782 44.7011 34.8472 43.3977V43.3977ZM34.2347 41.7644C34.0681 40.7468 34.8064 43.0433 34.2347 41.7644V41.7644ZM35.2147 40.1425C34.5287 38.9338 36.0804 34.8227 36.2535 37.374C35.5299 39.3617 36.0444 40.4724 36.5475 37.8068C37.4785 35.7096 36.3466 41.9489 35.2147 40.1425ZM36.2404 34.0256C36.5393 33.6581 36.3058 34.4666 36.2404 34.0256V34.0256ZM34.5254 67.7654C34.1204 67.411 34.5777 67.9892 34.5254 67.7654V67.7654ZM38.0534 69.549C40.0134 70.039 40.0069 69.2452 38.2168 69.0035C37.2645 68.1166 34.2527 67.1741 36.9477 68.894C37.111 69.3465 37.6892 69.335 38.0371 69.5474L38.0534 69.549ZM31.0889 64.9218C32.1669 65.7286 35.1592 67.2052 32.6291 65.2484C33.4834 64.2554 30.9958 63.7294 31.8206 63.063C29.7218 61.7776 30.1644 61.8936 31.6361 61.9197C29.1142 60.7764 32.0003 60.8776 31.8647 60.2978C30.8929 60.1067 27.0333 58.5828 29.3037 60.4219C26.9958 59.2459 28.7532 60.8597 28.0558 60.6914C25.6956 60.0479 30.1563 62.4881 27.6801 61.8838C29.0325 62.9552 31.3225 64.631 28.2518 63.0173C27.8484 63.6004 30.4503 64.4824 31.0889 64.925V64.9218ZM34.777 67.0418C39.2621 68.4857 32.5769 65.2746 34.777 67.0418V67.0418ZM53.6616 78.4817C53.7204 77.5915 53.0491 79.2412 53.6616 78.4817V78.4817ZM55.6216 79.2984C56.6571 78.2971 55.664 80.8958 57.3366 79.0534C57.3529 77.7336 57.2876 76.9545 55.4158 78.5585C54.8996 78.8459 54.6693 80.0611 55.6216 79.3V79.2984ZM24.8398 59.9858C24.5213 58.7363 22.6119 58.7445 24.8398 59.9858V59.9858ZM26.9108 61.3415C26.1432 60.0675 24.1668 60.1867 26.9108 61.3415V61.3415ZM38.7035 68.453C39.855 69.4755 43.9906 69.2044 40.1016 68.5804C39.5267 67.7311 36.4462 67.9336 38.7035 68.453ZM54.9111 78.4654C56.6832 76.9954 53.1961 79.1285 54.9111 78.4654V78.4654ZM58.5959 80.997C58.6073 80.5201 57.8315 81.2061 58.5959 80.997V80.997ZM58.6024 80.3437C60.5624 78.2661 56.7028 80.4662 58.6024 80.3437V80.3437ZM19.7405 55.7179C18.068 53.3333 18.7017 52.2602 17.088 50.3279C16.7809 48.8367 14.3211 45.4573 15.814 49.0213C17.1827 51.1168 17.5878 54.359 19.7389 55.7179H19.7405ZM57.9866 79.6691C61.58 77.3367 56.5052 78.6532 57.9866 79.6691V79.6691ZM60.7421 80.7471C62.5502 79.1955 59.5987 80.4237 60.7421 80.7471V80.7471ZM24.2256 57.33C24.7418 56.5624 22.8896 57.232 24.2256 57.33V57.33ZM60.1671 79.9925C61.9181 78.8492 59.7637 79.037 59.8503 80.0954L60.1671 79.9925ZM36.4152 65.0394C36.3548 64.275 35.4891 65.1047 36.4152 65.0394V65.0394ZM37.8819 65.8838C37.4148 64.9397 37.1633 66.0471 37.8819 65.8838V65.8838ZM62.9748 80.7733C65.2174 79.1399 61.6192 80.4466 62.5061 81.0803L62.9748 80.7733ZM62.1157 80.3584C63.945 78.828 60.1884 81.0362 62.1157 80.3584V80.3584ZM66.5045 83.2788C67.7295 82.4589 65.0132 83.0142 66.5045 83.2788V83.2788ZM25.3494 56.791C26.9925 57.1585 31.9186 60.8384 29.0129 57.0458C27.5429 56.6048 28.4168 52.9674 26.8994 53.6093C27.9186 55.3129 27.7373 56.0348 25.5976 54.965C22.9108 53.6518 24.0868 55.6134 24.6144 56.1573C23.8957 56.3206 25.5617 56.778 25.3494 56.8106V56.791ZM17.8605 50.8784C18.1545 49.6599 15.1492 44.1817 16.4395 48.1344C16.905 48.9625 16.856 50.5305 17.8605 50.8784ZM31.6067 59.3717C30.7573 58.6645 31.5658 59.2704 31.6067 59.3717V59.3717ZM33.6908 59.8568C33.6908 58.5501 31.4041 59.3341 33.6908 59.8568V59.8568ZM51.7555 71.2444C51.4288 70.3624 50.3933 71.2248 51.7555 71.2444V71.2444ZM52.6211 71.8781C52.4905 71.3849 52.1197 71.9761 52.6211 71.8781V71.8781ZM59.78 76.3747C60.466 75.8847 58.9209 76.3094 59.78 76.3747V76.3747ZM21.6009 51.8339C23.5707 51.0711 19.4906 51.29 21.6009 51.8339V51.8339ZM50.1842 69.8299C50.1613 68.5559 48.9265 70.1484 50.1842 69.8299V69.8299ZM20.8381 50.0176C22.1023 49.5929 19.667 49.7367 20.8381 50.0176V50.0176ZM24.5098 51.8143C24.4886 51.3961 24.1227 51.9743 24.5098 51.8143V51.8143ZM69.286 79.2657C70.9128 78.9358 74.6221 80.0938 75.2199 78.8345C73.2599 78.7855 68.3861 77.4396 68.1558 79.153L68.5886 79.2216L69.286 79.2641V79.2657ZM25.676 52.0903C25.7054 50.7836 24.6683 52.0413 25.676 52.0903V52.0903ZM16.0394 45.3936C15.6016 42.9322 14.3734 45.0212 16.0394 45.3936V45.3936ZM18.326 45.9718C18.3554 45.1813 16.2027 45.2597 18.326 45.9718V45.9718ZM19.6409 46.6186C19.2603 46.292 19.3469 47.0057 19.6409 46.6186V46.6186ZM27.9219 51.927C28.3139 51.5676 26.999 51.6624 27.9219 51.927V51.927ZM18.7507 45.1617C18.5269 43.303 16.0818 44.884 18.7507 45.1617V45.1617ZM14.014 42.0976C13.9487 41.2401 13.5534 42.421 14.014 42.0976V42.0976ZM14.7 41.5684C14.5857 40.5508 14.0957 41.6958 14.7 41.5684V41.5684ZM18.5792 43.8828C20.2207 43.2393 15.5902 42.55 18.2444 43.7619L18.5792 43.8828ZM70.5192 75.9566C71.5694 74.9766 69.1864 75.6593 70.5192 75.9566V75.9566ZM76.7912 79.2232C77.2126 77.9819 75.7295 79.3866 76.7912 79.2232V79.2232ZM18.9712 41.8526C19.1443 40.6488 17.6694 42.0927 18.9712 41.8526V41.8526ZM13.4505 38.1531C13.1565 36.4544 13.1957 33.4703 16.0312 34.4781C12.2468 35.2294 18.6527 39.1821 17.8279 36.0624C19.4204 36.1408 20.9426 35.1216 20.1064 36.6667C23.2424 36.3401 25.418 33.601 28.4478 33.9832C30.808 33.6696 33.3886 33.4327 35.9317 32.4805C38.0224 32.3302 40.0363 30.0795 38.8717 28.7434C36.0199 28.5017 33.0342 28.8578 29.8835 29.4866C26.3914 30.2118 23.2195 31.5903 19.6948 32.1816C16.2582 32.6438 20.384 33.4523 19.4008 33.6516C17.609 34.2723 21.5241 34.692 19.1688 35.3503C17.7054 35.0726 16.1798 34.5695 16.807 33.026C13.5175 33.4556 10.6249 34.8194 13.2251 38.1678L13.4179 38.1694L13.4505 38.1531ZM21.3804 34.1155C22.148 31.2735 25.5127 36.4544 22.6429 34.4944C22.3163 34.2363 21.7364 34.0289 21.3804 34.1155ZM21.5306 32.7369C22.6413 31.9088 22.1219 33.2024 21.5306 32.7369V32.7369ZM22.9435 32.7598C23.0447 31.4531 26.1807 33.4523 23.4596 33.2302L22.9435 32.7598ZM24.8773 31.9823C25.5846 31.1559 25.0831 32.7141 24.8773 31.9823V31.9823ZM25.3722 31.6508C26.5482 30.2379 32.0313 30.7475 28.0182 31.5119C26.9402 30.7018 26.1187 31.9889 25.3722 31.6508V31.6508ZM32.5262 30.5483C32.3498 26.6871 36.0836 31.9203 32.5262 30.5483V30.5483ZM34.5565 30.5368C35.2996 28.5768 37.4393 29.7561 34.8831 30.1448C34.937 30.3539 34.808 31.151 34.5565 30.5368ZM18.1692 40.8546C20.3873 39.4957 15.8172 39.6753 18.1692 40.8546V40.8546ZM19.8107 41.3087C20.5882 40.4822 18.1186 40.9738 19.8107 41.3087V41.3087ZM15.0267 37.8934C16.2942 36.9183 13.524 37.5226 15.0267 37.8934V37.8934ZM80.5233 78.8672C80.5609 77.7369 79.5548 79.3572 80.5233 78.8672V78.8672ZM73.8675 74.3265C74.057 73.0264 73.0116 74.4408 73.8675 74.3265V74.3265ZM82.3527 79.3082C84.1248 79.3147 87.7215 78.7561 83.8668 78.7577C83.2625 78.8508 80.342 78.8329 82.3527 79.3082ZM21.2889 40.51C22.723 40.412 23.5315 38.9289 21.0112 39.0138C17.1043 38.6104 24.4412 40.3532 20.5098 39.8534C19.9806 40.2045 21.2579 40.608 21.2889 40.51ZM22.5515 41.1502C22.4012 40.2307 22.1072 41.6402 22.5515 41.1502V41.1502ZM24.0509 37.1551C24.6715 36.3825 23.1885 36.9493 24.0509 37.1551V37.1551ZM19.2815 29.1844C21.8426 28.3155 25.3249 27.3388 26.5499 29.614C25.32 28.1342 26.0533 26.6773 27.2146 28.8414C28.8578 31.0301 29.6646 27.8614 28.6111 27.1101C29.8296 28.6226 31.213 29.338 29.4278 27.2081C31.3878 24.8724 25.5405 27.5135 24.2142 27.4858C23.5609 27.7716 17.6319 29.0015 19.2815 29.1844V29.1844ZM20.7842 26.313C22.2444 25.2122 25.8475 26.9696 23.5282 25.2187C23.3028 25.0194 18.4845 26.5482 20.7842 26.313ZM26.1089 26.5335C27.8157 26.576 25.3739 24.2371 27.4074 25.2971C27.0742 24.206 25.039 24.0019 24.0427 23.5658C23.4792 24.5458 25.186 26.5466 26.1105 26.5335H26.1089ZM21.7201 21.7021C22.3114 20.8855 20.6829 22.1105 21.7201 21.7021V21.7021ZM23.8957 22.2248C26.6495 21.8606 23.1934 21.0406 23.3404 22.1954L23.8957 22.2248ZM19.8336 19.048C17.8948 16.5163 23.4808 19.4726 21.5094 16.8217C19.8516 15.502 18.2427 18.2917 19.8336 19.048ZM44.7093 32.4462C45.5978 30.8717 41.0392 30.3229 44.1115 31.8909C44.394 31.984 44.3303 32.5573 44.7093 32.4462ZM90.454 32.8627C90.1486 34.0681 89.9608 36.0885 89.8889 38.906C89.8889 39.4614 89.6373 39.7423 89.1343 39.7423C88.6312 39.7423 88.2801 39.4973 88.0824 39.0138C87.5434 37.7023 87.0338 36.7876 86.5471 36.2649C85.9721 35.6557 85.2077 35.2849 84.2571 35.1608C83.233 34.9975 80.6834 34.9158 76.6066 34.9158C75.6724 34.9158 75.0615 35.0138 74.7773 35.2131C74.614 35.3388 74.5078 35.6083 74.5078 36.0216V48.2258C74.5078 48.6391 74.7691 48.8351 75.2869 48.8187L82.2383 48.4953C82.8312 48.4218 83.2314 48.2307 83.4372 47.9155C83.643 47.6003 83.8455 46.7722 84.0415 45.4769C84.1673 44.7583 84.5887 44.4969 85.3074 44.6603C85.9183 44.786 86.1796 45.0637 86.0914 45.4769C85.5883 47.9204 85.425 51.0989 85.6046 55.0156C85.6242 55.4811 85.327 55.7343 84.7161 55.7702C84.2131 55.8241 83.8995 55.5546 83.7737 54.9617C83.3082 52.7175 82.4392 51.5317 81.1603 51.3635C79.8814 51.1952 77.8316 51.1348 74.9766 51.1348C74.6532 51.1348 74.4931 51.2491 74.4931 51.4843V63.6086C74.4931 64.5069 74.8247 65.1178 75.4731 65.4379C75.9958 65.7074 77.1179 65.9508 78.841 66.1664C79.723 66.2562 80.1069 66.6433 79.9844 67.3097C79.8749 67.9026 79.086 68.1362 77.6128 68.012C73.3563 67.6854 69.8446 67.6886 67.0778 68.0659C66.3052 68.1721 65.9344 67.8585 65.9344 67.1235C65.9344 66.6564 66.3199 66.3885 67.0778 66.315C68.8385 66.119 69.7172 64.5722 69.7172 61.6812V38.6186C69.7172 37.4344 69.5049 36.523 69.0851 35.8844C68.6654 35.2457 67.8765 34.6659 66.7282 34.1465C66.0096 33.8231 65.7401 33.3837 65.9197 32.8268C66.0096 32.487 66.1533 32.2976 66.3493 32.2616C66.5126 32.2077 67.0059 32.2453 67.7768 32.3694C68.9087 32.5328 71.5776 32.6389 75.7802 32.6389L88.6345 32.3155C89.8366 32.242 90.4393 32.3417 90.4393 32.6095C90.4393 32.683 90.4295 32.7533 90.4116 32.8251L90.454 32.8627ZM107.927 67.0647C107.927 67.7834 107.524 68.097 106.715 68.0071C104.238 67.7736 101.167 67.8111 97.5035 68.1133C96.7685 68.1868 96.3144 68.1672 96.1413 68.061C95.9681 67.9549 95.8865 67.6576 95.8865 67.1709C95.8865 66.7413 96.3765 66.3771 97.3532 66.0798C98.3299 65.7825 98.8232 64.8989 98.8232 63.4273V39.0449C98.8232 37.5749 98.6109 36.5214 98.1911 35.837C97.7714 35.1526 97.0265 34.6251 95.9698 34.2494C95.4144 34.0534 95.1335 33.7725 95.1335 33.4131C95.1335 32.8741 95.5369 32.4707 96.3454 32.2012C97.5672 31.8059 98.8346 31.1967 100.146 30.3686C101.224 29.7218 101.907 29.4 102.193 29.4C102.858 29.4 103.173 29.8574 103.173 30.772C103.133 31.6702 103.096 32.5685 103.063 33.467L103.011 38.7215L103.117 62.7805C103.117 63.8748 103.387 64.6719 103.926 65.1651C104.465 65.6584 105.391 65.9867 106.702 66.1451C107.511 66.235 107.914 66.5404 107.914 67.0598L107.927 67.0647ZM132.297 65.4755C132.297 65.8511 131.611 66.4228 130.239 67.1856C128.867 67.9483 127.764 68.3289 126.939 68.3289C126.237 68.3289 125.62 67.9892 125.081 67.3048C124.542 66.6204 124.163 66.2823 123.949 66.2823C123.785 66.2823 122.936 66.6515 121.389 67.3865C119.843 68.1215 118.291 68.4922 116.729 68.4922C115.259 68.4922 114.026 68.0594 113.038 67.1856C111.96 66.2333 111.405 64.9397 111.405 63.3048C111.405 60.1965 114.962 57.9703 122.075 56.6081C123.295 56.3745 123.916 55.8796 123.932 55.1267L123.986 53.4019C124.094 50.457 122.794 48.9837 120.079 48.9837C119.307 48.9837 118.577 49.6746 117.883 51.058C117.188 52.4415 116.2 53.1863 114.907 53.2957C113.437 53.4378 112.697 52.8188 112.697 51.4337C112.697 50.5713 113.791 49.5668 115.985 48.4153C118.284 47.2132 120.493 46.6105 122.613 46.6105C126.258 46.6105 128.063 48.3451 128.027 51.811L127.918 62.9095C127.901 64.0773 128.395 64.6604 129.399 64.6604C129.595 64.6604 129.976 64.6163 130.531 64.5265L131.503 64.3926C132.022 64.3926 132.284 64.7437 132.284 65.4444L132.297 65.4755ZM123.999 59.3341C124.016 58.885 123.913 58.5877 123.673 58.4456C123.433 58.3035 123.095 58.2741 122.611 58.3639C118.283 59.1365 116.117 60.5477 116.117 62.6106C116.117 64.6735 117.239 65.709 119.485 65.709C120.383 65.709 121.309 65.5392 122.262 65.1978C123.377 64.8009 123.932 64.3256 123.932 63.7686L123.986 59.3505L123.999 59.3341ZM152.325 62.3934C152.325 64.2978 151.59 65.8119 150.128 66.934C148.666 68.0561 146.667 68.6 144.134 68.6C142.431 68.5985 140.733 68.4178 139.069 68.061C137.599 67.7376 136.769 67.4404 136.537 67.1725C136.393 66.9193 136.321 65.6911 136.321 63.4812C136.321 62.5289 136.537 62.0357 136.968 61.9997C137.399 61.9458 137.785 62.1631 138.072 62.6988C139.42 65.0508 141.594 66.2268 144.592 66.2268C147.124 66.2268 148.39 65.3448 148.39 63.5841C148.39 62.8131 148.104 62.1663 147.528 61.6453C146.899 61.0524 145.679 60.3599 143.864 59.571C141.241 58.4031 139.49 57.3823 138.61 56.5003C137.657 55.566 137.182 54.3116 137.182 52.7436C137.182 50.8032 137.927 49.3136 139.42 48.2193C140.803 47.1772 142.654 46.6562 144.968 46.6562C146.306 46.6446 147.641 46.7617 148.957 47.0057C150.25 47.2393 150.923 47.5251 150.977 47.8681C151.119 48.8726 151.418 50.3279 151.866 52.234C151.92 52.466 151.666 52.6554 151.111 52.7992C150.518 52.9249 150.123 52.8253 149.925 52.5052C148.508 50.1858 146.711 49.0294 144.535 49.0294C142.076 49.0294 140.844 49.82 140.844 51.401C140.844 52.283 141.177 52.9821 141.824 53.5015C142.417 53.9507 143.808 54.653 146 55.6052C148.3 56.5934 149.862 57.4836 150.688 58.2708C151.766 59.2949 152.321 60.6718 152.321 62.3934H152.325ZM184.02 67.1072C184.02 67.736 183.595 68.0872 182.752 68.0872L177.823 68.3567C176.817 68.5527 176.098 68.4302 175.667 67.981C172.828 64.9267 170.42 61.7302 168.447 58.3884C168.284 58.1026 168.08 57.9572 167.827 57.9572C167.521 57.9572 167.01 58.2267 166.239 58.7657C165.393 59.2312 164.972 59.8976 164.972 60.7584L165.025 63.4011C165.061 64.5494 165.347 65.304 165.886 65.6633C166.262 65.9165 167.136 66.1125 168.5 66.2562C169.344 66.364 169.767 66.6809 169.767 67.1986C169.767 67.6119 169.702 67.852 169.565 67.9663C169.427 68.0806 169.075 68.0872 168.5 68.0316C166.703 67.8683 163.668 67.9598 159.394 68.3011C158.316 68.391 157.733 68.2554 157.643 67.8977C157.607 67.7719 157.589 67.5923 157.589 67.3587C157.589 66.8034 158.138 66.3787 159.234 66.0945C160.222 65.8413 160.715 64.6833 160.715 62.6188V39.0694C160.715 37.5994 160.571 36.5736 160.282 35.9987C159.887 35.2637 159.061 34.6871 157.803 34.2739C157.212 34.0779 156.914 33.7839 156.914 33.4572C156.914 32.9346 157.339 32.5311 158.18 32.2453C159.538 31.7876 160.833 31.1621 162.035 30.3833C163.023 29.7381 163.636 29.4131 163.864 29.4131C164.602 29.4131 164.97 29.8786 164.97 30.8145C164.97 30.6871 164.96 31.5773 164.942 33.4801L164.916 38.7623L164.97 55.6265C164.97 56.0936 165.096 56.3255 165.346 56.3255C165.615 56.3255 166.028 56.0936 166.587 55.6265L172.081 51.0466C172.514 50.5974 172.728 50.2381 172.728 49.9686C172.728 49.4851 172.001 49.1421 170.548 48.9461C169.919 48.8726 169.622 48.5215 169.658 47.8943C169.712 47.2654 170.027 46.9959 170.6 47.0858C171.895 47.2491 173.78 47.3634 176.258 47.383L181.403 47.4092C181.958 47.4255 182.22 47.7587 182.22 48.3892C182.22 48.9984 181.779 49.3316 180.9 49.3692C179.515 49.4214 178.213 49.735 176.993 50.3116C175.286 51.0825 173.462 52.4398 171.521 54.3949C171.379 54.5027 171.306 54.6399 171.306 54.7984C171.306 55.0499 171.611 55.6526 172.224 56.6048C174.468 60.0348 176.588 62.5943 178.581 64.337C179.855 65.4314 181.05 65.9802 182.162 65.9802C182.989 65.9802 183.502 66.0373 183.698 66.1566C183.894 66.2758 183.995 66.5812 183.995 67.0843L184.02 67.1072Z" fill="white"/>
</svg>
