<svg width="200" height="243" viewBox="0 0 200 243" fill="none" xmlns="http://www.w3.org/2000/svg">
<path fill-rule="evenodd" clip-rule="evenodd" d="M131.419 1.51237L146.875 1.91706L147.278 1.51237C163.134 2.22165 181.215 1.81553 198.184 1.91706L199.802 2.4247C198.79 36.8216 200.712 68.0739 197.478 102.368C187.883 159.597 151.317 214.995 98.3886 243C96.9737 242.798 96.1646 241.376 94.7525 241.173C47.8823 212.255 13.4409 163.859 3.13724 110.993C0.611852 98.2092 0.611859 83.2932 0.208991 70.8122H0.411133C1.01615 68.683 0.00684884 66.4508 0.611859 64.5218C-0.498512 56.8113 1.01757 48.9993 0.71435 40.6782L0.917919 1.41085L1.624 0.803101L37.9872 1.00759L131.419 1.51237Z" fill="black"/>
<path fill-rule="evenodd" clip-rule="evenodd" d="M7.98738 2.83093C22.2286 2.93104 37.3794 3.33715 52.5303 3.23562C53.4413 3.74184 54.7538 2.93103 56.0663 3.23562L73.3384 3.33715L150.913 3.74184C167.479 3.94632 181.723 4.14938 197.784 4.24948L197.682 50.7211C197.682 69.6955 197.177 89.7855 194.552 108.963C193.743 109.165 194.652 110.586 193.843 110.789C193.338 114.035 192.633 116.877 191.621 119.718C191.021 123.077 190.108 126.373 188.893 129.561C188.996 130.778 188.287 131.387 187.984 132.299C187.278 134.937 186.265 137.574 185.256 140.011C181.316 150.463 176.467 161.318 170.206 170.449C165.863 177.858 161.621 184.959 156.166 191.251C147.783 202.92 135.158 215.197 123.441 224.33H122.936C119.908 227.271 116.069 229.504 112.939 231.634C109.805 233.46 106.574 235.995 103.14 237.517C102.431 238.737 101.119 238.939 99.8051 239.548C98.8969 240.766 97.2806 239.448 95.9682 239.548C91.2211 236.302 86.3723 233.46 82.2309 229.806C79.9079 228.996 77.3827 226.762 75.6641 225.241C75.0591 225.241 74.7559 224.43 74.0485 224.126C60.2102 212.252 47.6859 199.063 37.2826 185.061C37.6855 184.046 36.5751 183.946 36.1694 183.438C32.9379 178.466 29.3022 173.495 26.9775 168.32C25.2593 166.594 25.1597 164.159 23.4415 162.636C22.9361 160.81 21.8257 159.796 21.5239 157.868C1.52166 123.981 0.814156 79.5385 2.42988 37.5324L2.93524 3.54164C3.23704 2.22033 4.95525 3.03542 6.06562 2.83093C6.57096 3.64316 7.37956 2.7294 7.98738 2.83093Z" fill="#900D35"/>
<path fill-rule="evenodd" clip-rule="evenodd" d="M43.8428 26.5742C46.3681 24.8483 50.3085 25.7634 52.4281 27.0819C53.2353 28.4004 54.5493 28.8065 55.6596 29.111C61.015 22.0069 69.1947 29.9219 76.1644 25.4588C78.9927 25.9637 80.3058 28.0957 82.7312 29.111C85.0542 29.2111 87.5787 28.805 89.6996 29.5158V38.8507C91.6197 39.9661 93.335 39.4584 95.2558 40.4737C96.6693 41.7922 96.8714 43.9229 96.5682 45.749C94.7505 48.0827 92.4268 48.0827 89.8006 48.4888C89.6982 56.707 89.0919 64.4189 89.8006 72.7403C92.8297 72.7403 94.8502 73.8556 95.9632 76.5952C96.4672 79.4349 94.5484 80.957 92.9321 82.075C91.6197 82.2767 89.4988 81.5674 89.2967 83.3934V95.264C88.4882 97.5975 85.0542 96.6865 82.9307 97.3944C82.3256 96.788 81.3151 97.1914 80.609 97.0912C79.8019 98.2066 79.7008 96.4835 78.7906 97.0912H59.7011C57.3793 97.9034 54.955 101.556 52.5293 98.9172C50.4082 96.0774 45.662 96.6865 42.9345 96.8882L20.4111 96.1789C19.1982 95.6727 18.9961 94.5547 19.0972 93.2343V81.5674C17.2793 80.957 14.855 81.2615 13.4414 79.9432C11.2178 78.1166 13.0356 75.2755 13.3389 73.145C14.4521 71.6216 17.3804 72.3322 19.0972 71.826C19.8032 63.6081 20.0053 56.5068 19.7036 47.7795C17.0771 47.3748 13.9467 47.3749 12.7339 44.6336C12.6342 43.1121 12.1289 41.5891 13.1396 40.2707C14.7553 38.343 17.1782 38.343 19.705 38.6477L20.2089 37.9369L20.4125 30.0234C20.9179 27.8927 23.7437 28.805 25.4619 28.4004C28.6947 29.5158 30.1097 25.9637 32.7347 25.1529C34.4516 24.2405 35.4623 26.1682 37.2802 26.0681C39.3999 27.0819 41.2177 26.3712 43.8428 26.5742ZM137.783 25.6605C139.702 26.7773 142.325 27.182 143.238 29.5172C144.854 30.4309 144.75 28.4018 145.963 27.8941C151.214 23.1265 157.982 30.2278 163.436 26.0681C167.276 24.5451 170.105 29.6173 172.932 29.8218C174.75 29.5186 177.278 29.7217 179.096 30.4324C179.902 33.7785 178.79 37.026 180.205 39.8689C182.728 39.7659 185.456 39.6644 185.963 42.5058C186.669 43.4181 186.264 44.5364 186.366 45.9563C185.963 46.2595 184.747 46.0564 185.054 47.0717L185.456 47.3777C183.941 49.3054 179.195 47.1747 179.295 50.7239C179.902 57.422 178.892 65.4371 179.499 72.743C181.617 74.0613 184.748 73.5537 185.863 76.292C186.064 78.1179 186.467 80.8582 184.346 81.7705C182.831 82.6854 179.8 81.7705 179.096 83.9036V96.4848L177.781 97.6002C168.588 98.7155 157.881 97.0926 148.186 97.6002C147.174 99.02 146.062 99.1236 144.953 99.8342C142.426 100.036 140.61 98.6153 138.692 97.3958C130.306 97.2956 123.136 97.7003 114.954 97.0926C113.641 97.9047 112.126 96.9924 110.711 96.8895L109.802 95.2653V82.278C107.177 81.8733 104.146 82.1779 103.237 79.0322C102.835 77.3058 103.237 76.0889 103.844 74.5676C105.256 72.7416 107.581 72.6388 109.803 72.7416L110.208 72.029V48.8949C108.49 47.678 106.37 48.8949 104.753 47.5765C103.541 46.361 103.038 45.3457 102.735 43.7227C103.239 42.3013 103.741 40.6782 105.459 39.866C106.772 38.6477 109.4 40.1692 110.409 38.6477C110.208 35.5031 110.613 33.0679 110.712 30.2264C112.635 28.0957 116.27 29.7188 118.189 29.111C120.007 27.5895 122.734 27.0819 124.553 25.659C128.491 28.7049 133.439 26.1682 137.783 25.6605Z" fill="black"/>
<path fill-rule="evenodd" clip-rule="evenodd" d="M141.317 28.805C143.841 31.9496 143.135 36.72 143.239 40.6767C143.542 40.7769 143.642 41.1844 144.045 41.1844C144.751 40.2706 144.144 39.2553 144.55 38.4431C144.045 34.6894 144.244 30.5282 147.074 27.9913C150.204 27.079 154.042 27.2821 157.074 28.6005C159.598 27.9913 161.721 28.2959 164.142 27.6867C165.055 33.9773 164.042 41.183 164.346 47.066C164.55 47.372 164.953 47.1689 165.256 47.1689L165.661 46.6613C165.055 43.3123 166.062 40.3707 165.458 37.1232C166.467 34.2819 164.851 30.7312 166.164 27.4837C168.083 28.499 170.51 29.8174 171.415 31.645C171.415 50.8225 171.012 67.7679 170.406 87.3504H169.799C168.184 85.2192 164.747 83.798 165.456 80.8554L165.66 48.2857C165.357 47.7781 164.548 47.7781 164.142 47.9812C163.739 59.75 164.244 69.8971 163.842 80.9569C163.739 82.7828 162.124 82.9872 160.508 82.7828C158.589 82.9872 157.378 81.363 155.659 80.9569H149.598C148.083 81.8719 146.366 82.887 144.549 82.4796C144.043 79.3333 144.852 75.4784 143.839 72.7402L142.93 73.6525C142.729 76.6966 143.335 79.8429 142.323 82.7842C140.305 83.2918 138.89 81.1613 136.772 81.3643C132.527 79.6385 129.091 83.0887 125.053 81.8719L124.75 81.1613C124.549 63.7081 124.953 45.749 125.053 27.6882C126.871 27.6882 128.79 29.1096 130.709 28.6019C132.427 28.0957 134.245 26.9775 135.963 27.0805L136.366 26.5728C137.681 27.6896 140.004 27.182 141.317 28.805ZM33.4404 26.9789C33.6425 37.5322 33.2382 46.5626 33.1386 57.1159C33.8432 57.3204 33.2382 57.8266 33.1386 58.1312C33.0361 65.8417 32.9351 73.5537 32.7343 81.8746C30.915 83.2944 29.9057 85.833 27.8843 86.8468C27.2792 67.9737 28.0878 48.6961 28.1903 29.7216C29.8046 28.4003 31.52 26.8788 33.4404 26.9789ZM54.3481 31.1387C54.4506 34.0831 54.2484 37.6338 54.5517 40.069L54.956 40.4737C56.6713 37.4293 55.3588 34.3862 56.0663 31.1387C56.7738 29.2111 58.6928 28.0957 60.6103 27.2849C65.6624 26.5742 69.9045 29.6172 74.9554 27.4865C75.7639 31.8509 74.7533 35.8076 75.1562 40.0705L74.3491 78.1178C74.7533 80.1475 73.2374 81.3657 71.5201 81.5687C66.773 81.0625 61.1156 78.22 56.7752 81.8732C55.1567 82.3795 55.2605 80.5549 55.2605 79.5397C55.1581 76.7981 55.5638 74.3644 54.9574 72.0309C54.452 71.8279 53.9466 72.3341 54.0477 72.7429L53.8456 81.367C51.8269 81.4685 49.8055 80.3532 47.6859 80.0486C44.7548 80.0486 42.534 81.6715 39.7055 81.57C38.2904 82.2793 36.4726 81.6715 35.16 81.367L34.3529 80.4534C34.0496 62.6971 34.9593 44.7365 34.9593 27.0833C36.1707 26.6757 37.6868 27.8941 39.1018 28.1987C44.2465 27.8927 51.622 25.0513 54.3481 31.1387ZM81.5195 30.0233C81.1153 48.7934 81.5195 67.5649 81.1153 87.2488C81.1153 87.5547 80.5103 87.3517 80.2071 87.3517C78.4884 85.1177 76.6707 82.9886 75.6601 80.4507C76.2678 61.679 75.8636 45.3442 76.7718 27.0805C78.6919 27.2849 80.0063 29.2126 81.5195 30.0233ZM123.64 27.6896C124.448 37.9369 122.934 48.8949 123.439 59.4482L123.136 82.7842C121.216 84.1039 120.005 86.3366 117.984 87.7564L117.68 87.0485L117.984 44.635L118.387 30.2278C120.106 29.4156 121.825 28.1973 123.64 27.6896Z" fill="white"/>
<path fill-rule="evenodd" clip-rule="evenodd" d="M26.5703 30.0234C27.4799 32.9649 26.4706 36.5169 26.7724 39.1538L26.0649 89.1777L27.4799 90.496L48.8929 90.6991L49.2972 94.8592C40.0043 95.2639 30.5078 95.0602 20.9145 94.6561C20.2056 90.3932 20.812 85.1177 20.4092 80.4487C18.6909 78.5212 15.0537 80.5522 13.8423 78.1152C13.4395 76.7955 13.6416 75.2741 14.3476 74.2603C16.0659 72.4337 19.7016 74.8694 20.9145 72.2306C20.3081 63.6066 21.5195 54.5748 20.6099 46.2537C18.4888 45.849 15.5605 46.6613 14.248 44.8337C13.5405 43.8199 13.4409 42.0925 14.0459 40.9771C15.6616 38.6433 19.9052 41.0772 21.5209 38.9479L21.6206 30.7298C22.9345 29.6173 24.9559 29.8203 26.5703 30.0234ZM88.5913 39.5614C90.8153 41.5891 95.9653 39.763 95.46 44.1259C95.1555 47.8796 90.5101 45.7489 88.5913 47.7795C88.1884 56.5067 88.5913 64.3173 88.1884 73.5523C89.3985 75.0737 92.1277 74.1601 93.843 75.1752C94.7539 76.0889 95.46 77.9162 94.3483 79.0322C93.0359 81.0611 90.8153 80.2504 88.5913 80.452C87.5807 85.5271 88.2882 90.7004 87.4797 95.4696C78.6923 95.2652 68.9966 95.7742 60.4095 95.0636L60.6102 90.9021H81.3171C82.5312 90.5989 81.9235 89.2792 82.5312 88.6714L82.7333 39.1552L83.3403 30.9386C84.9559 30.0248 86.6739 30.431 88.5913 30.6326V39.5614ZM117.075 31.8495C116.469 50.6209 116.672 70.7106 115.862 89.7854C115.763 90.7004 116.772 91.1051 117.478 91.208H137.783L138.39 95.5698C129.805 96.0774 120.61 95.4696 112.024 95.4696C110.712 94.6588 111.52 92.728 111.322 91.8171L111.118 80.9596C108.693 80.7566 105.36 80.8594 104.148 78.2207C104.049 76.6993 104.452 75.0764 105.966 74.5688C108.087 74.0613 110.409 75.1766 111.421 72.9459V47.3748C108.894 46.6641 104.753 47.7795 104.047 44.4305C104.047 43.1121 104.45 41.9952 105.257 40.9799C107.179 41.08 108.894 40.0676 110.712 40.4737C112.127 37.2277 110.915 33.5755 112.331 30.4295C114.147 30.9386 116.973 29.2126 117.075 31.8495ZM178.691 40.6782C180.61 41.7936 184.549 40.375 185.255 43.215C185.558 44.5349 184.952 45.6502 184.345 46.6655C182.629 47.984 179.902 47.0702 177.98 48.0855C178.893 55.4929 177.881 61.8848 178.184 69.2934C178.085 71.2215 177.378 74.0613 179.499 74.9736C181.115 74.466 182.731 75.0764 184.045 75.8872C184.851 76.9024 184.851 78.5259 184.549 79.7441C182.93 82.3808 178.388 79.6413 177.982 83.193L177.781 94.5573L176.366 95.9785H149.5L149.803 91.6154C156.874 91.2113 164.246 91.6154 171.317 91.2113L172.226 90.2957C172.43 71.0185 172.43 50.7239 172.933 31.1416C174.851 30.94 176.57 30.7369 178.388 31.3447L178.691 40.6782Z" fill="white"/>
<path fill-rule="evenodd" clip-rule="evenodd" d="M43.4385 44.8381C43.1367 46.055 41.5196 46.7658 42.4278 48.4903C43.6421 53.1592 44.146 58.2314 46.166 62.5943L46.9746 62.1867C48.2871 57.0116 50.0054 51.938 50.9136 46.4597C50.6118 45.3443 48.7925 46.6628 49.0957 45.2414C50.3086 45.0397 53.1371 44.6336 53.8418 45.5474C51.3179 46.3596 52.125 49.5041 50.9122 51.4318C49.3975 56.5053 48.9932 62.0866 46.3682 66.754C43.4371 60.7667 43.3374 53.3594 40.9131 47.0675C41.316 44.7337 37.7799 47.0675 38.8931 44.6336L43.4385 44.8381ZM67.4796 45.0411C68.2868 46.4612 68.6897 48.4903 67.9849 50.1134C66.5681 49.4012 68.6897 45.7505 66.1669 46.4612L65.4594 46.1565L60.208 46.2566C59.6001 48.7935 59.8037 52.0395 60.0058 54.3747C61.5204 55.1855 63.2372 54.173 64.7519 54.4762C64.954 55.0854 65.7626 54.8809 65.4594 55.5916C64.0458 57.4177 59.9047 54.2731 60.0058 57.4177C60.3075 59.8515 59.2969 61.9836 60.208 64.4189C62.5312 65.4327 65.3597 64.6219 67.8839 64.4189C67.8839 63.2005 67.6831 61.9836 68.3892 61.0698C69.9037 61.9836 68.4902 64.0114 68.8931 65.6372L68.3892 66.245C64.4487 66.1421 61.0165 66.3451 57.0775 66.042C56.4697 65.7373 56.6718 65.2311 56.975 64.7235C58.1879 64.9266 58.6933 63.9113 58.8968 62.8974L58.7943 46.4597C58.1893 45.4444 55.8646 46.3596 57.0789 44.6336C60.1054 45.3458 64.0458 44.9382 67.4796 45.0411ZM144.145 48.895C145.36 50.9241 144.349 53.3594 143.641 55.2898C142.932 56.7084 139.399 56.6083 141.316 58.9421C142.831 61.1743 142.425 65.6401 146.165 66.0448C146.568 65.6401 146.973 65.0295 147.679 65.3341C148.286 66.5524 146.367 66.8556 145.658 67.2632C139.8 65.9447 142.831 56.2022 135.253 57.2175C134.447 56.9144 133.941 57.8267 133.838 58.3357V64.7264C134.344 65.8418 136.971 64.7264 135.962 66.3494L135.656 66.7569C134.144 66.3494 131.213 67.6692 130.507 65.6415L132.526 64.7278C133.235 58.8405 132.829 52.7545 132.932 47.0717C132.426 46.2609 131.316 46.5656 130.708 46.464V45.3487C135.558 46.2566 141.42 43.8228 144.145 48.895ZM157.678 45.7505C158.388 47.2719 156.266 46.8673 155.459 47.1718L155.255 64.7249C155.559 65.5357 158.184 64.928 156.871 66.348C155.459 67.2617 153.841 66.2479 152.225 66.551C151.922 66.2479 151.315 65.8403 151.822 65.4356C152.225 64.8265 153.032 65.2326 153.64 65.1325C154.446 58.8391 154.144 53.2607 154.144 47.0703C153.537 46.3625 151.62 47.681 151.822 45.9549C153.539 45.3458 156.064 45.5488 157.678 45.7505Z" fill="black"/>
<path fill-rule="evenodd" clip-rule="evenodd" d="M142.933 49.2009C143.137 51.0271 143.642 52.9547 142.326 54.4762C140.208 56.3023 136.875 55.7946 134.147 55.5916C133.943 52.8532 133.741 49.4012 134.347 47.0674C137.075 47.475 141.521 45.7504 142.933 49.2009ZM51.5211 82.9886C50.5103 84.9161 50.0079 87.1487 48.8946 88.8745L29.7023 88.4684C29.399 86.541 31.8248 85.2206 32.9352 83.5964C34.5509 82.5812 36.672 83.6992 38.5924 83.6992C42.7349 83.1916 47.4811 80.7553 51.5211 82.9886ZM73.6433 82.7842H74.7536C76.4689 84.8132 78.2866 86.5396 79.0964 89.0748C72.4299 89.2779 66.2677 88.6701 60.0054 88.8731C60.8126 86.2331 56.9733 84.713 59.0973 82.4797C64.4498 79.843 68.4913 85.1191 73.6433 82.7842ZM139.499 84.1039C139.602 86.1329 138.49 87.6563 138.39 89.5824L119.5 89.3821V88.6701L124.349 83.9023C129.701 85.3221 134.853 80.2504 139.499 84.1039ZM164.751 84.307C166.672 85.9299 168.49 87.4533 169.5 89.5824C162.831 90.293 156.469 89.6853 149.6 89.5824C149.094 87.5548 147.681 85.8304 147.782 83.5964C153.843 80.1475 158.692 86.2344 164.751 84.307ZM57.9854 86.3379C59.298 90.0913 59.7023 94.6575 56.774 97.5988C54.9561 98.0062 52.8321 97.9033 51.6221 96.3806C50.1075 92.7281 50.5103 87.4519 52.9361 84.51C54.754 83.1916 57.1769 84.307 57.9854 86.3379ZM146.877 86.4375C148.087 89.5824 148.691 93.9469 147.077 97.0912C145.762 97.9033 144.046 98.5124 142.328 98.0062C140.813 97.7003 140.106 96.2804 139.804 94.8605C139.704 91.208 139.198 86.4374 142.735 84.51C144.348 84.0024 146.469 84.6115 146.877 86.4375Z" fill="white"/>
<path fill-rule="evenodd" clip-rule="evenodd" d="M80.6107 125.604C85.4595 125.705 91.7211 122.763 95.9649 125.91C97.3784 126.823 98.0858 128.952 99.8018 129.258C102.227 125.707 105.964 124.285 110.208 124.488C115.863 125.707 122.631 127.534 127.48 123.881C130.711 125.199 132.731 127.937 135.863 128.648C138.086 128.445 140.711 128.142 142.531 129.563C142.631 131.794 143.036 133.62 142.934 136.157C144.855 137.477 147.683 136.462 149.501 138.188C150.327 139.425 150.814 140.86 150.913 142.347C150.207 144.071 148.795 144.986 147.076 145.796C145.964 146.101 143.439 145.186 142.934 146.709L142.733 173.598C143.643 175.12 146.266 173.598 147.279 174.817C149.094 174.612 150.106 176.542 150.913 177.555C150.712 179.077 151.418 180.904 150.409 182.021C149.094 185.472 144.65 182.73 142.732 185.064V195.719C142.026 197.34 139.8 197.748 138.186 197.543L105.458 197.339C103.74 198.761 103.54 201.4 101.116 202.415C99.3989 203.023 97.8824 202.211 96.5699 201.5C95.0554 200.484 95.0554 198.252 93.8413 197.339C81.822 197.24 70.7096 197.643 59.0966 196.935C57.8836 196.225 56.3676 197.746 55.4608 196.225C55.0551 194.399 54.0444 191.965 54.9554 190.339C54.853 189.73 54.2479 188.819 54.9554 188.412C54.3476 186.789 55.7625 184.556 54.0458 183.439C51.7225 184.047 49.6014 183.339 47.8833 182.019C47.4818 179.888 45.7622 177.149 48.1878 175.424C49.7011 173.598 52.3276 174.409 54.3476 173.903C55.5618 173.498 54.1454 172.178 54.9554 171.772V145.695C53.7426 144.377 52.8329 145.798 51.5204 145.087C49.8036 144.783 48.2875 143.972 47.6839 142.144C47.1786 140.521 47.7836 139.404 48.1878 137.985C49.9032 135.855 52.9354 136.766 55.1561 135.75C55.5618 133.012 53.9447 129.664 56.5726 128.142C61.7244 129.563 65.6634 126.012 69.2988 123.778C73.137 124.285 76.4679 126.314 80.6107 125.604Z" fill="black"/>
<path fill-rule="evenodd" clip-rule="evenodd" d="M123.843 127.025C124.752 126.822 125.558 126.011 126.771 126.314L127.077 127.025L127.277 163.757C126.065 168.929 127.377 174.612 126.772 180.498C119.299 185.673 112.128 177.149 104.555 181.106C103.14 182.122 101.825 183.137 100.21 183.644L100.006 172.685C99.7052 172.482 99.6041 171.874 99.0981 172.074C97.6833 175.831 99.6021 179.99 98.1886 183.237C94.3497 179.381 87.38 179.178 82.5325 181.207C78.8951 181.919 73.8448 183.237 70.6116 180.903L70.7127 133.823L71.1169 126.111C72.8342 125.096 73.6427 127.228 75.2596 127.025C83.4394 129.865 93.3384 120.834 98.3907 130.474C98.8947 132.908 98.0889 135.854 99.0981 137.983C101.117 136.765 99.7031 133.518 100.411 131.389C102.23 128.242 104.451 126.214 107.989 125.705C113.238 126.72 118.288 127.735 123.843 127.025ZM68.8936 179.99C68.7939 182.934 66.065 185.773 64.0463 187.499H63.3389L63.8442 129.056C65.5596 127.937 67.0759 126.414 69.0957 125.91L68.8936 179.99Z" fill="white"/>
<path fill-rule="evenodd" clip-rule="evenodd" d="M99.097 144.375C101.623 150.564 102.834 157.362 104.954 163.757C105.662 164.365 106.771 163.857 107.278 164.974C106.065 166.293 103.944 164.77 102.532 165.585C102.229 165.279 101.824 164.771 102.229 164.467C104.248 164.265 103.338 162.438 103.238 161.117C102.632 158.076 98.1875 159.599 95.8645 159.19C93.7429 158.785 94.6511 161.32 93.6432 162.234C93.1379 163.757 94.552 163.654 95.0573 164.67L94.552 165.38C93.1379 164.465 90.1075 166.597 90.2085 164.265C91.3202 163.759 92.5315 163.959 92.7337 162.438C94.552 156.453 95.7647 150.16 98.1888 144.377H99.097V144.375Z" fill="black"/>
<path fill-rule="evenodd" clip-rule="evenodd" d="M134.347 129.562C134.65 149.245 133.842 169.234 134.347 188.41L133.238 188.206L128.188 181.612C128.994 163.145 128.086 145.895 128.692 126.617C130.812 127.025 132.529 128.648 134.347 129.562ZM62.0262 129.359C62.2284 148.535 61.6219 170.755 61.8226 189.833L62.933 190.948H94.1469C94.954 192.268 94.3476 193.991 94.0445 195.313L93.3357 195.817C82.0245 195.817 71.9226 195.21 61.3172 194.905C60.6083 195.514 60.2069 194.905 59.4994 194.905C58.389 195.413 57.2772 195.005 56.3676 194.602L56.0658 182.729C53.6429 181.006 49.1957 183.539 48.1878 179.583C48.1878 178.164 47.9843 176.743 49.5004 175.93L55.4608 175.424L56.1654 174.309C56.0658 163.351 56.4686 154.726 55.8622 144.175C54.6494 143.971 52.934 143.868 51.519 143.667C50.3075 143.566 48.6904 143.261 48.5893 141.841C48.4897 140.522 48.689 139.306 49.2968 138.391C51.1146 137.986 53.2357 137.275 54.954 137.781C57.6801 136.363 55.7611 132.809 56.5697 130.172C57.9847 128.748 60.0061 129.664 62.0262 129.359Z" fill="white"/>
<path fill-rule="evenodd" clip-rule="evenodd" d="M141.316 130.17C142.53 132.908 140.004 136.869 143.438 138.49C145.66 138.591 148.689 137.983 149.499 140.52C150.005 142.346 148.69 143.665 147.277 144.174C145.358 144.984 142.026 143.057 141.315 145.797L141.618 146.406C141.417 155.943 141.417 165.076 141.417 174.511C142.024 177.352 145.458 175.018 146.873 176.541C147.779 175.931 148.588 176.743 149.294 177.249C150.204 178.368 149.597 179.888 149.294 181.105C147.275 183.642 143.236 181.206 141.315 183.439L141.112 195.108L140.003 195.816H105.456C104.347 194.804 104.85 193.077 104.75 191.659C105.861 190.441 107.681 191.659 108.889 191.253H134.344C135.053 190.847 135.963 190.238 135.859 189.325V130.17C137.577 130.27 138.89 129.764 140.707 130.17H141.316Z" fill="white"/>
<path fill-rule="evenodd" clip-rule="evenodd" d="M119.097 144.578C120.307 144.781 119.803 146.506 120.205 147.115C120.106 148.027 120.305 149.041 120.005 149.852C118.59 149.041 118.49 146.707 116.771 146C114.75 145.592 112.227 145.692 111.32 147.622C110.913 148.839 110.307 150.361 111.32 151.478C114.044 154.622 119.097 153.912 120.914 158.376C121.42 160.507 121.217 162.636 119.803 164.262C118.388 166.594 115.257 165.987 113.137 165.582C112.022 164.262 110.812 167.305 110.509 164.971C110.104 163.348 109.903 161.318 110.004 159.696C111.518 159.899 110.812 162.03 111.419 162.942C112.832 164.873 115.156 164.768 117.075 164.463C118.288 164.159 119.905 163.145 120.006 161.725C120.61 160.407 119.603 159.289 119.501 158.073C116.37 154.216 107.684 154.316 110.005 147.621C111.015 145.895 112.228 144.78 114.148 144.374C116.165 143.563 117.784 147.116 119.097 144.578ZM89.5004 144.881C89.398 146.404 89.8022 148.941 88.3874 149.853L88.1866 146.201C86.1668 146.406 84.0459 144.881 82.7314 146.707C82.5293 152.187 82.3272 158.376 82.9322 163.551C83.3378 164.262 85.3583 163.551 84.7499 165.175L79.4989 165.379C78.2862 163.145 81.5187 164.768 81.5187 162.942C81.6198 157.261 81.923 151.58 81.3166 146.201C79.8021 146.201 77.3773 145.288 76.5702 146.912C76.2684 147.927 76.3681 149.041 75.6607 149.853C75.2578 148.23 75.4599 145.492 76.9731 144.58C81.2182 145.492 84.8543 144.274 89.5004 144.881Z" fill="black"/>
<path fill-rule="evenodd" clip-rule="evenodd" d="M100.208 151.072C100.41 153.405 102.025 155.131 101.623 157.665H95.6608C96.0663 154.216 96.7744 150.259 98.5921 147.115C99.3993 148.027 99.9046 149.651 100.208 151.072ZM97.2784 185.673C96.2691 192.876 88.7935 187.804 84.3482 189.326L65.1558 188.92C66.064 186.585 68.2872 185.267 69.5006 183.033C72.8315 183.948 77.582 184.556 81.115 183.238C85.8654 181.816 94.5505 179.887 97.2784 185.673ZM126.571 183.032C128.892 184.859 131.013 186.889 132.226 189.427C123.34 190.034 113.239 189.222 104.147 189.427C103.54 188.107 101.923 186.585 101.419 185.062C109.398 177.859 117.884 186.789 126.571 183.032Z" fill="white"/>
<path fill-rule="evenodd" clip-rule="evenodd" d="M102.329 188.919C103.438 192.368 104.45 196.731 102.23 199.877C100.713 200.991 98.7929 200.688 97.0776 200.284C94.5518 197.746 95.8642 193.79 95.9673 190.542C96.3701 189.222 97.4805 188.107 98.5934 187.295C100.208 186.992 101.722 187.599 102.329 188.919Z" fill="white"/>
</svg>
