<svg width="50" height="51" viewBox="0 0 50 51" fill="none" xmlns="http://www.w3.org/2000/svg">
<g clip-path="url(#clip0_102:149)">
<path d="M4.18669 45.0124L0 0.333496L50 0.423281L45.573 45.0124L25.1887 50.1664L4.18669 45.0124Z" fill="#E9CA32"/>
<path d="M25.1885 45.8515V4.58862L45.7788 4.64848L42.107 41.5662L25.1885 45.8515Z" fill="#FFDE25"/>
<path d="M22.9836 9.48804H17.5401V36.9516L13.3062 36.2474V32.5504L8.26587 31.8462V40.1205L22.9836 43.4654V9.48804ZM27.0671 9.48804H42.1368L41.1288 14.7519H32.8199V23.3899H41.1288L40.1207 40.8247L27.0671 43.4654V38.0079L35.8868 35.3672L36.3961 28.1492L27.0671 29.3287V9.48804Z" fill="white"/>
</g>
<defs>
<clipPath id="clip0_102:149">
<rect width="50" height="50" fill="white" transform="translate(0 0.25)"/>
</clipPath>
</defs>
</svg>
