<svg width="168" height="84" viewBox="0 0 168 84" fill="none" xmlns="http://www.w3.org/2000/svg">
<path fill-rule="evenodd" clip-rule="evenodd" d="M45.2792 32.2157L45.2389 20.9194H38.9355L38.9759 32.2157L42.1275 36.5434L45.2792 32.2157ZM38.9759 51.576V62.9127H45.2792V51.576L42.1275 47.2483L38.9759 51.576Z" fill="white"/>
<path fill-rule="evenodd" clip-rule="evenodd" d="M45.2792 51.576L51.9185 60.7354L56.9989 57.0394L50.3595 47.88L45.2792 46.2403V51.576ZM38.9758 32.2157L32.2961 23.0563L27.2158 26.7523L33.8552 35.905L38.9758 37.5447V32.2157Z" fill="#00F2E6"/>
<path fill-rule="evenodd" clip-rule="evenodd" d="M33.8553 35.9117L23.1033 32.424L21.168 38.3847L31.92 41.9127L37.0003 40.2327L33.8553 35.9117ZM47.208 43.5523L50.3596 47.88L61.1116 51.3677L63.047 45.4071L52.295 41.9194L47.208 43.5523Z" fill="#00B9F1"/>
<path fill-rule="evenodd" clip-rule="evenodd" d="M52.2883 41.9194L63.0403 38.3914L61.1049 32.4308L50.3529 35.9185L47.2012 40.2461L52.2883 41.9194ZM31.92 41.9194L21.168 45.4071L23.1033 51.3677L33.8553 47.8801L37.007 43.5524L31.92 41.9194Z" fill="#D63AFF"/>
<path fill-rule="evenodd" clip-rule="evenodd" d="M33.8552 47.88L27.2158 57.0394L32.2961 60.7354L38.9758 51.576V46.2403L33.8552 47.88ZM50.3595 35.9117L56.9989 26.7523L51.9185 23.0563L45.2792 32.209V37.5447L50.3595 35.9117Z" fill="#FB015B"/>
<path fill-rule="evenodd" clip-rule="evenodd" d="M86.5602 31.6243V46.321C86.5602 49.5533 83.9125 52.201 80.6802 52.201V49.2576C82.3199 49.2576 83.6235 47.9539 83.6235 46.3143V31.6243H86.5602ZM140.239 34.5677H146.872V31.631H130.704V34.5677H137.296V52.2077H140.239V34.5677ZM121.84 31.6243V46.321C121.84 47.9607 120.536 49.2643 118.897 49.2643C117.257 49.2643 115.953 47.9607 115.953 46.321V37.5043C115.953 34.272 113.306 31.6243 110.073 31.6243C106.841 31.6243 104.193 34.272 104.193 37.5043V46.3277C104.193 47.9674 102.89 49.2711 101.25 49.2711C99.6104 49.2711 98.3067 47.9674 98.3067 46.3277V31.6243H95.3634V46.321C95.3634 49.5533 98.011 52.201 101.243 52.201C104.476 52.201 107.123 49.5533 107.123 46.321V37.5043C107.123 35.8646 108.427 34.561 110.067 34.561C111.706 34.561 113.01 35.8646 113.01 37.5043V46.3277C113.01 49.56 115.658 52.2077 118.89 52.2077C122.122 52.2077 124.77 49.56 124.77 46.3277V31.6243H121.84Z" fill="white"/>
</svg>
