<svg width="144" height="31" viewBox="0 0 144 31" fill="none" xmlns="http://www.w3.org/2000/svg">
<path d="M6.09199 15.9502V19.6571C6.08784 19.8039 6.0962 19.9507 6.11697 20.0961C6.16516 20.5351 6.43466 20.8029 6.83087 20.926C7.20054 21.0233 7.57611 21.0967 7.95524 21.1455C8.17476 21.1705 8.24794 21.2669 8.27293 21.5025C8.29791 22.3324 8.22474 22.4305 7.41982 22.3806C5.54229 22.2824 3.66297 22.2592 1.78544 22.3806H1.60696C1.02157 22.4055 0.973385 22.3556 0.973385 21.7702C0.973385 21.672 0.998371 21.5507 0.998371 21.4525C0.998371 21.274 1.11973 21.1848 1.29107 21.1848C1.68371 21.1366 2.04779 21.0384 2.41544 20.9653C2.92766 20.8439 3.21857 20.5262 3.26854 20.014C3.33993 19.4536 3.33994 18.8682 3.33994 18.306L3.36492 11.7703C3.37297 11.5808 3.32689 11.3929 3.23208 11.2285C3.13727 11.0642 2.99764 10.9302 2.8295 10.8423C2.38814 10.5971 1.92135 10.4008 1.43742 10.2569C1.29107 10.2087 1.14472 10.1855 1.02336 10.1105C0.666411 9.93921 0.657488 9.62332 0.998371 9.427C1.11973 9.35561 1.26608 9.30563 1.41243 9.28065C2.89259 9.0622 4.34682 8.69446 5.75289 8.18304C6.04559 8.08488 6.11876 8.11165 6.14553 8.40256C6.17051 8.58103 6.14553 8.7952 6.12054 8.96297C6.07235 9.28065 6.07236 9.59655 6.07236 9.89103C6.07236 10.0124 6.09734 10.1355 6.2187 10.2087C6.34006 10.2819 6.46321 10.2087 6.57565 10.1373C7.08787 9.74468 7.60008 9.38059 8.16049 9.06648C8.96362 8.62744 9.82029 8.23658 10.7483 8.11522C11.8727 7.96887 12.8454 8.26157 13.7003 8.99331C14.0538 9.30966 14.3651 9.67016 14.6266 10.0659C14.8711 10.4229 14.8943 10.4318 15.212 10.1873C16.14 9.50374 17.1145 8.89515 18.1639 8.4561C19.2615 7.99207 20.3841 7.92068 21.5049 8.30975C22.6507 8.72381 23.4324 9.52872 23.8964 10.6263C24.2891 11.5044 24.4568 12.4111 24.4568 13.357V19.8926C24.4568 20.3317 24.6353 20.6065 25.0672 20.8207C25.5313 20.9992 26.0435 21.0884 26.5307 21.1866C26.8484 21.258 26.8484 21.258 26.8484 21.5792C26.8002 22.3823 26.727 22.4323 25.9453 22.3823C23.9878 22.2726 22.0257 22.2726 20.0682 22.3823C19.6756 22.4073 19.6756 22.4073 19.6541 22.0165V21.8951C19.6292 21.2348 19.6292 21.2348 20.2645 21.092L20.8981 20.9207C21.1128 20.8701 21.3041 20.7488 21.4414 20.5762C21.5787 20.4037 21.6539 20.1899 21.6548 19.9694L21.7262 18.14L21.678 13.3605C21.6593 12.9338 21.5688 12.5133 21.4103 12.1166C20.7999 10.6281 19.4596 10.0927 18.1657 10.239C17.1894 10.3372 16.3363 10.7263 15.5314 11.2885C15.3601 11.4098 15.2387 11.5562 15.2637 11.8007C15.4832 13.3623 15.3351 14.924 15.3619 16.4838V19.8748C15.3619 20.4852 15.6064 20.7779 16.1918 20.9242L17.3161 21.1687C17.4875 21.1937 17.5839 21.2669 17.5839 21.4614V21.6399C17.5589 22.3235 17.5125 22.3538 16.8271 22.3467C14.8764 22.2485 12.9239 22.2753 10.9982 22.3467C10.3379 22.3716 10.2843 22.2985 10.3147 21.6328C10.3396 21.2401 10.386 21.2187 10.7537 21.1455L11.5568 20.9992C12.2707 20.8528 12.5331 20.5851 12.5813 19.8284L12.6526 18.1936L12.6045 13.2909C12.5563 12.6806 12.426 12.0952 12.0922 11.5348C11.605 10.6317 10.8429 10.1694 9.79887 10.1195C8.74945 10.0481 7.82318 10.4372 6.94331 10.9226C6.33293 11.2795 6.06522 11.7025 6.11341 12.4111V15.9716L6.09199 15.9502ZM52.0434 16.0983V19.5375C52.0473 19.782 52.0634 20.0263 52.0916 20.2692C52.102 20.4312 52.1647 20.5854 52.2703 20.7086C52.3758 20.8319 52.5186 20.9176 52.677 20.9528C53.0978 21.0754 53.5314 21.1491 53.9691 21.1723C54.2136 21.1973 54.2618 21.2937 54.2868 21.49V21.6613C54.2618 22.5144 54.1654 22.6126 53.3355 22.5644C51.4794 22.443 49.6287 22.4662 47.7743 22.5644L47.0604 22.5894C46.9141 22.5894 46.882 22.518 46.8409 22.418C46.7696 22.0803 46.7696 21.7314 46.8409 21.3936C46.8659 21.2473 46.9623 21.2151 47.1086 21.1741C47.4656 21.1259 47.769 21.0527 48.1081 20.9956C48.7185 20.8493 48.938 20.603 48.9612 19.9712L49.0326 17.9223V11.922C49.0326 11.483 48.8612 11.2153 48.4722 11.019C48.0331 10.7745 47.5691 10.6049 47.0801 10.4336C46.9337 10.3854 46.7874 10.3354 46.666 10.2623C46.3483 10.0427 46.3091 9.72683 46.6178 9.48232C46.7563 9.3685 46.9264 9.29997 47.1051 9.286C48.6667 9.04149 50.1784 8.70061 51.6418 8.11522C51.8132 8.04383 51.8863 8.09023 51.9595 8.23658C52.0327 8.38293 52.0577 8.55426 52.0309 8.72381L51.9595 9.86961C51.9595 10.016 51.8881 10.2266 52.0077 10.2837C52.1541 10.3818 52.2522 10.1623 52.3736 10.1052C53.0937 9.50109 53.8892 8.99296 54.7401 8.59353C55.4969 8.23658 56.275 8.00814 57.1549 8.05811C58.7897 8.15627 59.9605 8.98617 60.7154 10.4247C61.108 11.1814 61.2758 12.0095 61.349 12.8644L61.4204 14.6491L61.4454 20.039C61.4703 20.4531 61.6167 20.7226 62.0307 20.8689C62.46 21.012 62.9006 21.1182 63.3479 21.1866C63.7405 21.2348 63.7619 21.3079 63.7869 21.6738V21.7952C63.7387 22.6251 63.6888 22.6483 62.8589 22.5983C61.0392 22.5007 59.2155 22.5007 57.3958 22.5983C57.1513 22.6233 56.9086 22.5983 56.6819 22.6233C56.5356 22.6233 56.4374 22.5983 56.4142 22.4519C56.366 22.1343 56.316 21.8184 56.3892 21.4757C56.4142 21.3294 56.4874 21.2562 56.6569 21.2312L57.7813 21.0527C58.1739 20.9546 58.3917 20.6958 58.4417 20.3388L58.4898 19.6553L58.4649 14.5581C58.4649 13.9727 58.4399 13.3873 58.3185 12.8019C58.0258 11.5526 57.0745 10.6602 55.7842 10.5353C54.6598 10.414 53.6425 10.7066 52.7109 11.3152C52.2469 11.6079 52.0505 12.022 52.0505 12.5342V16.2179C52.0505 16.1465 52.0505 16.1465 52.0755 16.1465L52.0434 16.0983Z" fill="white"/>
<path d="M123.478 9.19507C123.211 7.41391 122.55 5.82907 121.405 4.43877C120.406 3.21056 119.114 2.25416 117.648 1.65816C116.113 1.02459 114.476 0.828264 112.818 0.780076C112.135 0.75509 102.818 0.901438 102.135 0.780076C101.964 0.75509 101.842 0.805064 101.742 0.951412C101.621 1.12988 101.498 1.31728 101.425 1.51181C101.132 2.17216 101.132 2.12219 101.839 2.21857C102.424 2.31673 102.984 2.36492 103.547 2.53625C104.059 2.70758 104.425 3.00028 104.546 3.56068C104.594 3.82839 104.644 12.4129 104.644 16.4143L104.546 19.2699C104.521 19.4894 104.498 19.7089 104.425 19.9034C104.327 20.1961 104.157 20.4389 103.864 20.5638C103.542 20.7153 103.195 20.8061 102.84 20.8315C102.18 20.9029 102.083 20.9297 101.864 21.6614L101.792 21.9291C101.744 22.2468 101.767 22.295 102.085 22.295L109.377 22.3664L112.233 22.3182L114.209 22.0737C116.452 21.6596 118.453 20.7316 120.159 19.2449C121.134 18.3841 121.929 17.3398 122.5 16.1716C123.184 14.8063 123.477 13.316 123.55 11.8061C123.671 10.953 123.621 10.0749 123.478 9.19686V9.19507ZM119.941 12.6574C119.843 14.2191 119.527 15.7307 118.722 17.0961C117.698 18.8772 116.234 20.1212 114.21 20.5584C113.332 20.7369 112.454 20.8261 111.533 20.7048C110.873 20.6334 110.241 20.5584 109.631 20.3389C108.533 19.9463 108.142 19.2681 108.119 18.1972L108.094 3.49108C108.094 2.61299 108.487 2.42024 109.119 2.39347C110.07 2.32208 111.046 2.34528 111.997 2.44166C113.01 2.5396 114.004 2.77993 114.949 3.15555C115.652 3.44832 116.302 3.85206 116.877 4.35132C118.194 5.4757 119.072 6.88563 119.554 8.54543C119.946 9.88754 120.018 11.2529 119.946 12.6182L119.941 12.6574ZM143.749 15.049C143.749 14.9026 143.749 14.7813 143.724 14.6349C143.505 13.2928 142.796 12.2684 141.701 11.4884C140.994 10.9762 140.189 10.6353 139.359 10.3908C139.213 10.3426 139.091 10.2927 138.945 10.2695C138.97 10.1481 139.043 10.1231 139.116 10.0981C139.603 9.85363 140.068 9.58592 140.482 9.22006C141.238 8.58648 141.731 7.80477 141.993 6.85351C142.14 6.34129 142.14 5.82907 142.091 5.29187C142.052 4.66344 141.871 4.05203 141.563 3.503C141.254 2.95397 140.826 2.48142 140.31 2.12041C139.186 1.29051 137.871 0.949628 136.505 0.924642C133.871 0.876454 131.213 0.924642 128.581 0.924642C127.824 0.924642 127.069 0.972828 126.288 0.853251C126.141 0.828265 125.931 0.781862 125.824 0.951412C125.645 1.26909 125.431 1.58499 125.36 1.95086C125.335 2.12219 125.385 2.21857 125.579 2.24356L127.262 2.48806C127.922 2.58622 128.386 2.95209 128.433 3.53748C128.481 3.94204 128.505 4.34908 128.504 4.75645L128.456 9.31643L128.431 18.34C128.431 18.8754 128.36 19.3894 128.26 19.9249C128.236 20.0948 128.163 20.2543 128.051 20.3841C127.938 20.5139 127.791 20.6085 127.626 20.6566C127.139 20.8029 126.675 20.9493 126.163 20.9493C126.026 20.9363 125.889 20.9702 125.773 21.0454C125.658 21.1207 125.572 21.2327 125.529 21.3633C125.431 21.5829 125.351 21.8274 125.31 22.0469C125.261 22.3396 125.335 22.4395 125.627 22.4038C125.847 22.3789 133.896 22.5752 135.408 22.4288C136.311 22.3307 137.192 22.2093 138.09 21.9416C139.625 21.4544 141.042 20.7458 142.163 19.5501C143.091 18.5738 143.626 17.403 143.674 16.0377C143.746 15.72 143.746 15.4041 143.746 15.0615L143.749 15.049ZM131.92 5.0545L131.992 3.10379C131.992 2.73792 132.138 2.56838 132.504 2.49342C133.089 2.37206 133.675 2.42203 134.26 2.44523C134.845 2.49342 135.406 2.56659 135.991 2.73792C137.062 3.05561 137.894 3.66598 138.383 4.68863C138.605 5.15363 138.721 5.66189 138.724 6.17709C138.749 6.86065 138.699 7.51921 138.431 8.17599C138.017 9.07906 137.36 9.66445 136.407 9.83579C135.454 10.0071 132.748 9.93395 132.334 9.93395C131.968 9.93395 131.942 9.88576 131.942 9.51989V7.22295C131.884 6.50868 131.876 5.79133 131.917 5.07592L131.92 5.0545ZM139.844 18.1758C139.43 19.2734 138.674 20.0319 137.601 20.4424C137.016 20.6619 136.43 20.7994 135.816 20.7601C135.06 20.7351 134.305 20.7601 133.55 20.6138C132.525 20.3942 132.061 19.418 131.988 18.7112C131.867 17.4673 131.94 16.1983 131.917 15.2721V12.0524C131.917 11.6598 131.965 11.5402 132.381 11.5402L134.674 11.5652L136.236 11.7437C137.333 11.9882 138.333 12.404 139.114 13.2553C139.748 13.9389 140.091 14.767 140.164 15.6701C140.235 16.5232 140.189 17.3531 139.871 18.158L139.844 18.1758Z" fill="white"/>
<path d="M77.8742 10.828L78.5078 10.9261C79.1913 10.9511 79.9962 10.7066 80.239 9.75536C80.3728 9.30099 80.3728 8.81765 80.239 8.36328C80.0926 8.36328 80.0194 8.48464 79.9463 8.53461C79.5804 8.82731 79.1663 8.99864 78.7273 9.04683C77.8492 9.14499 76.9711 9.09501 76.118 8.77912L74.9223 8.36506C74.0883 8.09194 73.2106 7.97694 72.3344 8.02596C71.0904 8.12412 69.9197 8.53818 68.8221 9.12357C67.6513 9.75715 66.8232 10.7084 66.4305 12.0023C66.211 12.7591 66.186 13.5372 66.2842 14.3189C66.5287 16.1001 67.455 17.344 69.113 18.0026C69.2111 18.0276 69.2843 18.074 69.3807 18.1008C69.6002 18.2221 69.6252 18.3453 69.4289 18.5148L68.8185 18.9289L67.355 19.8319C66.9891 20.0515 66.9409 20.2246 67.0623 20.6119C67.2075 21.0675 67.4777 21.4732 67.8422 21.7826C68.1769 22.0698 68.5561 22.3007 68.9648 22.4662C69.2325 22.5876 69.2325 22.6447 68.9898 22.8588L67.5977 23.8583C67.1337 24.2152 66.6697 24.5722 66.2806 25.0291C66.01 25.3186 65.815 25.6704 65.7129 26.0533C65.6108 26.4363 65.6047 26.8385 65.6952 27.2243C65.8766 28.0709 66.3199 28.839 66.9624 29.4195C67.5966 30.0068 68.3679 30.4259 69.2058 30.6385C70.5711 31.0311 71.9864 31.0525 73.3767 30.7848C75.3756 30.4189 77.1246 29.5355 78.4989 28.0292C79.4501 27.0297 80.0105 25.859 80.0605 24.4597C80.1137 23.6505 79.8782 22.8486 79.3959 22.1967C78.9136 21.5447 78.2156 21.085 77.4262 20.8992L76.1091 20.6547L72.0845 20.2977C71.6455 20.2728 71.2065 20.1996 70.8406 19.9801C70.3766 19.6874 70.2552 19.127 70.5479 18.7611C70.7674 18.4934 71.0351 18.3221 71.3778 18.2971L72.1577 18.2257C73.7001 18.0688 75.1481 17.409 76.2786 16.3482C76.8823 15.7894 77.3139 15.0699 77.5226 14.2743C77.8153 13.2249 77.8153 12.1326 77.5708 11.0618C77.4994 10.7941 77.5226 10.7691 77.8635 10.8173L77.8742 10.828ZM71.8954 22.9766C72.0417 23.0016 72.1881 22.9766 72.3344 22.9766C73.3588 23.0248 74.4083 23.098 75.4077 23.3693C75.734 23.4657 76.0521 23.588 76.359 23.7351C77.3352 24.2706 77.7011 25.1986 77.5779 26.1981C77.4316 27.2957 76.8212 28.0756 75.87 28.5896C75.2364 28.9465 74.5278 29.1018 73.7961 29.175C73.5284 29.2 73.2839 29.175 73.0162 29.175C72.1631 29.2 71.3332 29.1036 70.5283 28.7609C69.9679 28.5414 69.5038 28.2255 69.0898 27.7847C68.2367 26.9316 67.8405 25.3699 69.1148 24.101C69.8947 23.3871 70.7745 22.882 71.8954 22.9766V22.9766ZM74.676 15.3666C74.1637 16.6587 73.0412 17.0496 71.9203 16.8782C70.8959 16.7319 70.1392 16.1715 69.6537 15.2434C69.0202 13.9994 68.8506 12.7091 69.2147 11.3652C69.4824 10.3657 70.0928 9.60901 71.1654 9.43768C72.5307 9.19317 73.8425 9.68219 74.5314 11.0475C74.8884 11.7079 75.0436 12.511 75.0436 13.6568C75.0186 14.1208 74.9223 14.7544 74.6777 15.3648L74.676 15.3666ZM43.9465 13.7068C43.727 12.3896 43.2398 11.1939 42.3367 10.1944C40.9946 8.70595 39.2884 8.05273 37.3609 8.04738C35.6779 8.02239 34.0948 8.51141 32.6777 9.3895C31.2846 10.2232 30.2635 11.5585 29.824 13.1214C29.4099 14.5366 29.4313 15.9769 29.7526 17.4136C30.6057 21.2686 33.5826 22.9249 37.1413 22.6822C38.1908 22.6108 39.1902 22.2681 40.1397 21.8041C41.555 21.1437 42.5794 20.0961 43.2862 18.7058C43.8466 17.56 44.0893 16.3392 44.0661 14.9489L43.9447 13.705L43.9465 13.7068ZM40.4841 19.1216C40.3097 19.6704 39.9791 20.1564 39.5328 20.5203C39.0866 20.8842 38.5439 21.1101 37.9712 21.1705C36.9004 21.3168 35.8974 21.0491 34.9961 20.4138C34.3454 19.9351 33.8186 19.3079 33.4595 18.5844C32.46 16.5355 32.2887 14.3903 32.7991 12.1951C32.9634 11.5157 33.3189 10.8976 33.8235 10.4139C34.7266 9.58403 35.7742 9.38949 36.9468 9.634C38.0712 9.87851 38.9225 10.4871 39.6239 11.4152C40.3253 12.3432 40.6483 13.4141 40.8429 14.5384C40.941 15.0988 40.941 15.6842 40.9642 16.0501C40.9642 17.2209 40.8661 18.1918 40.5002 19.1234L40.4841 19.1216ZM97.2385 13.9031C97.06 12.4878 96.5317 11.1956 95.5305 10.123C94.2134 8.68453 92.5054 8.07415 90.6047 8.04916C88.9699 8.02418 87.4582 8.48821 86.0679 9.29312C84.5062 10.2212 83.4336 11.5365 83.0196 13.3177C82.5251 15.2609 82.7324 17.3163 83.605 19.1216C84.4081 20.8296 85.7752 21.9272 87.5813 22.4144C89.5802 22.9499 91.4845 22.7071 93.3371 21.8041C94.9469 21.0241 96.0927 19.8052 96.7513 18.1454C97.1439 17.1691 97.2867 16.1215 97.3117 14.9007C97.3367 14.6812 97.2867 14.2904 97.2403 13.9013L97.2385 13.9031ZM93.8725 18.8057C93.4799 20.1228 92.6535 20.9759 91.2632 21.1723C90.2388 21.3186 89.2643 21.0741 88.3845 20.4887C87.6277 19.9765 87.0923 19.293 86.7015 18.4898C86.2624 17.6367 86.0179 16.7336 85.9215 15.8074C85.7752 14.6616 85.7752 13.5408 86.0429 12.3932C86.0939 12.1669 86.1675 11.9463 86.2624 11.7346C86.946 10.0266 88.4576 9.24672 90.2388 9.63757C91.4346 9.90528 92.3358 10.5656 93.0194 11.5651C93.6797 12.5413 93.9956 13.6139 94.1438 14.7776C94.2152 15.2416 94.2419 15.7288 94.2152 16.1429C94.2152 17.0942 94.1438 17.9723 93.8582 18.8254L93.8725 18.8057Z" fill="white"/>
</svg>
