<svg width="64" height="70" viewBox="0 0 64 70" fill="none" xmlns="http://www.w3.org/2000/svg">
<path d="M28.8554 1.03501C30.5724 0.0523169 32.8087 0.0478781 34.5243 1.03501C43.1549 5.91126 51.7882 10.7799 60.4173 15.6591C62.0403 16.5732 63.1259 18.3793 63.1094 20.2493V49.5867C63.1215 51.5341 61.9286 53.3833 60.2163 54.2767C51.614 59.1261 43.0162 63.9814 34.4155 68.8308C32.663 69.8327 30.3817 69.7555 28.684 68.6715C26.105 67.1766 23.5216 65.6891 20.9425 64.1957C20.4154 63.8815 19.8213 63.6315 19.4491 63.1205C19.7781 62.6771 20.3663 62.6219 20.8443 62.4283C21.9208 62.086 22.9095 61.5366 23.8985 61.0035C24.1486 60.8323 24.4539 60.8979 24.6936 61.0511C26.8989 62.3154 29.0847 63.6164 31.2974 64.8687C31.7695 65.1411 32.2474 64.7794 32.6509 64.5545C41.0923 59.784 49.5441 55.0316 57.9841 50.2596C58.2968 50.1092 58.4697 49.7773 58.4443 49.4348C58.4502 39.757 58.4458 30.0775 58.4472 20.3997C58.483 20.0111 58.2581 19.6537 57.9066 19.4947C49.3343 14.6675 40.7663 9.83293 32.1954 5.00452C32.0469 4.90244 31.871 4.84767 31.6908 4.8474C31.5106 4.84714 31.3345 4.9014 31.1857 5.00304C22.6148 9.83293 14.0483 14.6719 5.47743 19.4989C5.12722 19.6582 4.89219 20.0096 4.93387 20.3997C4.93535 30.0775 4.93387 39.757 4.93387 49.4362C4.91901 49.6034 4.95572 49.771 5.03905 49.9167C5.12239 50.0623 5.24836 50.1789 5.39999 50.2508C7.68717 51.5476 9.97732 52.8354 12.266 54.1278C13.5553 54.8217 15.1384 55.234 16.559 54.7024C17.8126 54.2528 18.6913 52.9737 18.6673 51.6428C18.6792 42.0215 18.6614 32.3987 18.6762 22.7789C18.6449 22.3518 19.0501 21.9989 19.4654 22.0391C20.5644 22.0317 21.6648 22.0243 22.7638 22.042C23.2225 22.0317 23.5382 22.4916 23.4814 22.9219C23.477 32.6041 23.4933 42.2866 23.474 51.9688C23.477 54.5492 22.4168 57.357 20.0297 58.6196C17.089 60.1428 13.4542 59.8198 10.549 58.3592C8.03393 57.104 5.63379 55.6227 3.16336 54.278C1.44661 53.3895 0.259612 51.5328 0.271697 49.5869V20.2493C0.253693 18.3406 1.38249 16.5017 3.05608 15.6009C11.6568 10.7476 20.2561 5.89055 28.8554 1.03501Z" fill="white"/>
<path d="M36.3588 21.3574C40.11 21.116 44.1258 21.2144 47.5013 23.0621C50.1148 24.4781 51.5637 27.4499 51.6098 30.3531C51.5368 30.7447 51.1274 30.9607 50.7535 30.9338C49.6652 30.9324 48.5766 30.9486 47.4882 30.9264C47.0266 30.9442 46.7582 30.5186 46.7003 30.1104C46.3876 28.7214 45.6299 27.3456 44.3223 26.6756C42.3151 25.6707 39.9877 25.7212 37.7989 25.7422C36.201 25.827 34.4828 25.9654 33.1291 26.9049C32.0898 27.6166 31.7741 29.0533 32.145 30.2103C32.4947 31.0411 33.4539 31.3092 34.2386 31.5563C38.7592 32.7385 43.5497 32.6208 47.984 34.1766C49.8198 34.8109 51.6157 36.0439 52.2441 37.9659C53.0661 40.5418 52.7058 43.6209 50.8729 45.6889C49.3865 47.3906 47.2216 48.3169 45.0624 48.8199C42.19 49.4603 39.2091 49.4766 36.292 49.1923C33.5491 48.8796 30.6946 48.159 28.5771 46.2903C26.7664 44.7182 25.882 42.2688 25.9698 39.9046C25.9908 39.5054 26.3883 39.227 26.7709 39.2598C27.8668 39.2509 28.9628 39.2479 30.0588 39.2612C30.4966 39.2299 30.8212 39.6082 30.8436 40.0208C31.0458 41.3443 31.5433 42.7334 32.6975 43.518C34.925 44.955 37.72 44.8566 40.2705 44.8968C42.3836 44.8031 44.7556 44.7747 46.48 43.3782C47.3898 42.5817 47.6594 41.2491 47.4135 40.1026C47.1472 39.1347 46.1345 38.6837 45.2649 38.3888C40.8023 36.9772 35.9583 37.4894 31.5388 35.8932C29.7446 35.2592 28.0096 34.0605 27.3203 32.2174C26.3585 29.6089 26.7992 26.3824 28.8242 24.3842C30.7987 22.3966 33.6489 21.6311 36.3588 21.3572V21.3574Z" fill="white"/>
</svg>
