<svg width="50" height="50" viewBox="0 0 50 50" fill="none" xmlns="http://www.w3.org/2000/svg">
<path d="M22.7496 0.634696C24.1091 -0.0718664 25.8798 -0.0750579 27.2381 0.634696C34.0716 4.14073 40.9072 7.64127 47.7395 11.1494C49.0245 11.8067 49.8841 13.1053 49.871 14.4498V35.5435C49.8806 36.9437 48.9361 38.2733 47.5803 38.9156C40.7693 42.4024 33.9618 45.8933 27.152 49.38C25.7644 50.1004 23.9581 50.0449 22.6139 49.2655C20.572 48.1907 18.5265 47.1212 16.4844 46.0474C16.0671 45.8215 15.5967 45.6417 15.302 45.2743C15.5625 44.9556 16.0282 44.9158 16.4067 44.7766C17.259 44.5305 18.0419 44.1355 18.8249 43.7522C19.0229 43.6291 19.2646 43.6763 19.4544 43.7864C21.2005 44.6954 22.9312 45.6309 24.6832 46.5313C25.0569 46.7272 25.4354 46.4671 25.7548 46.3054C32.4385 42.8754 39.1304 39.4584 45.8129 36.0273C46.0605 35.9192 46.1974 35.6805 46.1773 35.4342C46.182 28.4759 46.1785 21.5163 46.1796 14.558C46.208 14.2785 46.0299 14.0216 45.7516 13.9072C38.9642 10.4365 32.1804 6.96042 25.3942 3.48878C25.2766 3.41539 25.1373 3.37601 24.9946 3.37582C24.8519 3.37563 24.7125 3.41463 24.5947 3.48772C17.8085 6.96042 11.0258 10.4397 4.2396 13.9103C3.96232 14.0248 3.77622 14.2775 3.80922 14.558C3.8104 21.5163 3.80922 28.4759 3.80922 35.4353C3.79746 35.5555 3.82652 35.676 3.89251 35.7807C3.95849 35.8854 4.05823 35.9693 4.17828 36.021C5.98922 36.9534 7.80249 37.8793 9.6146 38.8086C10.6355 39.3075 11.8889 39.6039 13.0137 39.2217C14.0062 38.8984 14.702 37.9788 14.683 37.0218C14.6924 30.1041 14.6783 23.1853 14.69 16.2686C14.6652 15.9615 14.9861 15.7078 15.3149 15.7367C16.185 15.7314 17.0563 15.726 17.9264 15.7388C18.2896 15.7314 18.5396 16.062 18.4947 16.3714C18.4912 23.333 18.5041 30.2947 18.4888 37.2562C18.4912 39.1116 17.6517 41.1304 15.7617 42.0382C13.4333 43.1334 10.5554 42.9011 8.25513 41.8509C6.26377 40.9484 4.3634 39.8834 2.40738 38.9165C1.04811 38.2777 0.108276 36.9428 0.117844 35.5436V14.4498C0.103589 13.0775 0.997339 11.7553 2.32244 11.1076C9.13228 7.61805 15.9409 4.12584 22.7496 0.634696Z" fill="white"/>
<path d="M28.6904 15.2464C31.6604 15.0728 34.84 15.1435 37.5126 16.4721C39.5819 17.4902 40.7291 19.6269 40.7656 21.7143C40.7078 21.9958 40.3836 22.1511 40.0876 22.1318C39.2259 22.1307 38.364 22.1424 37.5023 22.1265C37.1367 22.1393 36.9243 21.8332 36.8784 21.5398C36.6308 20.541 36.0309 19.5519 34.9956 19.0701C33.4063 18.3476 31.5635 18.3839 29.8305 18.399C28.5654 18.46 27.205 18.5595 26.1331 19.235C25.3103 19.7467 25.0603 20.7797 25.354 21.6116C25.6309 22.2089 26.3903 22.4017 27.0116 22.5793C30.5909 23.4293 34.3838 23.3447 37.8947 24.4634C39.3483 24.9194 40.7703 25.8059 41.2678 27.1878C41.9186 29.0399 41.6334 31.2538 40.1821 32.7406C39.0052 33.9642 37.2912 34.6302 35.5816 34.9919C33.3073 35.4523 30.9471 35.464 28.6374 35.2596C26.4657 35.0348 24.2056 34.5167 22.5291 33.1731C21.0954 32.0428 20.3952 30.2816 20.4647 28.5818C20.4813 28.2947 20.796 28.0946 21.0989 28.1181C21.9667 28.1118 22.8345 28.1096 23.7022 28.1192C24.0488 28.0967 24.3058 28.3687 24.3236 28.6653C24.4837 29.6169 24.8775 30.6156 25.7914 31.1798C27.5551 32.213 29.7681 32.1422 31.7875 32.1711C33.4606 32.1038 35.3387 32.0834 36.704 31.0793C37.4243 30.5066 37.6378 29.5485 37.4431 28.7242C37.2322 28.0282 36.4304 27.704 35.7419 27.4919C32.2085 26.477 28.3733 26.8453 24.874 25.6976C23.4535 25.2417 22.0797 24.3799 21.534 23.0547C20.7724 21.1792 21.1214 18.8593 22.7247 17.4226C24.288 15.9935 26.5448 15.4432 28.6904 15.2462V15.2464Z" fill="white"/>
</svg>
