<svg width="50" height="50" viewBox="0 0 50 50" fill="none" xmlns="http://www.w3.org/2000/svg">
<path d="M40.0785 12.6129C37.7113 9.54753 34.4883 7.25304 30.817 6.01958C27.1457 4.78612 23.191 4.6691 19.4532 5.68331C15.7154 6.69753 12.3623 8.79742 9.818 11.7174C7.2737 14.6374 5.65248 18.2463 5.15937 22.0878C4.66626 25.9292 5.32343 29.8306 7.04774 33.2986C8.77206 36.7665 11.4861 39.6452 14.8466 41.5706C18.207 43.4959 22.063 44.3815 25.9268 44.1153C29.7906 43.8491 33.4887 42.443 36.5533 40.0749C45.1077 33.464 46.6864 21.1703 40.0779 12.6129H40.0785Z" fill="#FF6C37"/>
<path d="M31.1852 17.4762L22.9289 25.798L20.5957 23.3994C28.7217 15.2734 29.5374 16.0077 31.1858 17.4762H31.1852Z" fill="white"/>
<path d="M22.9288 26.0257C22.8556 26.0239 22.7858 25.9948 22.7329 25.9443L20.3833 23.5946C20.3304 23.5398 20.3008 23.4667 20.3008 23.3905C20.3008 23.3144 20.3304 23.2412 20.3833 23.1864C28.3949 15.1748 29.4883 15.5499 31.3809 17.2633C31.4126 17.2886 31.438 17.321 31.455 17.3579C31.4719 17.3947 31.4801 17.435 31.4788 17.4756C31.4911 17.5551 31.4605 17.6365 31.3974 17.6879L23.1411 25.9449C23.0832 25.998 23.0073 26.0271 22.9288 26.0263V26.0257ZM21.0031 23.3988L22.9288 25.3244L30.7611 17.4921C30.4906 17.1532 30.1048 16.9259 29.6772 16.8536C29.2497 16.7814 28.8106 16.8693 28.4438 17.1005C27.0242 17.7369 24.74 19.6784 21.0031 23.3988V23.3988Z" fill="#FF6C37"/>
<path d="M25.2952 28.0987L23.0435 25.798L31.2998 17.639C33.5191 19.8094 30.2228 23.4318 25.2952 28.0981V28.0987Z" fill="white"/>
<path d="M25.2949 28.3925C25.2227 28.3868 25.1541 28.3583 25.0991 28.3111L22.7983 26.0593C22.7638 25.9756 22.7638 25.8817 22.7983 25.798C22.7739 25.7294 22.7739 25.6544 22.7983 25.5857L31.0547 17.3293C31.1121 17.2754 31.188 17.2454 31.2668 17.2454C31.3455 17.2454 31.4214 17.2754 31.4788 17.3293C31.7462 17.5754 31.9574 17.8762 32.0981 18.2113C32.2389 18.5463 32.3058 18.9077 32.2944 19.2709C32.2944 21.4737 29.7814 24.2475 25.5066 28.2946C25.4495 28.3511 25.3744 28.3858 25.2943 28.3925H25.2949ZM23.4672 25.798L25.3108 27.6411C28.5741 24.5571 31.6911 21.3752 31.707 19.2213C31.7248 18.7647 31.5738 18.3176 31.283 17.9651L23.4672 25.798Z" fill="#FF6C37"/>
<path d="M20.6608 23.4483L22.2927 25.0803C22.3031 25.0894 22.3114 25.1007 22.3172 25.1134C22.3229 25.1261 22.3258 25.1398 22.3258 25.1537C22.3258 25.1676 22.3229 25.1813 22.3172 25.194C22.3114 25.2066 22.3031 25.2179 22.2927 25.2271L18.8495 25.9614C18.78 25.9764 18.7075 25.9683 18.6431 25.9383C18.5786 25.9082 18.5257 25.858 18.4925 25.7952C18.4592 25.7323 18.4474 25.6603 18.4588 25.5901C18.4703 25.52 18.5043 25.4554 18.5558 25.4064L20.5628 23.4159C20.5628 23.4159 20.6283 23.4159 20.6608 23.4483Z" fill="white"/>
<path d="M18.768 26.2876C18.6592 26.2862 18.5526 26.257 18.4583 26.2027C18.364 26.1484 18.2853 26.0708 18.2295 25.9774C18.1668 25.859 18.144 25.7235 18.1646 25.5912C18.1853 25.4588 18.2482 25.3367 18.3439 25.2431L20.3344 23.236C20.4062 23.1719 20.4991 23.1364 20.5954 23.1364C20.6917 23.1364 20.7846 23.1719 20.8564 23.236L22.4883 24.868C22.585 24.9598 22.6229 25.0987 22.5862 25.2272C22.5495 25.3557 22.4418 25.4579 22.309 25.4884L18.8659 26.2227L18.768 26.2876ZM20.5957 23.8076L18.7521 25.6512L21.8036 24.9983L20.5957 23.8076Z" fill="#FF6C37"/>
<path d="M35.575 12.8906C34.394 11.7512 32.5386 11.7035 31.3001 12.7786C30.0616 13.8537 29.8499 15.6992 30.8142 17.027C31.7786 18.3549 33.5966 18.7269 35.0041 17.8837L32.7846 15.6643L35.575 12.8906Z" fill="white"/>
<path d="M33.3717 18.6339C32.6932 18.6252 32.0323 18.4171 31.4713 18.0354C30.9103 17.6537 30.474 17.1153 30.2168 16.4874C29.9598 15.8599 29.8923 15.1709 30.0228 14.5055C30.1534 13.8402 30.4761 13.2277 30.9511 12.7438C31.6043 12.1025 32.4832 11.7432 33.3986 11.7432C34.3141 11.7432 35.1929 12.1025 35.8462 12.7438C35.9086 12.7964 35.9441 12.8741 35.9441 12.9561C35.944 12.9965 35.9352 13.0363 35.9183 13.0729C35.9014 13.1096 35.8768 13.1421 35.8462 13.1685L33.2028 15.665L35.2099 17.6396C35.2424 17.6707 35.2668 17.7092 35.281 17.7519C35.2952 17.7945 35.2987 17.84 35.2912 17.8844C35.2864 17.9271 35.2722 17.9683 35.2497 18.005C35.2272 18.0417 35.1969 18.073 35.1609 18.0967C34.6217 18.4337 34.0019 18.6197 33.3662 18.6352L33.3717 18.6339ZM33.3717 12.3026C32.2091 12.3087 31.1689 13.0081 30.7326 14.0771C30.2963 15.1461 30.5337 16.3766 31.3488 17.1978C31.7542 17.6056 32.2733 17.8814 32.8381 17.9892C33.4029 18.0969 33.9871 18.0316 34.5141 17.8018L32.5885 15.8761C32.5579 15.8516 32.5332 15.8206 32.5162 15.7853C32.4992 15.7499 32.4904 15.7112 32.4904 15.672C32.4904 15.6328 32.4992 15.5942 32.5162 15.5588C32.5332 15.5235 32.5579 15.4925 32.5885 15.468L35.134 12.9059C34.628 12.5181 34.0092 12.3061 33.3717 12.302V12.3026Z" fill="#FF6C37"/>
<path d="M35.6237 12.9396L32.8335 15.7133L35.0528 17.9327C35.2762 17.8044 35.4841 17.6511 35.6726 17.4756C36.2543 16.8608 36.5743 16.044 36.5652 15.1977C36.5561 14.3514 36.2185 13.5417 35.6237 12.9396V12.9396Z" fill="white"/>
<path d="M35.0035 18.1775C34.9669 18.1794 34.9302 18.1732 34.8963 18.1591C34.8624 18.145 34.8322 18.1234 34.8077 18.0961L32.5883 15.8767C32.5577 15.8522 32.533 15.8212 32.516 15.7859C32.4991 15.7505 32.4902 15.7118 32.4902 15.6726C32.4902 15.6334 32.4991 15.5948 32.516 15.5594C32.533 15.5241 32.5577 15.493 32.5883 15.4686L35.3621 12.7438C35.3889 12.7034 35.4253 12.6703 35.468 12.6473C35.5107 12.6244 35.5584 12.6124 35.6069 12.6124C35.6553 12.6124 35.703 12.6244 35.7457 12.6473C35.7884 12.6703 35.8248 12.7034 35.8516 12.7438C36.1772 13.0628 36.4359 13.4436 36.6125 13.8639C36.7891 14.2842 36.8801 14.7355 36.8801 15.1914C36.8801 15.6473 36.7891 16.0986 36.6125 16.5188C36.4359 16.9391 36.1772 17.3199 35.8516 17.639C35.6595 17.8427 35.4397 18.0184 35.1987 18.1609C35.138 18.1915 35.0679 18.1974 35.0029 18.1775H35.0035ZM33.2088 15.665L35.0525 17.5086C35.1793 17.4198 35.2993 17.3216 35.4117 17.2149C35.9536 16.6744 36.2589 15.9409 36.2604 15.1755C36.2616 14.4905 36.0119 13.8287 35.5585 13.3153L33.2088 15.665Z" fill="#FF6C37"/>
<path d="M31.528 17.8189C31.307 17.6113 31.0152 17.4958 30.712 17.4958C30.4088 17.4958 30.1171 17.6113 29.896 17.8189L22.5049 25.1935L23.7287 26.4338L31.5445 19.5805C31.6637 19.4663 31.7582 19.3289 31.8223 19.1767C31.8864 19.0246 31.9187 18.8609 31.9171 18.6958C31.9156 18.5307 31.8802 18.3677 31.8133 18.2168C31.7464 18.0659 31.6493 17.9302 31.528 17.8182V17.8189Z" fill="white"/>
<path d="M23.6631 26.7281C23.59 26.7263 23.5202 26.6973 23.4673 26.6467L22.227 25.4064C22.1741 25.3516 22.1445 25.2785 22.1445 25.2023C22.1445 25.1262 22.1741 25.053 22.227 24.9983L29.6188 17.6389C29.8317 17.4263 30.1035 17.2825 30.3991 17.2263C30.6947 17.17 31.0004 17.2038 31.2766 17.3234C31.5527 17.443 31.7866 17.6427 31.9478 17.8968C32.109 18.1509 32.1902 18.4476 32.1808 18.7483C32.1723 18.9525 32.1232 19.1529 32.0363 19.3378C31.9494 19.5227 31.8265 19.6884 31.6747 19.8253L23.8589 26.6785C23.8021 26.7188 23.7322 26.7362 23.6631 26.7275V26.7281ZM22.7985 25.1935L23.6142 26.0256L31.2831 19.3516C31.4728 19.1864 31.586 18.9502 31.5933 18.6988C31.6007 18.4473 31.5016 18.2013 31.3162 18.0299C31.1449 17.8594 30.9132 17.7637 30.6715 17.7637C30.4299 17.7637 30.1981 17.8594 30.0269 18.0299L22.7985 25.1935Z" fill="#FF6C37"/>
<path d="M16.7777 33.5973C16.7569 33.6257 16.7456 33.66 16.7456 33.6952C16.7456 33.7305 16.7569 33.7648 16.7777 33.7931L17.1039 35.2127C17.1169 35.2963 17.1046 35.3818 17.0683 35.4582C17.0321 35.5346 16.9737 35.5983 16.9007 35.6411C16.828 35.6836 16.7437 35.7019 16.6599 35.6935C16.5761 35.685 16.4972 35.6502 16.4345 35.594L14.1992 33.4401L21.1668 26.4173H23.582L25.2139 28.0492C22.6682 30.275 19.8298 32.1417 16.7777 33.5973V33.5973Z" fill="white"/>
<path d="M16.6308 35.9959C16.446 35.9923 16.2636 35.9164 16.1412 35.7836L14.0039 33.6462C13.9733 33.6218 13.9485 33.5907 13.9316 33.5554C13.9146 33.5201 13.9058 33.4814 13.9058 33.4422C13.9058 33.403 13.9146 33.3643 13.9316 33.329C13.9485 33.2936 13.9733 33.2626 14.0039 33.2381L21.0199 26.2055C21.0592 26.1638 21.1105 26.1353 21.1668 26.1242H23.5978C23.6612 26.1018 23.7303 26.1018 23.7937 26.1242L25.4256 27.7561C25.4566 27.7847 25.4802 27.8204 25.4944 27.8602C25.5086 27.8999 25.5129 27.9425 25.507 27.9843C25.5081 28.0249 25.4999 28.0651 25.4829 28.102C25.4659 28.1388 25.4407 28.1712 25.4091 28.1967L25.2787 28.3111C22.7228 30.4419 19.9108 32.2453 16.9079 33.6793L17.2182 35.001C17.2422 35.1029 17.2431 35.209 17.2209 35.3113C17.1987 35.4137 17.1539 35.5098 17.0898 35.5926C17.0257 35.6755 16.9439 35.743 16.8504 35.7902C16.7569 35.8374 16.6541 35.8632 16.5494 35.8656L16.6308 35.9959ZM14.6403 33.4339L16.5653 35.3755C16.5832 35.3915 16.6064 35.4003 16.6305 35.4003C16.6545 35.4003 16.6777 35.3915 16.6956 35.3755C16.7076 35.3588 16.7141 35.3388 16.7141 35.3183C16.7141 35.2977 16.7076 35.2777 16.6956 35.261L16.3695 33.8414C16.3438 33.7396 16.3541 33.6319 16.3987 33.5368C16.4433 33.4417 16.5195 33.3649 16.6142 33.3195C19.5363 31.9046 22.2758 30.1402 24.7727 28.0651L23.4345 26.7269H21.2482L14.6403 33.4339Z" fill="#FF6C37"/>
<path d="M12.5185 35.1148L14.1505 33.4829L16.6636 35.996L12.666 35.7188C12.5973 35.7134 12.5321 35.6865 12.4797 35.6419C12.4273 35.5972 12.3903 35.5372 12.374 35.4703C12.3577 35.4034 12.363 35.3331 12.3891 35.2694C12.4151 35.2056 12.4606 35.1518 12.5191 35.1155L12.5185 35.1148Z" fill="white"/>
<path d="M16.7121 36.2407L12.7304 35.9635C12.4943 35.9415 12.2911 35.7799 12.2079 35.5639C12.1247 35.3479 12.1755 35.0916 12.3388 34.919L13.9708 33.2871C14.0255 33.2342 14.0987 33.2046 14.1748 33.2046C14.251 33.2046 14.3242 33.2342 14.3789 33.2871L16.8755 35.7836C16.91 35.831 16.9287 35.8881 16.9287 35.9467C16.9287 36.0053 16.91 36.0624 16.8755 36.1098C16.8377 36.1708 16.78 36.2168 16.7121 36.2401V36.2407ZM12.7304 35.3271L15.9937 35.5395L14.199 33.8586L12.7304 35.3271Z" fill="#FF6C37"/>
<path d="M23.8099 26.6143L20.5137 27.1203L22.4228 25.2277L23.8099 26.6143Z" fill="white"/>
<path d="M20.5135 27.4293C20.4587 27.4308 20.4047 27.4161 20.3583 27.387C20.3118 27.3579 20.2749 27.3159 20.2522 27.266C20.2175 27.2187 20.1987 27.1616 20.1987 27.1029C20.1987 27.0442 20.2175 26.9871 20.2522 26.9398L22.1448 25.0307C22.2022 24.9768 22.2781 24.9467 22.3569 24.9467C22.4356 24.9467 22.5115 24.9768 22.5689 25.0307L23.9567 26.4173C23.9844 26.4612 23.9991 26.5121 23.9991 26.5641C23.9991 26.6161 23.9844 26.667 23.9567 26.711C23.9431 26.7646 23.9143 26.8131 23.8738 26.8507C23.8333 26.8884 23.7829 26.9136 23.7284 26.9233L20.4652 27.4293H20.5135ZM22.4226 25.6506L21.3622 26.711L23.19 26.4338L22.4226 25.6506Z" fill="#FF6C37"/>
<path d="M23.8098 26.6131L21.5091 26.9068C21.4475 26.9208 21.3831 26.9145 21.3254 26.889C21.2676 26.8635 21.2196 26.82 21.1885 26.7651C21.1574 26.7101 21.1448 26.6466 21.1527 26.584C21.1605 26.5213 21.1883 26.4629 21.2319 26.4173L22.4233 25.2259L23.8098 26.6131Z" fill="white"/>
<path d="M21.444 27.2176C21.3374 27.2166 21.2329 27.1874 21.1412 27.1329C21.0496 27.0784 20.974 27.0006 20.9221 26.9074C20.8598 26.7957 20.8356 26.6667 20.8533 26.54C20.871 26.4134 20.9295 26.2959 21.02 26.2055L22.2114 25.0142C22.2688 24.9602 22.3446 24.9302 22.4234 24.9302C22.5022 24.9302 22.578 24.9602 22.6354 25.0142L24.0226 26.4014C24.0638 26.4404 24.0929 26.4907 24.1061 26.5459C24.1194 26.6012 24.1164 26.6591 24.0974 26.7127C24.0784 26.7662 24.0443 26.8131 23.9992 26.8477C23.9541 26.8823 23.9 26.903 23.8433 26.9074L21.5591 27.2011L21.444 27.2176ZM21.444 26.6137L23.1739 26.4014L22.4072 25.6346L21.4281 26.6137H21.444ZM35.6401 14.8163C35.6094 14.7648 35.5608 14.7264 35.5036 14.7083C35.4464 14.6903 35.3846 14.6938 35.3299 14.7184C35.3029 14.732 35.2789 14.751 35.2593 14.7741C35.2398 14.7973 35.2251 14.8241 35.2161 14.853C35.1979 14.9113 35.2036 14.9745 35.232 15.0286C35.3464 15.2691 35.3146 15.5536 35.1506 15.7629C35.1302 15.783 35.1143 15.8072 35.1037 15.8338C35.0932 15.8605 35.0883 15.889 35.0894 15.9177C35.09 15.9751 35.1118 16.0302 35.1506 16.0725C35.1925 16.089 35.239 16.089 35.2809 16.0725C35.3189 16.082 35.3588 16.081 35.3962 16.0694C35.4337 16.0579 35.4672 16.0363 35.4933 16.007C35.6276 15.8425 35.7127 15.6433 35.7387 15.4325C35.7647 15.2217 35.7305 15.0079 35.6401 14.8156V14.8163Z" fill="#FF6C37"/>
</svg>
