<svg width="50" height="48" viewBox="0 0 50 48" fill="none" xmlns="http://www.w3.org/2000/svg">
<g clip-path="url(#clip0_102:167)">
<path d="M24.4595 0.216572C22.4481 0.225507 20.5276 0.391871 18.8378 0.682051C13.8594 1.53515 12.9556 3.32005 12.9556 6.61245V10.9605H24.7201V12.4097H8.54011C5.12114 12.4097 2.1269 14.4026 1.19054 18.1937C0.110268 22.5392 0.0624406 25.2508 1.19054 29.7881C2.02686 33.1656 4.02419 35.5722 7.44316 35.5722H11.4883V30.36C11.4883 26.5944 14.848 23.2731 18.8378 23.2731H30.5888C33.8599 23.2731 36.4711 20.6615 36.4711 17.4759V6.61202C36.4711 3.52046 33.7814 1.19774 30.5888 0.681626C28.5674 0.355705 26.4709 0.207211 24.4595 0.216572V0.216572ZM18.0972 3.7132C19.3126 3.7132 20.3047 4.69139 20.3047 5.8938C20.3047 7.09197 19.3122 8.06122 18.0972 8.06122C16.8778 8.06122 15.8897 7.09239 15.8897 5.8938C15.8897 4.69139 16.8778 3.7132 18.0972 3.7132Z" fill="#5A9FD4"/>
<path d="M37.9384 12.4092V17.4751C37.9384 21.4027 34.5045 24.7083 30.5888 24.7083H18.8379C15.619 24.7083 12.9556 27.3795 12.9556 30.5055V41.3685C12.9556 44.4605 15.7278 46.279 18.8379 47.1657C22.5618 48.2278 26.133 48.4196 30.5888 47.1657C33.5506 46.3343 36.4711 44.6605 36.4711 41.3685V37.0209H24.7201V35.5717H42.3534C45.7728 35.5717 47.0466 33.2588 48.2357 29.7877C49.4643 26.2145 49.4121 22.7774 48.2357 18.1933C47.3906 14.8928 45.7768 12.4092 42.3534 12.4092H37.9384V12.4092ZM31.3291 39.9193C32.5484 39.9193 33.5366 40.8882 33.5366 42.0867C33.5366 43.2892 32.5484 44.2673 31.3291 44.2673C30.1136 44.2673 29.1216 43.2892 29.1216 42.0867C29.1216 40.8886 30.1141 39.9193 31.3291 39.9193Z" fill="#FFD43B"/>
</g>
<defs>
<clipPath id="clip0_102:167">
<rect width="50" height="48" fill="white"/>
</clipPath>
</defs>
</svg>
