<svg width="89" height="78" viewBox="0 0 89 78" fill="none" xmlns="http://www.w3.org/2000/svg">
<path d="M44.1509 31.7426C39.9008 31.7426 36.4424 35.2023 36.4424 39.4527C36.4424 43.7045 39.9008 47.1629 44.1509 47.1629C48.4027 47.1629 51.8611 43.7045 51.8611 39.4527C51.8611 35.2026 48.4027 31.7426 44.1509 31.7426Z" fill="white"/>
<path d="M88.2095 40.4067C88.2686 37.737 87.1204 35.1691 84.7982 32.7741C84.7982 32.7727 84.7982 32.7679 84.7982 32.7679C84.7982 30.4912 82.9462 28.6391 80.6677 28.6391C80.2823 28.6391 79.9003 28.6921 79.5302 28.8014C78.1059 27.9793 76.5464 27.2149 74.8871 26.5216C73.7813 26.0606 72.5269 25.5993 71.0782 25.1199C74.1771 13.8967 73.044 5.62709 67.9232 2.34607C62.5567 -1.10033 53.6769 1.93806 44.1512 10.5842C34.6286 1.94281 25.758 -1.10758 20.3792 2.34607C17.1211 4.4332 15.4433 8.56369 15.5072 14.3156C14.4879 15.0875 13.8752 16.2906 13.8752 17.5888C13.8752 19.2286 14.8429 20.6816 16.3006 21.3414C16.478 22.209 16.6994 23.148 16.9727 24.184C6.3549 27.3998 0.22373 32.5844 0.0948873 38.4984C-0.0219634 43.8135 4.70923 48.7461 13.4142 52.3821C14.5261 52.8492 15.788 53.3119 17.2474 53.7927C16.8363 55.2596 16.5192 56.5639 16.2811 57.7623C14.4458 67.0166 15.9018 73.6922 20.3812 76.5635C25.7767 80.0099 34.6364 76.9609 44.1532 68.3209C51.0351 74.5673 57.6046 77.9969 62.7254 78C64.6851 78 66.4343 77.5176 67.9268 76.5621C72.4045 73.6922 73.8592 67.0166 72.0238 57.7623C71.8434 56.8537 71.6097 55.8525 71.3155 54.7317C81.9419 51.5131 88.0806 46.3257 88.2095 40.4067ZM22.6211 73.0569C19.7696 71.2305 18.9232 65.8138 20.3594 58.5693C20.5702 57.509 20.8555 56.3336 21.2287 54.9986C25.1846 56.0544 29.5106 56.8492 34.1174 57.3618C36.3986 60.2953 38.7574 63.0013 41.1418 65.4253C33.462 72.3396 26.2343 75.3685 22.6211 73.0569ZM22.6211 5.84712C26.2237 3.55055 33.462 6.56607 41.1418 13.4815C38.8589 15.8006 36.6019 18.3733 34.4236 21.1462C29.6394 21.4906 25.145 22.1457 21.036 23.1014C20.8463 22.3582 20.672 21.6164 20.5128 20.8564C21.5184 20.0859 22.1311 18.88 22.1311 17.5891C22.1311 15.9448 21.1481 14.4796 19.6982 13.8228C19.6996 10.877 20.2565 7.36228 22.6211 5.84712ZM22.4438 51.0217C23.2341 48.7344 24.1759 46.3923 25.256 44.0305C26.2951 45.8781 27.3886 47.6997 28.5217 49.467C29.2072 50.5393 29.9247 51.6132 30.6891 52.7101C27.7634 52.2611 25.0025 51.6966 22.4438 51.0217ZM28.5233 29.4384C27.3841 31.2177 26.2937 33.0304 25.2713 34.8476C24.1003 32.2584 23.0871 29.6796 22.2421 27.1404C25.0089 26.5035 27.9622 26.0043 31.0656 25.6509C30.1857 26.9023 29.3363 28.1703 28.5233 29.4384ZM27.5297 39.439C28.9327 36.7573 30.4434 34.1529 32.0255 31.682C33.3937 29.5463 34.9228 27.3635 36.5729 25.1824C39.1788 25.0368 41.803 24.9928 44.4636 25.0536C46.9724 25.1082 49.4934 25.2507 51.9568 25.4828C53.5207 27.5654 54.9737 29.6464 56.2783 31.6806C57.859 34.1501 59.3711 36.759 60.7727 39.4393C59.3543 42.1606 57.8436 44.7771 56.2783 47.2223C54.9026 49.3685 53.3766 51.5513 51.7323 53.7205C49.1278 53.863 46.5066 53.9056 43.8386 53.8479C41.3359 53.7963 38.8179 53.6521 36.3454 53.4201C34.7783 51.336 33.3284 49.2517 32.0255 47.2223C30.4618 44.7815 28.9509 42.1648 27.5297 39.439ZM57.2357 53.2545C58.1169 51.997 58.9709 50.7303 59.7794 49.467C60.9138 47.6953 62.009 45.8736 63.045 44.0277C64.2311 46.6336 65.2566 49.2199 66.0985 51.7546C63.3211 52.3975 60.3527 52.8994 57.2357 53.2545ZM59.7794 29.4384C59.0861 28.3555 58.3688 27.2815 57.6102 26.1939C60.5164 26.6398 63.2681 27.2026 65.8269 27.8761C65.0365 30.159 64.1006 32.4949 63.0314 34.8489C62.0121 33.0365 60.923 31.2255 59.7794 29.4384ZM67.0419 23.8976C63.0844 22.8435 58.7659 22.0548 54.185 21.5436C51.9038 18.6101 49.5464 15.9041 47.1606 13.4831C54.8404 6.56775 62.0849 3.55222 65.6827 5.84879C69.0744 8.0221 69.5675 14.7311 67.0419 23.8976ZM44.5547 20.8941C43.7524 20.8773 42.9529 20.8684 42.1611 20.8684C41.4422 20.8684 40.7277 20.8746 40.0193 20.8896C41.3769 19.3 42.7588 17.7907 44.1543 16.3785C45.6058 17.8512 47.0393 19.4166 48.4348 21.0595C47.0666 20.9761 45.7818 20.9231 44.5547 20.8941ZM18.1448 28.225C19.3203 31.7835 20.901 35.5559 22.847 39.4619C21.0722 43.0327 19.5995 46.5092 18.465 49.8159C17.1515 49.3819 16.0184 48.9619 15.0158 48.5447C8.20053 45.6976 4.17629 41.9768 4.25215 38.5882C4.33553 34.6822 9.50652 30.8431 18.1448 28.225ZM43.7507 58.0099C45.2782 58.0417 46.795 58.0448 48.2862 58.0144C46.9286 59.604 45.5453 61.1147 44.1512 62.53C42.7041 61.0631 41.2707 59.4977 39.8693 57.8459C41.2556 57.9293 42.5237 57.9826 43.7507 58.0099ZM53.8788 57.7612C58.6644 57.4184 63.1694 56.76 67.2954 55.7984C67.564 56.8252 67.7779 57.7369 67.9447 58.5713C69.3812 65.8127 68.5379 71.2294 65.686 73.0571C62.0759 75.3688 54.8421 72.3351 47.1623 65.4276C49.4421 63.1109 51.696 60.5399 53.8788 57.7612ZM70.1241 50.6879C68.9333 47.0734 67.3666 43.3054 65.4537 39.4588C67.2224 35.9109 68.6999 32.4313 69.8466 29.0943C71.1677 29.5327 72.2796 29.9421 73.2852 30.3609C74.4668 30.8571 75.5863 31.3894 76.6268 31.9492C76.569 32.2191 76.5403 32.4921 76.5403 32.7668C76.5403 35.0422 78.394 36.8943 80.6677 36.8943C81.3078 36.8943 81.9327 36.7442 82.4972 36.4603C83.5575 37.7724 84.0793 39.0662 84.0505 40.3178C83.9699 44.2263 78.787 48.067 70.1241 50.6879Z" fill="white"/>
</svg>
