<svg width="50" height="50" viewBox="0 0 50 50" fill="none" xmlns="http://www.w3.org/2000/svg">
<path d="M24.9994 20.6115C22.5878 20.6115 20.6255 22.5746 20.6255 24.9864C20.6255 27.3989 22.5878 29.3612 24.9994 29.3612C27.4119 29.3612 29.3743 27.3989 29.3743 24.9864C29.3743 22.5748 27.4119 20.6115 24.9994 20.6115Z" fill="white"/>
<path d="M49.9987 25.5277C50.0323 24.0129 49.3808 22.5558 48.0632 21.1968C48.0632 21.1961 48.0632 21.1934 48.0632 21.1934C48.0632 19.9015 47.0123 18.8506 45.7195 18.8506C45.5008 18.8506 45.284 18.8807 45.074 18.9427C44.2659 18.4762 43.381 18.0425 42.4395 17.6491C41.812 17.3875 41.1003 17.1258 40.2782 16.8538C42.0366 10.4856 41.3937 5.7933 38.4881 3.93161C35.4431 1.97608 30.4045 3.70011 24.9995 8.60602C19.5963 3.7028 14.563 1.97197 11.511 3.93161C9.6623 5.11588 8.71033 7.45957 8.74657 10.7233C8.1682 11.1613 7.82055 11.8439 7.82055 12.5805C7.82055 13.511 8.36964 14.3354 9.19676 14.7098C9.2974 15.2021 9.42304 15.7349 9.57812 16.3227C3.55345 18.1474 0.0745504 21.0892 0.00144356 24.4449C-0.0648589 27.4608 2.61968 30.2596 7.55898 32.3227C8.18988 32.5877 8.90592 32.8503 9.73399 33.1231C9.50074 33.9554 9.32082 34.6955 9.18568 35.3754C8.14431 40.6265 8.97048 44.4143 11.5121 46.0435C14.5736 47.999 19.6007 46.269 25.0007 41.3666C28.9055 44.9108 32.6332 46.8569 35.5388 46.8586C36.6507 46.8586 37.6432 46.5848 38.4901 46.0427C41.0308 44.4143 41.8562 40.6265 40.8148 35.3754C40.7124 34.8599 40.5798 34.2918 40.4129 33.6559C46.4425 31.8296 49.9256 28.8862 49.9987 25.5277ZM12.7831 44.0538C11.1651 43.0175 10.6848 39.944 11.4998 35.8334C11.6194 35.2318 11.7813 34.5648 11.993 33.8073C14.2377 34.4064 16.6923 34.8574 19.3062 35.1482C20.6006 36.8127 21.939 38.3481 23.292 39.7236C18.9344 43.6468 14.8333 45.3654 12.7831 44.0538ZM12.7831 5.91815C14.8273 4.61505 18.9344 6.3261 23.292 10.25C21.9966 11.5659 20.716 13.0257 19.48 14.599C16.7654 14.7945 14.2152 15.1662 11.8837 15.7085C11.7761 15.2867 11.6772 14.8658 11.5868 14.4346C12.1574 13.9974 12.5051 13.3132 12.5051 12.5807C12.5051 11.6477 11.9473 10.8163 11.1246 10.4437C11.1254 8.77217 11.4414 6.77787 12.7831 5.91815ZM12.6825 31.5508C13.1309 30.2529 13.6653 28.924 14.2782 27.5839C14.8678 28.6322 15.4882 29.6658 16.1311 30.6686C16.5201 31.277 16.9273 31.8864 17.361 32.5088C15.7009 32.254 14.1343 31.9337 12.6825 31.5508ZM16.1321 19.3041C15.4857 20.3137 14.867 21.3423 14.2869 22.3734C13.6224 20.9043 13.0475 19.441 12.5681 18.0002C14.138 17.6388 15.8137 17.3556 17.5746 17.1551C17.0754 17.8651 16.5934 18.5846 16.1321 19.3041ZM15.5683 24.9786C16.3644 23.457 17.2216 21.9792 18.1193 20.5772C18.8956 19.3654 19.7632 18.1268 20.6995 16.8892C22.1781 16.8066 23.6672 16.7816 25.1768 16.8161C26.6003 16.8471 28.0308 16.928 29.4285 17.0597C30.3159 18.2414 31.1404 19.4222 31.8806 20.5764C32.7775 21.9776 33.6355 23.4579 34.4308 24.9788C33.626 26.5229 32.7688 28.0075 31.8806 29.3949C31.1 30.6127 30.2341 31.8513 29.3011 33.0821C27.8233 33.1629 26.336 33.1872 24.8222 33.1544C23.4021 33.1251 21.9734 33.0433 20.5704 32.9117C19.6813 31.7291 18.8586 30.5464 18.1193 29.3949C17.232 28.01 16.3747 26.5253 15.5683 24.9786ZM32.4238 32.8177C32.9239 32.1042 33.4084 31.3854 33.8671 30.6686C34.5109 29.6633 35.1323 28.6297 35.7201 27.5823C36.3931 29.0609 36.975 30.5284 37.4527 31.9666C35.8768 32.3314 34.1925 32.6162 32.4238 32.8177ZM33.8671 19.3041C33.4738 18.6897 33.0668 18.0803 32.6364 17.4632C34.2854 17.7162 35.8467 18.0355 37.2986 18.4177C36.8501 19.713 36.3191 21.0384 35.7124 22.3741C35.134 21.3457 34.5161 20.3181 33.8671 19.3041ZM37.988 16.1602C35.7424 15.5621 33.2921 15.1146 30.6929 14.8245C29.3985 13.16 28.0609 11.6246 26.7071 10.2509C31.0647 6.32705 35.1753 4.616 37.2168 5.9191C39.1413 7.15227 39.421 10.959 37.988 16.1602ZM25.2285 14.456C24.7733 14.4465 24.3196 14.4414 23.8703 14.4414C23.4624 14.4414 23.057 14.4449 22.6551 14.4535C23.4254 13.5515 24.2095 12.6951 25.0013 11.8938C25.8249 12.7294 26.6383 13.6176 27.4301 14.5498C26.6538 14.5025 25.9248 14.4724 25.2285 14.456ZM10.2432 18.6156C10.9102 20.6348 11.8071 22.7753 12.9113 24.9916C11.9042 27.0177 11.0686 28.9903 10.4249 30.8666C9.67955 30.6203 9.03662 30.382 8.46775 30.1453C4.60069 28.5298 2.31728 26.4186 2.36033 24.4958C2.40764 22.2795 5.34172 20.1012 10.2432 18.6156ZM24.7723 35.516C25.639 35.534 26.4997 35.5357 27.3458 35.5185C26.5755 36.4205 25.7906 37.2776 24.9995 38.0807C24.1784 37.2484 23.3651 36.3602 22.5699 35.4229C23.3565 35.4702 24.0761 35.5005 24.7723 35.516ZM30.5191 35.3748C33.2345 35.1803 35.7907 34.8067 38.1319 34.2611C38.2843 34.8438 38.4056 35.361 38.5003 35.8345C39.3153 39.9434 38.8368 43.0169 37.2187 44.054C35.1703 45.3656 31.0657 43.6443 26.7081 39.7248C28.0017 38.4103 29.2806 36.9515 30.5191 35.3748ZM39.7369 31.3614C39.0612 29.3104 38.1722 27.1725 37.0869 24.9899C38.0904 22.9767 38.9288 21.0024 39.5794 19.1089C40.329 19.3576 40.9599 19.5899 41.5305 19.8276C42.201 20.1091 42.8362 20.4112 43.4266 20.7288C43.3938 20.8819 43.3775 21.0369 43.3775 21.1927C43.3775 22.4838 44.4293 23.5347 45.7195 23.5347C46.0826 23.5347 46.4372 23.4495 46.7575 23.2885C47.3591 24.033 47.6552 24.7671 47.6389 25.4772C47.5932 27.695 44.6523 29.8742 39.7369 31.3614Z" fill="white"/>
</svg>
