<svg width="50" height="41" viewBox="0 0 50 41" fill="none" xmlns="http://www.w3.org/2000/svg">
<g clip-path="url(#clip0_102:173)">
<path fill-rule="evenodd" clip-rule="evenodd" d="M41.8251 2.90554L42.879 4.29904C43.1557 4.66683 43.0865 5.19399 42.7203 5.47187L41.6013 6.32595C41.8048 6.86946 41.935 7.44974 41.9879 8.04229L43.2615 8.21801C43.7172 8.27931 44.0346 8.7043 43.9736 9.16199L43.7376 10.8988C43.6765 11.3565 43.2534 11.6793 42.7976 11.6139L41.406 11.4218C41.1578 11.9653 40.8404 12.4639 40.4661 12.9093L41.2473 13.9391C41.524 14.3069 41.4508 14.8341 41.0846 15.112L39.697 16.1704C39.3308 16.4482 38.8059 16.3747 38.5292 16.011L37.6788 14.8872C37.1336 15.0915 36.5598 15.2223 35.9658 15.2754L35.7908 16.5545C35.7298 17.0122 35.3066 17.3309 34.8509 17.2696L33.1215 17.0326C32.6658 16.9713 32.3484 16.5463 32.4094 16.0886L32.6007 14.691C32.0636 14.4418 31.5631 14.123 31.1196 13.7511L30.0942 14.5317C29.728 14.8096 29.2031 14.7401 28.9264 14.3723L27.8725 12.9788C27.5958 12.611 27.665 12.0838 28.0312 11.806L29.1502 10.9519C28.9467 10.4043 28.8165 9.82809 28.7636 9.23555L27.49 9.05983C27.0343 8.99853 26.7128 8.57353 26.7779 8.11584L27.0139 6.37908C27.079 5.92139 27.4982 5.60264 27.9539 5.66394L29.3455 5.856C29.5937 5.31658 29.9111 4.81394 30.2814 4.36851L29.5042 3.33871C29.2275 2.97501 29.2967 2.44785 29.6629 2.16997L31.0504 1.11156C31.4166 0.833676 31.9415 0.903147 32.2182 1.27093L33.0686 2.39472C33.6098 2.1904 34.1876 2.05963 34.7776 2.00651L34.9526 0.727427C35.0136 0.269737 35.4368 -0.0530973 35.8925 0.00820039L37.6219 0.245218C38.0776 0.306516 38.399 0.731513 38.3339 1.1892L38.1427 2.58679C38.6839 2.83607 39.1803 3.15482 39.6279 3.53078L40.6533 2.75025C41.0195 2.46828 41.5444 2.53775 41.8251 2.90554ZM12.0725 27.4287V20.686H15.5312C16.1741 20.686 16.6624 20.7391 17.0001 20.8535C17.3378 20.9638 17.6145 21.1682 17.818 21.4665C18.0255 21.7689 18.1313 22.1326 18.1313 22.5617C18.1313 22.9335 18.0499 23.2605 17.8912 23.5302C17.7325 23.804 17.5128 24.0246 17.2361 24.1922C17.0611 24.2984 16.817 24.3883 16.5078 24.4578C16.756 24.5436 16.935 24.6213 17.0449 24.7071C17.1222 24.7643 17.232 24.8828 17.3745 25.0626C17.5169 25.2424 17.6145 25.3855 17.6634 25.4835L18.6725 27.4328H16.3287L15.222 25.3773C15.0795 25.1117 14.9575 24.9359 14.8476 24.8583C14.697 24.7561 14.5262 24.703 14.339 24.703H14.1559V27.4328H12.0725V27.4287ZM19.3886 39.1693H15.5149L14.9575 41H11.4663L15.6289 29.8888H19.3723L23.5187 41H19.9379L19.3886 39.1693ZM18.6643 36.7623L17.4558 32.7657L16.2433 36.7623H18.6643ZM24.3243 29.8888H30.0128C31.2539 29.8888 32.1816 30.183 32.796 30.7756C33.4104 31.3681 33.7197 32.214 33.7197 33.3051C33.7197 34.4289 33.3819 35.3075 32.7106 35.9409C32.0392 36.5743 31.0097 36.889 29.6303 36.889H27.7545V41H24.3243V29.8888V29.8888ZM27.7545 34.6373H28.5968C29.26 34.6373 29.728 34.5229 29.9965 34.29C30.2651 34.0611 30.3994 33.7628 30.3994 33.4073C30.3994 33.0599 30.2814 32.7616 30.0494 32.5205C29.8175 32.2794 29.378 32.1568 28.7351 32.1568H27.7545V34.6373V34.6373ZM35.1031 29.8888H38.5333V41H35.1031V29.8888V29.8888ZM14.1559 23.4239H15.0307C15.1243 23.4239 15.3074 23.3912 15.58 23.3299C15.7184 23.3013 15.8323 23.2319 15.9178 23.1174C16.0073 23.003 16.048 22.8722 16.048 22.7251C16.048 22.5085 15.9788 22.3369 15.8404 22.2225C15.7021 22.104 15.4457 22.0468 15.0673 22.0468H14.1559V23.4239ZM19.0712 20.686H24.6254V22.1244H21.1546V23.1992H24.3732V24.5722H21.1546V25.9004H24.7272V27.4246H19.0712V20.686ZM25.2195 25.1975L27.1889 25.0749C27.2296 25.3977 27.3191 25.6388 27.4493 25.8064C27.665 26.0761 27.9702 26.215 28.3649 26.215C28.6578 26.215 28.8898 26.1455 29.0484 26.0066C29.2071 25.8677 29.2885 25.7042 29.2885 25.5203C29.2885 25.3446 29.2112 25.1893 29.0607 25.0504C28.9101 24.9114 28.5561 24.7847 27.9986 24.6581C27.0913 24.4537 26.4443 24.1799 26.0537 23.8408C25.663 23.5016 25.4677 23.0684 25.4677 22.5412C25.4677 22.1939 25.5694 21.867 25.7688 21.5605C25.9682 21.254 26.2693 21.0088 26.6721 20.8331C27.075 20.6574 27.6243 20.5715 28.3242 20.5715C29.1827 20.5715 29.8338 20.7309 30.2854 21.0538C30.733 21.3766 31.0016 21.8833 31.087 22.5862L29.138 22.7047C29.0851 22.3982 28.9752 22.1735 28.8124 22.0386C28.6456 21.8997 28.4137 21.8302 28.1248 21.8302C27.8847 21.8302 27.7016 21.8833 27.5795 21.9855C27.4575 22.0876 27.3964 22.2143 27.3964 22.3614C27.3964 22.4677 27.4493 22.5617 27.547 22.6516C27.6446 22.7374 27.8725 22.8232 28.2387 22.9009C29.1461 23.097 29.7971 23.2972 30.1878 23.4975C30.5784 23.6977 30.8673 23.947 31.0423 24.2453C31.2213 24.5395 31.3108 24.8746 31.3108 25.2424C31.3108 25.6756 31.1928 26.072 30.9527 26.4357C30.7167 26.7994 30.3831 27.0773 29.9558 27.2653C29.5286 27.4532 28.9915 27.5472 28.3404 27.5472C27.2011 27.5472 26.4077 27.3266 25.9682 26.8852C25.5288 26.4357 25.2805 25.8758 25.2195 25.1975ZM31.6119 20.686H37.923V22.3533H35.8071V27.4287H33.7319V22.3533H31.6119V20.686V20.686ZM24.6295 4.68317C23.8849 4.62596 23.1321 4.63413 22.3875 4.70769C20.0966 4.92836 17.8709 5.7661 16.0317 7.20047C13.9036 8.8555 12.2882 11.3319 11.6656 14.6134L11.4703 15.6391L10.4531 15.8189C9.45616 15.9946 8.56505 16.2357 7.7838 16.5422C7.02696 16.8365 6.35151 17.2002 5.7615 17.6293C5.2895 17.9725 4.8826 18.3566 4.53673 18.7735C3.46658 20.0607 2.97016 21.6749 2.98237 23.3095C2.99457 24.9686 3.53168 26.6441 4.52452 28.0213C4.8948 28.5321 5.32205 29.002 5.81033 29.4107C6.30675 29.8234 6.8642 30.1667 7.49083 30.4241C7.84483 30.5712 8.22325 30.6938 8.61795 30.7919V33.8527C7.80414 33.7056 7.05545 33.4849 6.35558 33.1948C5.43191 32.8107 4.61404 32.3162 3.89383 31.7114C3.21023 31.1393 2.61209 30.4895 2.10346 29.7825C0.748481 27.9027 0.0160589 25.6061 -0.000217148 23.3177C-0.0164932 21.0047 0.699653 18.704 2.24588 16.8406C2.74636 16.2357 3.33637 15.68 4.01183 15.1896C4.79715 14.6175 5.6964 14.1353 6.71365 13.7389C7.41352 13.4651 8.16222 13.2362 8.95161 13.0524C9.84679 9.48074 11.7552 6.73052 14.2088 4.82211C16.5037 3.03631 19.2665 1.99425 22.1108 1.72045C23.6041 1.57742 25.1178 1.64281 26.5989 1.92069C26.5664 2.05554 26.5379 2.1904 26.5216 2.32934L26.5175 2.35386C26.489 2.58679 26.4768 2.81972 26.489 3.05674C26.1757 3.17934 25.8828 3.34688 25.6183 3.55121L25.6061 3.55938C25.2114 3.8577 24.8777 4.24183 24.6295 4.68317ZM46.1586 12.5293C46.3865 12.7377 46.6062 12.9543 46.8219 13.1872C47.2573 13.6572 47.6682 14.1884 48.0548 14.7809C49.3569 16.7915 50.0242 19.4764 49.9957 22.104C49.9672 24.6826 49.2755 27.2489 47.8595 29.1369C46.9358 30.3669 45.7517 31.3722 44.3316 32.1691C43.3592 32.7167 42.2646 33.1703 41.0724 33.5381V30.371C41.7153 30.1299 42.3134 29.8602 42.8627 29.5537C43.9329 28.953 44.8077 28.2215 45.4628 27.3429C46.4801 25.9821 46.9806 24.0573 47.0009 22.0836C47.0253 20.0117 46.5208 17.9317 45.5401 16.4196C45.2594 15.9824 44.9501 15.5901 44.6246 15.2386C44.4985 15.1038 44.3723 14.9771 44.2421 14.8545C44.2625 14.6502 44.2706 14.4418 44.2584 14.2334C44.5717 14.1108 44.8647 13.9432 45.1292 13.7389L45.1414 13.7307C45.5605 13.4079 45.9104 12.9992 46.1586 12.5293ZM35.8396 5.23077C37.7154 5.48822 39.0257 7.22498 38.7693 9.10887C38.513 10.9928 36.7836 12.3127 34.9078 12.0552C33.032 11.7978 31.7177 10.061 31.9781 8.17714C32.2385 6.29326 33.9638 4.97332 35.8396 5.23077Z" fill="white"/>
</g>
<defs>
<clipPath id="clip0_102:173">
<rect width="50" height="41" fill="white"/>
</clipPath>
</defs>
</svg>
