<svg width="196" height="98" viewBox="0 0 196 98" fill="none" xmlns="http://www.w3.org/2000/svg">
<path d="M81.471 45.2406C79.2703 45.2406 77.4843 45.8944 76.1129 47.1941C74.7415 48.4937 74.0398 50.208 74.0398 52.297C74.0398 53.3814 74.2153 54.37 74.5501 55.279C74.885 56.188 75.4272 57.0331 76.1289 57.7906C76.8305 58.5481 78.2657 59.5846 80.3946 60.9799C83.0018 62.5746 84.7002 63.8663 85.5294 64.8709C86.2996 65.748 86.7345 66.8693 86.7573 68.0363C86.7573 69.5114 86.2789 70.6834 85.2742 71.5685C84.2696 72.4535 82.9381 72.8921 81.2876 72.8921C79.5335 72.8921 78.0983 72.2781 76.7109 71.0582C75.3235 69.8383 74.7415 68.2117 74.7176 66.1785H73.9043V73.5459H74.7176C74.9568 72.8442 75.3076 72.4934 75.7541 72.4934C75.9694 72.4934 76.4717 72.6529 77.3488 72.9239C79.2624 73.6097 80.8411 73.9366 82.0849 73.9366C84.2218 73.9366 86.0397 73.1871 87.5626 71.6721C88.2965 70.9615 88.8773 70.1082 89.2695 69.1649C89.6616 68.2216 89.8568 67.208 89.843 66.1865C89.843 64.528 89.3406 63.053 88.344 61.7693C87.3473 60.4856 85.4257 58.9786 82.5394 57.2644C80.0677 55.7733 78.4491 54.5534 77.7076 53.6126C76.9818 52.7295 76.5845 51.6221 76.5833 50.4791C76.5627 49.911 76.6744 49.3458 76.9097 48.8283C77.1449 48.3108 77.4972 47.8551 77.9388 47.497C78.8398 46.7555 80.0119 46.3808 81.4869 46.3808C83.1454 46.3808 84.5168 46.8751 85.6171 47.8638C86.754 48.9493 87.4377 50.4249 87.5307 51.994H88.344V45.6153H87.5865C87.4908 45.9343 87.4111 46.1496 87.3314 46.2532C87.2516 46.3569 87.1081 46.3967 86.8928 46.3967C86.6297 46.3967 86.1593 46.2851 85.4975 46.0778C84.0623 45.5994 82.7547 45.3602 81.5507 45.3602L81.471 45.2406ZM108.022 45.2406C105.343 45.2406 102.919 45.8785 100.711 47.1382C98.5262 48.3838 96.719 50.1965 95.4801 52.3847C94.2148 54.5466 93.5514 57.0079 93.5585 59.5128C93.5304 62.8422 94.7216 66.0669 96.9073 68.5785C99.1398 71.2256 101.835 72.8841 104.944 73.5219C105.662 73.8967 106.675 74.8535 108.006 76.3923C109.521 78.1465 110.781 79.4063 111.833 80.1557C112.856 80.8921 113.993 81.4551 115.198 81.8222C116.456 82.1939 117.762 82.3766 119.073 82.3644C120.763 82.3644 122.262 82.0693 123.618 81.4634L123.315 80.7218C122.542 81.0009 121.72 81.1365 120.843 81.1365C119.663 81.1365 118.475 80.7378 117.279 79.9644C116.083 79.191 114.592 77.692 112.814 75.4993L111.076 73.5219C114.488 72.8602 117.295 71.2097 119.472 68.5625C121.613 66.0394 122.777 62.8303 122.749 59.5208C122.785 57.6273 122.424 55.7473 121.69 54.0018C120.955 52.2563 119.863 50.6842 118.483 49.3867C115.645 46.6359 112.16 45.2406 108.022 45.2406V45.2406ZM124.607 45.2406L124.646 46.1177C126.432 46.1177 127.437 46.6439 127.652 47.6964C127.732 48.0711 127.772 48.7728 127.78 49.7694L127.764 69.0011C127.748 70.4363 127.541 71.3532 127.15 71.7519C126.759 72.1505 126.09 72.3897 125.125 72.4934L125.085 73.3704H142.866L143.32 69.009H142.507C142.268 70.205 141.741 71.0502 140.896 71.5286C140.051 72.007 138.544 72.2462 136.375 72.2462H134.701C132.747 72.2462 131.623 71.5446 131.32 70.1253C131.26 69.8261 131.231 69.5215 131.232 69.2164L131.312 49.7615C131.312 48.3263 131.496 47.3695 131.87 46.8911C132.245 46.4127 132.931 46.1575 133.919 46.0937L133.88 45.2167L124.607 45.2406ZM108.309 46.2931C109.739 46.262 111.156 46.5719 112.443 47.1972C113.73 47.8226 114.849 48.7453 115.708 49.889C117.622 52.281 118.563 55.582 118.563 59.752C118.563 63.7068 117.606 66.8642 115.692 69.2403C114.787 70.3944 113.622 71.3186 112.292 71.9379C110.962 72.5571 109.504 72.854 108.038 72.8043C106.595 72.8381 105.164 72.5213 103.87 71.8811C102.576 71.2409 101.456 70.2965 100.607 69.1286C98.7093 66.6729 97.7684 63.4835 97.7684 59.5607C97.7684 55.5341 98.7252 52.3847 100.639 49.897C102.552 47.4093 105.104 46.2931 108.325 46.2931H108.309ZM149.212 50.4392C148.782 50.4392 148.447 50.5827 148.2 50.8777C148.075 51.0257 147.988 51.2016 147.947 51.3905C147.905 51.5793 147.91 51.7755 147.96 51.9621C148.058 52.3998 148.307 52.7892 148.662 53.0624C149.037 53.3814 149.443 53.5408 149.874 53.5408C150.305 53.5408 150.616 53.3814 150.847 53.0624C151.078 52.7435 151.15 52.3847 151.062 51.9621C150.974 51.5395 150.743 51.1648 150.392 50.8777C150.041 50.5907 149.643 50.4392 149.22 50.4392H149.212ZM160.933 53.3893C160.199 56.2278 158.597 57.7587 156.149 58.0138L156.181 58.8271H159.051L159.011 68.411L159.171 71.704C159.45 73.0356 160.327 73.7133 161.778 73.7133C163.883 73.7133 166.084 72.4376 168.396 69.8622L167.694 69.2642C166.02 70.9545 164.553 71.7997 163.261 71.7997C162.464 71.7997 161.985 71.3452 161.794 70.4442C161.741 70.19 161.717 69.9305 161.722 69.6708L161.754 58.7952H166.14L166.1 57.4956H161.778V53.3654L160.933 53.3893ZM177.852 57.0092C175.405 57.0092 173.411 58.2052 171.872 60.5573C170.334 62.9095 169.855 65.5407 170.461 68.427C170.714 69.9406 171.473 71.3237 172.614 72.3499C173.698 73.2748 175.086 73.7292 176.72 73.7292C178.251 73.7292 180.388 73.3306 181.281 72.5572C182.174 71.7838 183.011 70.508 183.777 68.7778L183.163 68.14C181.943 70.3884 179.479 71.5206 177.613 71.5206C175.062 71.5206 173.491 70.1173 172.829 67.3267C172.752 66.9501 172.696 66.5694 172.662 66.1865C175.692 65.7081 178.004 64.855 179.559 63.6191C181.113 62.3832 182.668 61.0676 182.381 59.6962C182.224 58.911 181.777 58.2137 181.129 57.7428C180.468 57.2644 178.737 57.0012 177.781 57.0012L177.852 57.0092ZM151.094 57.1129L145.816 58.3248V59.2657L147.649 59.0265C148.527 59.0265 149.053 59.4251 149.22 60.2225C149.287 60.5882 149.321 60.959 149.324 61.3307L149.268 69.9579C149.252 71.1539 149.125 71.8475 148.853 72.0549C148.582 72.2622 147.873 72.3738 146.733 72.3738L146.701 73.1871H155.073L155.057 72.3738C153.893 72.3738 153.143 72.2941 152.808 72.1027C152.473 71.9113 152.25 71.6004 152.154 71.106C152.075 70.7472 152.043 70.1333 152.043 69.2722L152.075 57.0969H151.118L151.094 57.1129ZM176.513 58.7075C177.023 58.7075 177.518 58.9069 178.012 59.2896C178.506 59.6723 178.809 60.1029 178.889 60.5653C179.367 62.8616 177.334 64.4403 172.749 65.3254C172.622 63.7307 172.909 62.136 173.65 60.7646C174.392 59.3932 175.341 58.6916 176.505 58.6916L176.513 58.7075Z" fill="white"/>
<path d="M66.3935 15.5798H20.9934C17.9476 15.5798 15.46 18.0675 15.46 21.1133V71.1857C15.46 74.2315 17.9476 76.7192 20.9934 76.7192H50.8934C50.5505 61.841 55.6375 32.9696 66.3935 15.5958V15.5798Z" fill="#0F80CC"/>
<path d="M64.7436 17.1905H20.994C20.4796 17.1894 19.97 17.29 19.4946 17.4863C19.0191 17.6827 18.5872 17.971 18.2234 18.3348C17.8597 18.6985 17.5713 19.1305 17.375 19.606C17.1786 20.0814 17.0781 20.591 17.0791 21.1054V67.5101C26.9899 63.7068 41.8522 60.4298 52.1378 60.5733C54.2108 49.7694 60.2706 28.68 64.7356 17.1825L64.7436 17.1905Z" fill="url(#paint0_linear_81:5)"/>
<path d="M76.9823 13.9374C73.7929 11.1627 70.1093 12.2789 66.3937 15.5719L64.7432 17.1825C58.3885 23.9359 52.4882 36.4221 50.6544 45.9582C51.4517 47.4094 51.9301 49.2512 52.2969 50.7422L52.5361 51.7309L52.7753 52.8472C52.7753 52.8472 52.7195 52.6319 52.4882 51.9542L52.3288 51.5156C52.2989 51.4351 52.267 51.3553 52.2331 51.2764C51.8185 50.3196 50.6703 48.2785 50.16 47.3934C49.76 48.5661 49.3826 49.7464 49.0278 50.9336C50.4869 53.5967 51.372 58.1654 51.372 58.1654C51.372 58.1654 51.2922 57.8704 50.9255 56.8338C50.6065 55.9169 48.98 53.0864 48.5972 52.4166C47.9434 54.8405 47.6803 56.483 47.9195 56.8817C48.374 57.6551 48.8125 58.9866 49.1952 60.4537C49.7921 62.881 50.2789 65.3339 50.6544 67.8051L50.7102 68.4828C50.6041 71.2242 50.6653 73.9694 50.8936 76.7033C51.1806 80.1558 51.7148 83.1218 52.4085 84.7165L52.8709 84.4614C51.8663 81.3358 51.4517 77.2296 51.6351 72.5014C51.9062 65.2696 53.5726 56.5548 56.6423 47.4652C61.825 33.7511 69.0408 22.7479 75.6348 17.4855C69.6229 22.9074 61.4901 40.4806 59.0503 46.9868C56.3234 54.2744 54.3938 61.0996 53.2297 67.6616C55.239 61.5221 61.7373 58.8909 61.7373 58.8909C61.7373 58.8909 64.9266 54.9601 68.6422 49.3469L61.522 51.2445L59.2257 52.2651C59.2257 52.2651 65.0861 48.6931 70.1172 47.0825C77.0301 36.1909 84.5649 20.7147 76.9743 13.9533" fill="#003B57"/>
<defs>
<linearGradient id="paint0_linear_81:5" x1="44.5631" y1="18.227" x2="44.5631" y2="64.7194" gradientUnits="userSpaceOnUse">
<stop stop-color="#97D9F6"/>
<stop offset="0.92024" stop-color="#0F80CC"/>
<stop offset="1" stop-color="#0F80CC"/>
</linearGradient>
</defs>
</svg>
