<svg width="202" height="172" viewBox="0 0 202 172" fill="none" xmlns="http://www.w3.org/2000/svg">
<path d="M98.8002 171H201V-10H36.2418V49.1515H2L54.0365 153.283H89.6353L98.8002 171Z" fill="white" stroke="#020202" stroke-width="2" stroke-miterlimit="10"/>
<path d="M134.992 166H196V-3H98.1689H42V21.4189V50.1736L74.2516 127.209L77.7473 119.892L57.8591 74.5829H91.187L95.2161 83.8121L105.427 64.0078H147.356L139.298 79.7359H131.23L108.656 126.132L114.295 141.86L142.784 91.9453H183.637L175.845 107.414H168.587L134.992 166Z" fill="#D1F1F2" stroke="black" stroke-width="2" stroke-miterlimit="10"/>
<path opacity="0.51" d="M43 -3V20.1753C43 20.1753 136.178 23.7772 181.096 90.4449C182.048 90.4449 182.914 90.4449 183.846 90.4449C183.666 90.4449 185.093 90.4449 185.103 90.4449C184.494 91.5844 183.97 92.8011 183.361 93.9405C187.912 101.224 191.737 108.948 194.781 117L195 -2.92275L43 -3Z" fill="white"/>
</svg>
