<?xml version="1.0" encoding="utf-8"?>
<!-- Generator: Adobe Illustrator 22.0.0, SVG Export Plug-In . SVG Version: 6.00 Build 0)  -->
<svg version="1.1" xmlns="http://www.w3.org/2000/svg" xmlns:xlink="http://www.w3.org/1999/xlink" x="0px" y="0px"
	 viewBox="0 0 1920 1080" style="enable-background:new 0 0 1920 1080;" xml:space="preserve">
<style type="text/css">
	.st0{display:none;}
	.st1{display:inline;fill:url(#SVGID_1_);}
	.st2{fill:none;stroke:url(#SVGID_2_);stroke-miterlimit:10;}
	.st3{fill:none;stroke:url(#SVGID_3_);stroke-miterlimit:10;}
	.st4{fill:none;stroke:url(#SVGID_4_);stroke-miterlimit:10;}
	.st5{fill:none;stroke:url(#SVGID_5_);stroke-miterlimit:10;}
	.st6{fill:none;stroke:url(#SVGID_6_);stroke-miterlimit:10;}
	.st7{fill:none;stroke:url(#SVGID_7_);stroke-miterlimit:10;}
	.st8{fill:none;stroke:url(#SVGID_8_);stroke-miterlimit:10;}
	.st9{fill:none;stroke:url(#SVGID_9_);stroke-miterlimit:10;}
	.st10{fill:none;stroke:url(#SVGID_10_);stroke-miterlimit:10;}
	.st11{fill:none;stroke:url(#SVGID_11_);stroke-miterlimit:10;}
	.st12{fill:none;stroke:url(#SVGID_12_);stroke-miterlimit:10;}
	.st13{fill:none;stroke:url(#SVGID_13_);stroke-miterlimit:10;}
	.st14{fill:none;stroke:url(#SVGID_14_);stroke-miterlimit:10;}
	.st15{fill:none;stroke:url(#SVGID_15_);stroke-miterlimit:10;}
	.st16{fill:none;stroke:url(#SVGID_16_);stroke-miterlimit:10;}
	.st17{fill:none;stroke:url(#SVGID_17_);stroke-miterlimit:10;}
	.st18{fill:none;stroke:url(#SVGID_18_);stroke-miterlimit:10;}
	.st19{fill:none;stroke:url(#SVGID_19_);stroke-miterlimit:10;}
	.st20{fill:none;stroke:url(#SVGID_20_);stroke-miterlimit:10;}
	.st21{fill:none;stroke:url(#SVGID_21_);stroke-miterlimit:10;}
	.st22{fill:none;stroke:url(#SVGID_22_);stroke-miterlimit:10;}
	.st23{fill:none;stroke:url(#SVGID_23_);stroke-miterlimit:10;}
	.st24{fill:none;stroke:url(#SVGID_24_);stroke-miterlimit:10;}
	.st25{fill:none;stroke:url(#SVGID_25_);stroke-miterlimit:10;}
	.st26{fill:none;stroke:url(#SVGID_26_);stroke-miterlimit:10;}
	.st27{fill:none;stroke:url(#SVGID_27_);stroke-miterlimit:10;}
	.st28{fill:none;stroke:url(#SVGID_28_);stroke-miterlimit:10;}
	.st29{fill:none;stroke:url(#SVGID_29_);stroke-miterlimit:10;}
	.st30{fill:none;stroke:url(#SVGID_30_);stroke-miterlimit:10;}
	.st31{fill:none;stroke:url(#SVGID_31_);stroke-miterlimit:10;}
	.st32{fill:none;stroke:url(#SVGID_32_);stroke-miterlimit:10;}
	.st33{fill:none;stroke:url(#SVGID_33_);stroke-miterlimit:10;}
	.st34{fill:none;stroke:url(#SVGID_34_);stroke-miterlimit:10;}
	.st35{fill:none;stroke:url(#SVGID_35_);stroke-miterlimit:10;}
	.st36{fill:none;stroke:url(#SVGID_36_);stroke-miterlimit:10;}
	.st37{fill:none;stroke:url(#SVGID_37_);stroke-miterlimit:10;}
	.st38{fill:none;stroke:url(#SVGID_38_);stroke-miterlimit:10;}
	.st39{fill:none;stroke:url(#SVGID_39_);stroke-miterlimit:10;}
	.st40{fill:none;stroke:url(#SVGID_40_);stroke-miterlimit:10;}
	.st41{fill:none;stroke:url(#SVGID_41_);stroke-miterlimit:10;}
	.st42{fill:none;stroke:url(#SVGID_42_);stroke-miterlimit:10;}
	.st43{fill:none;stroke:url(#SVGID_43_);stroke-miterlimit:10;}
	.st44{fill:none;stroke:url(#SVGID_44_);stroke-miterlimit:10;}
	.st45{fill:none;stroke:url(#SVGID_45_);stroke-miterlimit:10;}
	.st46{fill:none;stroke:url(#SVGID_46_);stroke-miterlimit:10;}
	.st47{fill:none;stroke:url(#SVGID_47_);stroke-miterlimit:10;}
	.st48{fill:none;stroke:url(#SVGID_48_);stroke-miterlimit:10;}
	.st49{fill:none;stroke:url(#SVGID_49_);stroke-miterlimit:10;}
	.st50{fill:none;stroke:url(#SVGID_50_);stroke-miterlimit:10;}
	.st51{fill:none;stroke:url(#SVGID_51_);stroke-miterlimit:10;}
	.st52{fill:none;stroke:url(#SVGID_52_);stroke-miterlimit:10;}
	.st53{fill:none;stroke:url(#SVGID_53_);stroke-miterlimit:10;}
	.st54{fill:none;stroke:url(#SVGID_54_);stroke-miterlimit:10;}
	.st55{fill:none;stroke:url(#SVGID_55_);stroke-miterlimit:10;}
	.st56{fill:none;stroke:url(#SVGID_56_);stroke-miterlimit:10;}
	.st57{fill:none;stroke:url(#SVGID_57_);stroke-miterlimit:10;}
	.st58{fill:none;stroke:url(#SVGID_58_);stroke-miterlimit:10;}
	.st59{fill:none;stroke:url(#SVGID_59_);stroke-miterlimit:10;}
	.st60{fill:none;stroke:url(#SVGID_60_);stroke-miterlimit:10;}
	.st61{fill:none;stroke:url(#SVGID_61_);stroke-miterlimit:10;}
	.st62{fill:none;stroke:url(#SVGID_62_);stroke-miterlimit:10;}
</style>
<g id="background" class="st0">
	<radialGradient id="SVGID_1_" cx="960" cy="540" r="1489.5437" gradientUnits="userSpaceOnUse">
		<stop  offset="0" style="stop-color:#1C3553"/>
		<stop  offset="1" style="stop-color:#2B223B"/>
	</radialGradient>
	<rect class="st1" width="1920" height="1080"/>
</g>
<g id="design">
	<g>
		<g>
			<g>
				<radialGradient id="SVGID_2_" cx="960.4906" cy="1083.2393" r="685.9031" gradientUnits="userSpaceOnUse">
					<stop  offset="0" style="stop-color:#CCFFBD"/>
					<stop  offset="1" style="stop-color:#7ECA9C"/>
				</radialGradient>
				<path class="st2" d="M4.4,920.8c56.1,13.5,82.8,96.9,104.4,143.7c16.1,34.8,31.2,70.4,49.7,104.1c13.1,23.9,29.3,58.1,55.6,70.2
					c25.2,11.7,64.9,4.8,92.4,4.8c33.6,0,67.2,0,100.8,0c119,0,238.1,0,357.1,0c230.1,0,460.1,0,690.2,0c154.1,0,308.2,0.1,462.3,0"
					/>
			</g>
			<g>
				<radialGradient id="SVGID_3_" cx="960.4655" cy="1073.7675" r="685.8478" gradientUnits="userSpaceOnUse">
					<stop  offset="0" style="stop-color:#CCFFBD"/>
					<stop  offset="1" style="stop-color:#7ECA9C"/>
				</radialGradient>
				<path class="st3" d="M4.3,912c54.7,15.8,82.3,96.8,104.9,143.3c16.7,34.4,32.6,69.4,51.5,102.6c13.4,23.6,29.8,57.5,55.6,70.2
					c25,12.4,64.9,5.4,92.4,5.4c33.2,0,66.4-0.1,99.5-0.2c118.7-0.3,237.5-0.4,356.2-0.1c229.7,0.5,459.3-1.1,689-0.1
					c154.4,0.7,308.8,1.2,463.2,0.2"/>
			</g>
			<g>
				<radialGradient id="SVGID_4_" cx="960.4153" cy="1065.1312" r="685.675" gradientUnits="userSpaceOnUse">
					<stop  offset="0" style="stop-color:#CCFFBD"/>
					<stop  offset="1" style="stop-color:#7ECA9C"/>
				</radialGradient>
				<path class="st4" d="M4.3,905.1C58,922.7,86.9,1000.8,111,1047c17.6,33.7,34.3,68.1,53.9,100.7c14,23.4,30.8,56.6,56.3,69.7
					c24.8,12.8,64.8,5.8,92.3,5.8c32.6-0.1,65.2-0.3,97.7-0.5c117.8-0.7,235.6-0.8,353.4-0.2c229,1.3,457.9-2.8,687.1-0.3
					c72.3,0.8,144.6-4.4,216.9-2c82.6,2.7,165.5,3.5,248.2,2.7"/>
			</g>
			<g>
				<radialGradient id="SVGID_5_" cx="960.3424" cy="1057.2549" r="685.3974" gradientUnits="userSpaceOnUse">
					<stop  offset="0" style="stop-color:#CCFFBD"/>
					<stop  offset="1" style="stop-color:#7ECA9C"/>
				</radialGradient>
				<path class="st5" d="M4.1,900.1c53.2,18.7,83.9,93.6,109.8,139.5c18.6,32.9,36.5,66.5,56.9,98.3c14.8,23.1,32.3,55.3,57.6,68.6
					c24.8,13,64.4,6.1,91.9,6c31.8-0.1,63.6-0.5,95.5-0.8c116.3-1.3,232.6-1.4,348.9-0.2c228,2.3,455.8-5,684.2-0.6
					c36.7,0.7,72.4,1.9,109.1-1.1c36.7-3,73.8-5.1,110.6-2.9c82.4,4.9,165.4,6.3,248.1,5.3"/>
			</g>
			<g>
				<radialGradient id="SVGID_6_" cx="960.2488" cy="1050.2449" r="685.05" gradientUnits="userSpaceOnUse">
					<stop  offset="0" style="stop-color:#CCFFBD"/>
					<stop  offset="1" style="stop-color:#7ECA9C"/>
				</radialGradient>
				<path class="st6" d="M3.9,896.7c53.1,19.3,85.9,90.9,113.9,136.2c19.8,32,39,64.6,60.5,95.5c15.7,22.7,34.1,53.8,59.5,67.1
					c24.9,12.9,63.8,6.2,91.3,6c30.9-0.2,61.8-0.7,92.7-1.2c114.3-1.9,228.5-2.1,342.8-0.3c54.7,0.8,113.9,7.7,168.1,0.7
					c9-1.2,16.6-4,25.6-3.6c7.3,0.3,13.4,3.4,20.5,4.2c13,1.6,27.7-0.3,40.9-0.3c27,0,54-0.1,81-0.2c56.9-0.1,113.5-4.9,170.3-4.7
					c58.2,0.1,116.1,1,174.3,2.7c37.8,1.1,73.7,2.1,111.4-2.2c37.1-4.3,74.7-7.7,112.1-4.3c82,7.6,165.3,9.7,247.8,8.6"/>
			</g>
			<g>
				<radialGradient id="SVGID_7_" cx="960.1366" cy="1043.4855" r="684.5884" gradientUnits="userSpaceOnUse">
					<stop  offset="0" style="stop-color:#CCFFBD"/>
					<stop  offset="1" style="stop-color:#7ECA9C"/>
				</radialGradient>
				<path class="st7" d="M3.7,894.8c53.3,19.5,88.6,87.5,119.1,132.1c21.2,30.9,41.8,62.4,64.5,92.3c16.8,22.2,36.3,52.1,62,65.1
					c25,12.6,63,6.1,90.6,5.8c29.9-0.3,59.7-1,89.5-1.7c111.7-2.6,223.5-2.8,335.3-0.3c25.2,0.6,50.5,1.1,75.7,1.5
					c29.2,0.4,62,4.4,90.9-0.6c10.2-1.8,17.6-5.8,27.9-5.1c8.3,0.5,14.8,4.8,22.8,6c12.7,2,27.7-0.1,40.6-0.2
					c26,0,52.1-0.2,78.1-0.2c56.1-0.1,111.6-7.2,167.5-7.2c57.8,0,115.3,1.9,173.1,4.2c39.1,1.6,75.2,2.2,114.1-3.7
					c37.6-5.7,75.8-10.8,113.9-5.8c21.1,2.8,41.9,8.5,63.3,9.4c19.2,0.8,38.7-0.7,58-0.2c42.1,1.1,84.1,4,126.3,3.5"/>
			</g>
			<g>
				<radialGradient id="SVGID_8_" cx="960.0076" cy="1037.4463" r="684.0905" gradientUnits="userSpaceOnUse">
					<stop  offset="0" style="stop-color:#CCFFBD"/>
					<stop  offset="1" style="stop-color:#7ECA9C"/>
				</radialGradient>
				<path class="st8" d="M3.4,894.3c53.9,19.1,92,83.7,125.2,127.3c22.7,29.8,44.9,60.1,69,88.8c18.1,21.6,38.8,50.2,65,62.8
					c25.2,12.2,62.1,6,89.7,5.5c28.7-0.5,57.3-1.3,86-2.3c108.8-3.5,217.6-3.7,326.4-0.4c24.4,0.7,48.7,1.5,73.1,2
					c29.1,0.6,63.2,5.2,91.7-0.9c11.6-2.5,18.6-7.8,30.5-6.9c9.4,0.7,16.4,6.4,25.3,8c12.5,2.2,27.5,0.1,40.2,0
					c25-0.1,49.9-0.2,74.9-0.3c27-0.1,54.2,1.4,81-2c28-3.6,54.7-7.9,83.1-8c57.5-0.1,114.4,2.9,171.8,6
					c40.6,2.2,76.8,2.1,117.1-5.4c38.2-7.1,77.2-14.3,116-7.5c21.2,3.7,41.9,10.9,63.5,12.4c19.2,1.3,38.7-0.4,57.9,0.3
					c42,1.4,83.8,5.2,125.8,4.7"/>
			</g>
			<g>
				<radialGradient id="SVGID_9_" cx="959.8635" cy="1031.876" r="683.5532" gradientUnits="userSpaceOnUse">
					<stop  offset="0" style="stop-color:#CCFFBD"/>
					<stop  offset="1" style="stop-color:#7ECA9C"/>
				</radialGradient>
				<path class="st9" d="M3.2,894.9c54.8,18.4,95.9,79.5,132.1,121.8c24.4,28.5,48.3,57.5,73.9,84.9c19.5,20.9,41.6,48,68.4,60.1
					c25.5,11.5,61.1,5.7,88.7,5.1c27.4-0.6,54.7-1.7,82.1-2.9c105.5-4.5,210.9-4.6,316.5-0.4c23.4,0.9,46.8,1.9,70.3,2.5
					c29.1,0.8,64.4,5.9,92.7-1.3c13.3-3.3,19.7-10.1,33.4-9c10.7,0.9,18.1,8.1,28.2,10.1c12.3,2.5,27.3,0.3,39.8,0.3
					c23.8-0.1,47.6-0.3,71.4-0.4c26.5-0.1,53.2,1.5,79.5-2.9c27.4-4.6,52.8-10.1,80.8-10.3c57.1-0.4,113.4,4.1,170.3,7.9
					c42.2,2.9,78.7,1.8,120.3-7.4c38.9-8.7,78.7-18.2,118.5-9.4c21.3,4.7,41.8,13.5,63.6,15.7c19,1.9,38.7,0,57.8,0.8
					c41.8,1.9,83.4,6.4,125.3,6.1"/>
			</g>
			<g>
				<radialGradient id="SVGID_10_" cx="959.7062" cy="1026.8096" r="683.0038" gradientUnits="userSpaceOnUse">
					<stop  offset="0" style="stop-color:#CCFFBD"/>
					<stop  offset="1" style="stop-color:#7ECA9C"/>
				</radialGradient>
				<path class="st10" d="M2.8,896.6c56.2,17.5,101.4,76,140.7,116.8c43.7,45.3,88.8,104.2,145.2,134.6c26.6,14.3,64.7,7.7,94.1,6.9
					c26.1-0.8,52.1-2.1,78.1-3.5c102.4-5.6,204.6-5.4,307-0.2c21.2,1.1,42.3,2.2,63.5,2.9c12.5,0.5,25.1,0.8,37.6,1
					c16.5,0.3,41.6,4.3,56.9-0.3c14.7-4.5,15.7-18.6,35.3-15.3c13,2.2,24.4,12.5,37.8,14.9c10.7,1.9,23,0,34-0.1
					c22.7-0.1,45.4-0.4,68.1-0.5c26.2-0.1,52.4,1.5,78.2-4.1c25-5.4,47.7-12.2,73.5-12.7c58.9-1.2,117.2,5.8,175.8,10.5
					c44.7,3.6,82-0.1,125.6-11.3c40.6-10.4,79.7-20.5,121.1-8.5c19.2,5.6,37.8,14.6,57.8,17.5c18.9,2.8,38.9,0.6,58.1,1.6
					c41.9,2.3,83.5,7.8,125.5,7.6"/>
			</g>
			<g>
				<radialGradient id="SVGID_11_" cx="959.5377" cy="1022.1378" r="682.453" gradientUnits="userSpaceOnUse">
					<stop  offset="0" style="stop-color:#CCFFBD"/>
					<stop  offset="1" style="stop-color:#7ECA9C"/>
				</radialGradient>
				<path class="st11" d="M2.5,899.1c57.7,16.1,106.3,71,149,110.2c47.2,43.3,96,98.8,154.5,127.2c27.1,13.1,63.6,7.1,93,6.1
					c24.6-0.9,49.1-2.5,73.7-4.2c98.4-6.8,196.7-6.5,295.1-0.2c20.1,1.3,40.3,2.6,60.4,3.5c12.1,0.6,24.3,1,36.5,1.3
					c15.2,0.4,46.1,5.3,59.1-0.6c14.7-6.6,18.2-22,38.6-18.4c14.4,2.6,26.9,15.2,41.7,18c10.3,2,22.5,0,33.1-0.1
					c21.4-0.1,42.7-0.5,64.1-0.6c25.7-0.2,51.2,1.6,76.2-5.2c24.2-6.5,45.4-14.7,70.9-15.4c58.4-1.6,116.2,7.3,174.1,12.9
					c46.6,4.5,84.5-0.9,129.5-14c41.6-12.1,81.3-24.8,123.8-10.1c19.3,6.7,37.7,17.1,58,20.9c18.7,3.4,39,1.1,58,2.4
					c41.8,2.8,83,9.2,125,9.2"/>
			</g>
			<g>
				<radialGradient id="SVGID_12_" cx="959.3619" cy="1017.61" r="681.9011" gradientUnits="userSpaceOnUse">
					<stop  offset="0" style="stop-color:#CCFFBD"/>
					<stop  offset="1" style="stop-color:#7ECA9C"/>
				</radialGradient>
				<path class="st12" d="M2.1,902.3c59.5,14.5,111.5,65.9,157.8,103.3c50.8,41,103.5,93.3,164.3,119.4c27.5,11.8,62.5,6.5,91.8,5.2
					c23-1.1,46-3,69-5c94.2-8.2,188.2-7.7,282.5-0.1c19.1,1.5,38.1,3,57.2,4.1c11.7,0.7,23.5,1.2,35.2,1.5
					c15.5,0.5,48.3,5.4,61.3-0.8c16.1-7.6,19.2-25.8,42.1-21.6c15.9,2.9,29.5,18,45.7,21.4c9.9,2,21.9,0,32.1-0.1
					c20-0.2,39.9-0.5,59.9-0.7c25.1-0.2,49.9,1.6,74.1-6.3c23.4-7.7,42.9-17.3,68.1-18.2c57.8-2.1,115.2,9,172.4,15.4
					c48.5,5.4,87.2-1.9,133.7-17c42.6-13.8,83.2-29.3,126.8-11.7c19.3,7.8,37.6,19.8,58.2,24.4c18.5,4.2,39,1.8,57.9,3.3
					c41.6,3.4,82.5,10.7,124.4,10.9"/>
			</g>
			<g>
				<radialGradient id="SVGID_13_" cx="959.1788" cy="1013.2609" r="681.3701" gradientUnits="userSpaceOnUse">
					<stop  offset="0" style="stop-color:#CCFFBD"/>
					<stop  offset="1" style="stop-color:#7ECA9C"/>
				</radialGradient>
				<path class="st13" d="M1.7,906c61.4,12.8,117,60.7,167,96c54.6,38.6,111.2,87.5,174.5,111.3c27.8,10.4,61.4,5.8,90.5,4.2
					c21.4-1.2,42.8-3.4,64.1-5.7c89.8-9.6,179.4-8.9,269.3-0.1c17.9,1.8,35.9,3.5,53.9,4.7c11.3,0.8,22.6,1.4,34,1.8
					c15.9,0.6,50.5,5.4,63.7-1c17.5-8.6,20.3-29.8,45.7-25c17.5,3.3,32.2,21.1,50,24.8c9.6,2,21.2,0,31.1-0.1
					c18.5-0.2,37-0.6,55.6-0.8c24.5-0.2,48.6,1.7,71.8-7.6c22.5-9,40.3-20,65.3-21.1c57.2-2.6,114.2,10.8,170.6,18
					c20.6,2.7,40.8,5.7,61.6,2.5c26.2-4.1,51.6-13.7,76.5-22.5c43.7-15.5,85.2-34.1,129.9-13.4c19.4,9,37.5,22.5,58.4,28.1
					c18.3,4.9,39,2.5,57.8,4.3c41.5,4,82,12.2,123.8,12.6"/>
			</g>
			<g>
				<radialGradient id="SVGID_14_" cx="958.9899" cy="1009.3155" r="680.8934" gradientUnits="userSpaceOnUse">
					<stop  offset="0" style="stop-color:#CCFFBD"/>
					<stop  offset="1" style="stop-color:#7ECA9C"/>
				</radialGradient>
				<path class="st14" d="M1.3,910.1c63.6,10.9,122.8,55.3,176.5,88.5c58.4,36.1,119,81.6,185,103c44.6,14.5,102.4,2.8,148.4-3.3
					c85.2-11.3,170.5-10.3,255.7-0.1c16.8,2,33.6,4,50.4,5.4c10.9,0.9,21.8,1.6,32.6,2.1c16.4,0.7,52.8,5.5,66.1-1.3
					c18.9-9.6,21.4-33.8,49.5-28.5c19.2,3.6,35,24.3,54.4,28.4c9.2,2,20.5,0,30-0.2c17-0.2,34.1-0.7,51.1-0.9
					c23.9-0.3,47.3,1.7,69.5-8.9c21.5-10.3,37.4-22.7,62.3-24.1c56.5-3.2,113.3,12.7,168.8,20.8c21.2,3.1,41.5,6.1,62.8,2.4
					c27.4-4.8,53.7-15.6,79.6-25.5c44.7-17.2,87.4-39.1,133.2-15.1c19.4,10.2,37.3,25.3,58.6,31.9c18.1,5.6,39,3.2,57.7,5.3
					c41.3,4.5,81.4,13.7,123.1,14.4"/>
			</g>
			<g>
				<radialGradient id="SVGID_15_" cx="958.7969" cy="1004.9313" r="680.4233" gradientUnits="userSpaceOnUse">
					<stop  offset="0" style="stop-color:#CCFFBD"/>
					<stop  offset="1" style="stop-color:#7ECA9C"/>
				</radialGradient>
				<path class="st15" d="M0.9,914.4c65.9,9,128.7,50,186.2,80.9c62.3,33.5,126.9,75.6,195.7,94.6c44.1,12.2,97.3,2.2,142-5.2
					c80.3-13.2,161.4-11.8,241.8,0c15.6,2.3,31.2,4.5,47,6c10.4,1,20.8,1.8,31.3,2.4c4.5,0.2,9,0.5,13.4,0.6
					c12.2,0.1,46.7,2.3,55.1-2.1c20.4-10.6,22.5-38,53.3-32c20.8,4,37.8,27.6,58.8,32c8.9,1.9,19.8,0,28.9-0.2
					c15.5-0.2,31.1-0.8,46.6-1c23.4-0.3,46,1.8,67.1-10.2c20.5-11.6,34.4-25.5,59.3-27.2c55.8-3.8,112.5,14.6,167,23.5
					c21.8,3.6,42.2,6.5,64.2,2.2c28.6-5.6,56-17.6,82.8-28.6c45.7-18.8,89.8-44.2,136.5-16.8c19.5,11.4,37.2,28,58.7,35.7
					c17.8,6.3,38.9,4,57.6,6.3c41.1,5.1,80.9,15.3,122.5,16.3"/>
			</g>
			<g>
				<radialGradient id="SVGID_16_" cx="958.6017" cy="1000.5811" r="680.0093" gradientUnits="userSpaceOnUse">
					<stop  offset="0" style="stop-color:#CCFFBD"/>
					<stop  offset="1" style="stop-color:#7ECA9C"/>
				</radialGradient>
				<path class="st16" d="M0.5,918.7c68.8,7.1,135.7,45.1,197.4,73.8c66,30.7,135,70,206.8,85.8c42.1,9.3,90.4,1.4,132.4-7.1
					c75.6-15.3,153-13.8,228.7-0.4c44.4,7.9,102.3,19.9,144.3,2.6c4.9-2,9.8-4,14.7-6.1c10.4-26.8,25.5-33.7,45.1-20.7
					c19.9,6.9,34.6,22.1,53.6,29c11.4,4.2,24.1,2.8,36,2.6c14.1-0.2,28.2-0.9,42.4-1.1c21.3-0.4,42.8,2,61.6-9.9
					c21.4-13.5,33.4-30.3,60.7-31.8c54-3,107.9,16,160.4,25.7c21.9,4.1,42.6,7.6,64.8,3.3c29.8-5.8,58.4-19,86.1-31
					c26.8-11.6,53.8-25.6,82.3-32.7c23.3-5.9,39.4-0.9,59.3,11.7c19.9,12.6,37.3,30.8,59.3,40c17.7,7.4,39.1,5.1,57.9,7.7
					c41.2,5.7,80.7,17,122.5,18.2"/>
			</g>
			<g>
				<radialGradient id="SVGID_17_" cx="958.4063" cy="996.187" r="679.6546" gradientUnits="userSpaceOnUse">
					<stop  offset="0" style="stop-color:#CCFFBD"/>
					<stop  offset="1" style="stop-color:#7ECA9C"/>
				</radialGradient>
				<path class="st17" d="M0.1,922.9c71.3,5.2,141.7,39.8,207.3,66c70,28,142.8,63.9,217.5,77.3c40.9,7.3,86.1,1.3,126.1-8.9
					c70-17.8,144.3-15.5,214.6-0.4c43.8,9.4,100.3,20.7,141.9,2.8c5.2-2.2,10.4-4.5,15.6-6.7c10.9-29.5,27-37.1,48.2-22.8
					c21.4,7.7,37,24.1,57.5,31.9c11.5,4.4,23.4,3.2,35.3,3c12.6-0.3,25.2-1,37.8-1.2c20.9-0.4,41.6,2,59.4-11.1
					c20.2-14.9,30-33.3,57.5-35c53.4-3.4,107,18,158.5,28.5c22.5,4.6,43.2,8.1,66,3.3c31-6.5,60.8-20.9,89.3-34
					c27.6-12.8,55.7-27.8,85.2-35.9c24.2-6.6,39.8-1,59.9,12.9c20,13.9,37.1,33.5,59.5,43.9c17.5,8.1,38.9,5.9,57.8,8.8
					c41,6.3,80.1,18.6,121.9,20.1"/>
			</g>
			<g>
				<radialGradient id="SVGID_18_" cx="958.2125" cy="991.6843" r="679.3613" gradientUnits="userSpaceOnUse">
					<stop  offset="0" style="stop-color:#CCFFBD"/>
					<stop  offset="1" style="stop-color:#7ECA9C"/>
				</radialGradient>
				<path class="st18" d="M-0.3,926.9c73.9,3.3,147.8,34.7,217,58.3c73.8,25.2,150.4,57.8,228.2,68.9c39.3,5.6,82.1,1.4,119.9-10.7
					c64-20.5,136.1-17.1,200.6-0.4c43.2,11.2,98.3,21.5,139.5,3c5.5-2.5,11-4.9,16.5-7.4c11.4-32.2,28.5-40.4,51.2-24.8
					c23,8.5,39.4,26,61.4,34.8c11.5,4.6,22.7,3.7,34.7,3.4c11.1-0.3,22.2-1,33.3-1.3c20.4-0.5,40.5,2,57.2-12.2
					c18.9-16.2,26.6-36.2,54.3-38.2c52.7-3.9,106.1,20,156.7,31.2c23,5.1,43.8,8.6,67.2,3.2c32.2-7.3,63-22.8,92.4-37.1
					c28.5-13.8,57.4-30.1,88-39.1c25-7.4,40.2-1.1,60.5,14.1c20.1,15.1,37,36.2,59.7,47.8c17.3,8.8,38.8,6.7,57.7,9.9
					c40.9,6.9,79.5,20.1,121.2,22"/>
			</g>
			<g>
				<radialGradient id="SVGID_19_" cx="958.0223" cy="986.9906" r="679.1282" gradientUnits="userSpaceOnUse">
					<stop  offset="0" style="stop-color:#CCFFBD"/>
					<stop  offset="1" style="stop-color:#7ECA9C"/>
				</radialGradient>
				<path class="st19" d="M-0.7,930.4c76.5,1.4,153.7,29.7,226.5,50.8c77.6,22.5,157.8,51.8,238.6,60.6
					c37.5,4.1,78.5,1.9,113.7-12.4c57.6-23.3,128.4-18.7,186.9-0.4c42.4,13.3,96.4,22,137.1,3.1c5.8-2.7,11.6-5.4,17.4-8.1
					c11.9-34.8,30-43.7,54.2-26.8c24.5,9.3,41.7,27.9,65.2,37.6c11.6,4.8,22,4.1,34.1,3.8c9.6-0.3,19.2-1.1,28.8-1.4
					c20-0.6,39.5,2,55-13.4c17.5-17.3,23.3-39,51.3-41.3c52.1-4.3,105.3,22,154.8,33.8c23.6,5.6,44.4,9.1,68.4,3.3
					c33.3-8,65.2-24.8,95.5-40c29.4-14.8,59.2-32.3,90.8-42.2c25.8-8.1,40.7-1.2,61.1,15.3c20.2,16.3,36.9,38.9,59.9,51.6
					c17.1,9.5,38.7,7.4,57.6,10.9c40.7,7.5,78.9,21.7,120.6,23.8"/>
			</g>
			<g>
				<radialGradient id="SVGID_20_" cx="957.8362" cy="971.8622" r="679.3671" gradientUnits="userSpaceOnUse">
					<stop  offset="0" style="stop-color:#CCFFBD"/>
					<stop  offset="1" style="stop-color:#7ECA9C"/>
				</radialGradient>
				<path class="st20" d="M-1.1,933.3c79.1-0.2,159.5,24.9,235.7,43.5c81.6,19.9,164.8,45,248.7,52.6c35.1,3.2,75.9,2.7,107.8-14
					c50.4-26.4,121.8-20.2,173.7-0.4c41.3,15.8,94.9,22.4,134.8,3.3c6.1-2.9,12.2-5.8,18.3-8.7c12.3-37.4,31.4-46.9,57.1-28.7
					c7.8,3,15.5,6,23.3,9c15.2,10.4,30.4,20.9,45.5,31.3c11.6,5,21.4,4.6,33.5,4.1c8.2-0.3,16.3-1.2,24.5-1.5
					c19.7-0.8,38.5,1.9,53-14.5c16.1-18.3,20-41.7,48.3-44.4c51.4-4.8,104.5,24,153.1,36.4c24.1,6.1,44.9,9.5,69.6,3.3
					c34.5-8.8,67.3-26.6,98.6-42.9c30.3-15.8,60.9-34.4,93.5-45.2c26.5-8.8,41.2-1.2,61.6,16.5c20.2,17.5,36.8,41.5,60.1,55.3
					c17,10.1,38.5,8.1,57.5,11.9c40.6,8,78.3,23.2,120,25.5"/>
			</g>
			<g>
				<radialGradient id="SVGID_21_" cx="957.65" cy="955.0256" r="679.6816" gradientUnits="userSpaceOnUse">
					<stop  offset="0" style="stop-color:#CCFFBD"/>
					<stop  offset="1" style="stop-color:#7ECA9C"/>
				</radialGradient>
				<path class="st21" d="M-1.4,935.4c81.7-1.8,165,20.5,244.5,36.6c85,17.2,171.6,39.3,258.5,44.9c33,2.1,73.5,3.5,102.1-15.5
					c43.3-28.8,115.4-21.6,161-0.4c39.8,18.5,93.8,22.4,132.6,3.5c6.4-3.1,12.7-6.2,19.1-9.3c12.8-39.8,32.7-50,59.8-30.6
					c8.2,3.2,16.3,6.4,24.5,9.6c16,11.1,31.9,22.2,47.9,33.4c11.6,5.1,20.9,5.1,32.9,4.4c6.8-0.4,13.5-1.2,20.3-1.6
					c19.5-1.1,37.6,1.9,51-15.5c14.8-19.2,16.9-44.4,45.4-47.3c50.8-5.2,103.7,25.9,151.4,38.8c24.6,6.6,45.5,10,70.7,3.3
					c35.6-9.4,69.4-28.4,101.5-45.7c31.1-16.8,62.5-36.4,96-48.1c27.2-9.5,41.6-1.2,62,17.6c20.3,18.7,36.6,43.9,60.2,58.9
					c16.8,10.6,38.4,8.8,57.4,12.8c40.4,8.6,77.7,24.7,119.4,27.2"/>
			</g>
			<g>
				<radialGradient id="SVGID_22_" cx="957.4752" cy="938.4387" r="679.9913" gradientUnits="userSpaceOnUse">
					<stop  offset="0" style="stop-color:#CCFFBD"/>
					<stop  offset="1" style="stop-color:#7ECA9C"/>
				</radialGradient>
				<path class="st22" d="M-1.8,936.6c84.2-3.1,170.1,16.3,252.7,30c88.3,14.7,178,33.8,267.7,37.6c30.1,1.3,72.7,4.9,96.7-16.9
					c19-17.3,43.4-17.4,68.8-17.4c29.2-0.1,55.1,2.6,80.4,17c37.8,21.5,93.2,22.2,130.5,3.7c6.6-3.3,13.3-6.6,19.9-9.9
					c13.2-42.1,34-52.9,62.4-32.3c8.5,3.4,17.1,6.8,25.6,10.1c16.7,11.8,33.4,23.5,50,35.3c11.5,5.2,20.4,5.6,32.4,4.7
					c5.5-0.4,10.8-1.3,16.3-1.7c19.4-1.5,36.7,2,49.2-16.4c13.5-19.8,13.9-46.8,42.7-50c50.3-5.6,103,27.7,149.7,41.1
					c25,7.1,46,10.5,71.7,3.5c36.6-10.1,71.3-30.1,104.2-48.4c31.9-17.7,64-38.4,98.5-50.9c27.9-10.1,42-1.2,62.5,18.6
					c20.4,19.8,36.5,46.3,60.4,62.2c16.7,11.2,38.3,9.3,57.3,13.6c40.3,9.1,77.1,26.1,118.8,28.8"/>
			</g>
			<g>
				<radialGradient id="SVGID_23_" cx="957.314" cy="922.0876" r="680.2874" gradientUnits="userSpaceOnUse">
					<stop  offset="0" style="stop-color:#CCFFBD"/>
					<stop  offset="1" style="stop-color:#7ECA9C"/>
				</radialGradient>
				<path class="st23" d="M-2.1,936.8c86.5-4.1,174.9,12.6,260.4,24c91.4,12.3,184,28.6,276.3,30.8c27.3,0.6,72.7,6,91.6-18.2
					c15.1-19.3,38.9-18.3,62.9-18.3c27.9-0.1,52.5,1.8,75.3,17.9c35.2,24.8,93.4,21.6,128.6,3.9c6.9-3.5,13.8-6.9,20.6-10.4
					c13.5-44.3,35.1-55.6,64.9-34c8.9,3.6,17.8,7.1,26.6,10.7c17.4,12.4,34.7,24.7,52.1,37.1c11.5,5.3,20,6,31.9,5
					c4.3-0.4,8.3-1.4,12.6-1.8c19.2-1.6,36.1,1.9,47.6-17.3c12.2-20.4,11.1-49.2,40.1-52.6c49.8-5.9,102.2,29.4,148.2,43.2
					c25.4,7.6,46.5,11,72.7,3.6c37.6-10.6,73.2-31.7,106.8-50.8c32.6-18.5,65.5-40.3,100.7-53.5c28.5-10.7,42.4-1.2,62.8,19.5
					c20.5,20.8,36.4,48.5,60.6,65.4c16.6,11.6,38.1,9.8,57.3,14.3c40.2,9.6,76.5,27.4,118.3,30.3"/>
			</g>
			<g>
				<radialGradient id="SVGID_24_" cx="957.1684" cy="906.0067" r="680.5625" gradientUnits="userSpaceOnUse">
					<stop  offset="0" style="stop-color:#CCFFBD"/>
					<stop  offset="1" style="stop-color:#7ECA9C"/>
				</radialGradient>
				<path class="st24" d="M-2.4,935.7c88.7-4.9,179.3,9.3,267.2,18.6c94.2,10,189.4,23.7,284.2,24.6c25,0.2,73.3,6.8,86.9-19.2
					c10.9-20.9,34.4-19.1,57.6-19.1c26.9-0.1,50.4,1.1,70.7,18.7c32.3,28,93.9,20.8,126.8,4.1c7.1-3.6,14.2-7.2,21.3-10.8
					c13.8-46.3,36.2-58.1,67.1-35.5c9.2,3.7,18.4,7.4,27.6,11.1c18,12.9,36,25.8,54,38.8c11.6,5.4,19.5,6.2,31.4,5.2
					c3.5-0.3,5.6-1.5,9.1-1.9c19.1-2,35.5,1.9,46.2-18c11.1-20.8,8.4-51.3,37.8-55c49.4-6.2,101.5,31,146.8,45.1
					c25.7,8,47,11.5,73.6,3.8c38.5-11.1,74.9-33.2,109.3-53.1c33.3-19.3,66.7-42,102.8-55.9c29-11.2,42.8-1.1,63.1,20.4
					c20.5,21.7,36.3,50.6,60.7,68.4c16.4,12,38,10.2,57.2,15c40.1,10,75.9,28.6,117.8,31.6"/>
			</g>
			<g>
				<radialGradient id="SVGID_25_" cx="957.0406" cy="890.147" r="680.8043" gradientUnits="userSpaceOnUse">
					<stop  offset="0" style="stop-color:#CCFFBD"/>
					<stop  offset="1" style="stop-color:#7ECA9C"/>
				</radialGradient>
				<path class="st25" d="M-2.7,933.1c90.6-5.3,183,6.4,273.3,13.8c96.7,7.9,194.2,19.1,291.3,18.9c19.5,0,56,3.9,74.6-6.6
					c7.9-4.4,6.2-6.2,8-13.5c1.6-6.4-0.7-8.6,5.4-13.4c11-8.5,34.7-6.5,47.5-6.5c26-0.1,48.9,0.2,66.7,19.4c4.9,5.3,8.6,9,15.5,12
					c6,2.6,13.1,4,19.6,4.9c30.1,4.4,63.7,0.9,90.1-12.6c7.3-3.7,14.7-7.5,22-11.2c14.1-48.1,37.1-60.4,69-36.9
					c9.5,3.9,19,7.7,28.4,11.6c18.5,13.4,37.1,26.9,55.6,40.3c11.3,5.3,19.3,6.6,31,5.3c4.4-0.5,1.3-1.5,5.9-2
					c19.1-1.8,35.3,1.7,45.1-18.7c10.2-21.2,6-53.3,35.7-57.1c49.2-6.4,100.7,32.4,145.5,46.8c26,8.4,47.5,12,74.4,4.1
					c39.4-11.6,76.5-34.6,111.4-55.2c33.8-20,67.9-43.6,104.6-58.1c29.4-11.6,43.1-1,63.3,21.2c20.6,22.6,36.2,52.5,60.9,71.1
					c16.3,12.3,38,10.4,57.2,15.4c40.1,10.4,75.4,29.8,117.4,32.9"/>
			</g>
			<g>
				<radialGradient id="SVGID_26_" cx="956.9329" cy="873.8239" r="681.0389" gradientUnits="userSpaceOnUse">
					<stop  offset="0" style="stop-color:#CCFFBD"/>
					<stop  offset="1" style="stop-color:#7ECA9C"/>
				</radialGradient>
				<path class="st26" d="M-2.9,929c63.7-3.7,127.8,1,191.4,4.6c79,4.5,158,9.7,237,14c55.8,3,112.1,7,167.9,4.5
					c15.3-0.7,32.8,0.6,47.6-4.2c15.4-5,9.1-8.2,9.8-19.6c0.8-13.3,12.5-14,24.8-15.4c21.9-2.5,55.1-5.6,75.7,5
					c8.9,4.6,9.4,11.1,15.3,18c11.1,13,31.9,14,47.5,14c17-1,34-1.8,51.1-2.4c15-7.7,30.1-15.4,45.1-23.1
					c14.3-49.6,37.8-62.3,70.7-38.1c32.8,10.6,61.5,28.5,86.2,53.6c11.2,4.9,21.1,6.7,33,5c-0.5-0.6-1.4-0.9-1.6-1.3
					c17.6-2.1,35,2.5,44.8-15.9c11.5-21.5,4.3-58.4,35.7-62.6c24.3-3.2,51.3,7.8,72.9,17.7c30.1,13.7,59.3,28.1,91.5,36.7
					c27.4,7.4,52.6,0.4,78.4-10.3c40.7-16.9,78.5-41.3,116.1-64.1c28-17,64-45.5,97.4-50.3c23.3-3.3,39.9,19.5,52.9,35.7
					c18.1,22.6,34.7,55.2,61,69.7c16.5,9.1,38.2,7.7,56.5,13.3c37.5,11.4,71.2,29.3,111,32.3"/>
			</g>
			<g>
				<radialGradient id="SVGID_27_" cx="956.8474" cy="858.8497" r="681.2103" gradientUnits="userSpaceOnUse">
					<stop  offset="0" style="stop-color:#CCFFBD"/>
					<stop  offset="1" style="stop-color:#7ECA9C"/>
				</radialGradient>
				<path class="st27" d="M-3,923.2c144.4-7.4,291.2,7.5,435.5,13c56.5,2.2,113.4,5.1,170,2.8c14.8-0.6,33.1,1.3,47.3-4.1
					c15.5-5.9,7.3-8.8,6.2-20.1c-1.4-13.6,9.6-14.2,22.2-15.8c20.8-2.7,55.9-6.1,75.2,5.1c8.6,5,7.4,11.2,12.5,18.5
					c9.4,13.7,31,14.4,45.7,14.4c17.3-1.1,34.6-1.9,51.9-2.5c15.4-7.9,30.7-15.7,46.1-23.6c14.4-50.9,38.4-64,72-39.2
					c33.5,10.9,62.9,29.2,88.1,55c10.9,4.8,20.7,6.9,32.2,5c-1-0.4-2.3-0.9-3.2-1.3c17.5-2.3,34.6,2.7,44-16.1
					c10.9-21.8,2.3-60,34.1-64.2c24.2-3.2,50.9,7.9,72.3,18c30,14.2,59,28.9,91.3,37.7c27.7,7.6,53.1,0.7,79.1-10.3
					c41.4-17.4,79.7-42.5,117.9-66c28.2-17.4,64.6-46.7,98.3-51.5c23.5-3.4,40.1,20.1,52.9,36.5c17.9,23.1,34.6,56.8,61,71.6
					c16.4,9.2,38.2,7.7,56.4,13.4c37.5,11.7,70.8,30.2,110.7,33.1"/>
			</g>
			<g>
				<radialGradient id="SVGID_28_" cx="956.7862" cy="844.3001" r="681.3295" gradientUnits="userSpaceOnUse">
					<stop  offset="0" style="stop-color:#CCFFBD"/>
					<stop  offset="1" style="stop-color:#7ECA9C"/>
				</radialGradient>
				<path class="st28" d="M-3.2,915.5c146.6-5.7,294.5,4.9,441,8.7c57.1,1.5,114.3,3.5,171.4,1.8c14.6-0.4,33.4,1.8,47.3-3.9
					c15.1-6.2,6.2-9.7,3.3-20.6c-3.8-13.7,7.7-14.5,20.2-16.1c19.9-2.6,57.1-6.7,75.3,5.2c8.4,5.5,5.8,11.2,10.1,18.9
					c7.9,14.2,30.3,14.6,44.3,14.7c17.5-1.1,35-2,52.5-2.5c15.6-8,31.3-15.9,46.9-23.9c14.5-51.9,38.8-65.3,73-40
					c34.1,11,64,29.8,89.5,56.2c10.6,4.6,20.5,7,31.6,5c-1.5-0.4-3-0.9-4.5-1.3c17.4-2.5,34.5,2.8,43.5-16.3
					c10.4-22.1,0.6-61.3,32.8-65.5c24.2-3.2,50.5,7.8,71.8,18.2c30,14.7,58.8,29.6,91.1,38.6c28,7.8,53.3,1.1,79.7-10
					c42-17.7,80.7-43.5,119.3-67.5c28.3-17.6,64.9-47.6,98.9-52.5c23.6-3.4,40.2,20.5,52.8,37.1c17.8,23.5,34.4,58.2,61.1,73.1
					c16.4,9.2,38.2,7.6,56.4,13.4c37.4,12,70.5,30.9,110.5,33.7"/>
			</g>
			<g>
				<radialGradient id="SVGID_29_" cx="956.7519" cy="830.2187" r="681.3893" gradientUnits="userSpaceOnUse">
					<stop  offset="0" style="stop-color:#CCFFBD"/>
					<stop  offset="1" style="stop-color:#7ECA9C"/>
				</radialGradient>
				<path class="st29" d="M-3.2,905.7c141.1-2.8,282.6,3,423.7,5.4c64.3,1.1,128.7,2.7,193,1.7c14.1-0.2,31.7,1.6,45.3-3
					c29.2-9.9-22.2-31.3,19-37.5c20.3-3.1,58.8-7.3,77.6,4.1c9.6,5.8,5.6,10.3,9.6,18.9c6.3,13.8,24.9,15.2,38.4,15.8
					c18.1,0.8,40.1,0.1,58.1-2.6c30.7-7.3,53.8-24.2,69.1-50.6c17.6-39.2,45.2-39.7,82.8-1.6c35.2,19.5,51.6,53.7,91.1,49.6
					c-1.6-0.4-3.8-1.3-5.6-1.6c17.3-2.7,34.7,3.1,43.5-16.2c10.1-22.4-0.8-62.2,32-66.4c24.3-3.1,50.2,7.5,71.3,18.2
					c29.9,15.1,58.7,30.1,91.1,39.2c28.2,7.9,53.4,1.7,80-9.6c42.5-18,81.5-44.3,120.4-68.8c28.3-17.8,65-48.3,99.2-53.1
					c23.7-3.4,40.2,20.7,52.7,37.4c17.7,23.7,34.2,59.3,61.2,74.2c16.4,9.1,38.3,7.3,56.4,13.2c37.4,12.2,70.2,31.5,110.3,34.2"/>
			</g>
			<g>
				<radialGradient id="SVGID_30_" cx="956.7454" cy="817.0266" r="681.4088" gradientUnits="userSpaceOnUse">
					<stop  offset="0" style="stop-color:#CCFFBD"/>
					<stop  offset="1" style="stop-color:#7ECA9C"/>
				</radialGradient>
				<path class="st30" d="M-3.3,893.8c141.7,1,283.5,2.7,425.2,4.1c64.3,0.6,128.6,1.5,192.8,1.8c14.1,0.1,31.9,2,45.6-2.6
					c29.6-10.1-25.1-31.5,17.1-37.8c20.2-3,60.1-7.6,78.7,4c9.7,6.1,5,10.3,8.6,19.1c5.8,14,24.6,15.3,38,15.9
					c18.1,0.8,40.1,0,58.1-2.6c31-7.2,54.2-24.1,69.4-50.7c17.6-39.5,45.3-40,83.1-1.7c35.8,19.9,51.5,53.9,91.2,49.9
					c-1.9-0.4-4.3-1.3-6.3-1.6c17.3-2.8,35.1,3.4,43.8-16.1c10.1-22.6-1.7-62.7,31.6-66.8c24.4-3.1,50,7.1,71.2,17.9
					c29.9,15.3,58.5,30.4,91.1,39.6c28.4,8,53.3,2.3,80.1-9c42.7-18,82-44.7,121-69.5c28.2-17.9,65-48.6,99.1-53.4
					c23.7-3.4,40.1,20.7,52.5,37.5c17.6,23.8,34.1,60,61.2,74.8c16.4,8.9,38.3,7,56.4,12.9c37.5,12.2,70.1,31.8,110.3,34.4"/>
			</g>
			<g>
				<radialGradient id="SVGID_31_" cx="956.8295" cy="804.8638" r="681.4725" gradientUnits="userSpaceOnUse">
					<stop  offset="0" style="stop-color:#CCFFBD"/>
					<stop  offset="1" style="stop-color:#7ECA9C"/>
				</radialGradient>
				<path class="st31" d="M-3.3,882.4c141.5,4.2,283.4,2.2,425,2.8c64.1,0.3,128.2,0.5,192.3,2c14,0.3,31.5,2.3,45.1-2.2
					c29.3-9.7-22.6-31.7,18.8-38.1c20.2-3.1,59.5-7.5,78.2,3.9c9.8,6,5.4,10.3,9.2,19.1c6,14,24.5,15.4,38,16
					c18.1,0.8,40,0.1,58-2.5c30.7-7.3,53.7-24.2,69-50.6c17.6-39.2,45.2-39.7,82.7-1.5c35.7,19.8,51.5,53.2,91,49.8
					c-1.5-0.4-3.8-1.3-5.5-1.7c17.4-3.4,34.6,2.9,43.5-16.7c10.2-22.6-0.7-62,32.1-66.4c24.6-3.4,50.8,6.7,72.3,17.5
					c29.8,15,58.2,30.5,90.5,39.9c28.1,8.2,53.2,2,79.8-9.3c42.4-17.9,81.5-44.3,120.3-68.8c28.2-17.8,65.1-48.6,99.2-53.4
					c23.7-3.4,40.3,21.1,52.8,37.7c17.6,23.6,34.2,59.1,61.1,73.9c16.3,9,38.1,7.2,56.2,12.9c37.5,11.7,70.7,30.5,110.6,34"/>
			</g>
			<g>
				<radialGradient id="SVGID_32_" cx="957.0386" cy="793.641" r="681.6289" gradientUnits="userSpaceOnUse">
					<stop  offset="0" style="stop-color:#CCFFBD"/>
					<stop  offset="1" style="stop-color:#7ECA9C"/>
				</radialGradient>
				<path class="st32" d="M-3.3,873.2c148,7.1,297,1,445.1,0.7c56.8-0.1,113.7-0.5,170.4,1.8c14.3,0.6,33.3,3.3,47-2.4
					c25.5-10.4-21.7-32.9,22.3-38.5c19.8-2.5,58.4-7.4,76.4,4.8c8.6,5.9,4.9,11.3,8.7,19.4c6.9,14.6,29.5,15,43.1,15.1
					c17.5-1.1,35-1.9,52.5-2.5c15.6-8,31.3-15.9,46.9-23.9c14.5-51.9,38.8-65.3,73-40c34.1,11.1,64,29.8,89.5,56.2
					c10.5,4.7,20.5,7.1,31.6,5.4c-1.6-0.4-3.1-1.2-4.5-1.7c17.4-4.1,34.4,2.4,43.6-17.3c10.5-22.5,0.4-61.2,32.9-65.9
					c56.5-8.2,112.2,41.7,163.7,57.1c27.8,8.3,53.1,1.7,79.4-9.4c42.1-17.8,80.8-43.7,119.3-68c28.1-17.7,65.1-48.4,99-53.3
					c23.6-3.4,40.5,21.2,53,37.8c17.6,23.4,34.3,58.2,60.9,72.9c16.2,8.9,37.9,7.2,56,12.5c37.5,11,71.4,28.8,110.9,32.9"/>
			</g>
			<g>
				<radialGradient id="SVGID_33_" cx="957.3642" cy="784.9282" r="681.9706" gradientUnits="userSpaceOnUse">
					<stop  offset="0" style="stop-color:#CCFFBD"/>
					<stop  offset="1" style="stop-color:#7ECA9C"/>
				</radialGradient>
				<path class="st33" d="M-3.3,866c147,9.1,296.2-0.8,443.4-2.4c56.4-0.6,113-1.7,169.3,1.3c14.4,0.8,33,3.4,46.9-2
					c15.4-6,6.9-10.1,4.4-21.5c-3.1-14.3,8.1-15.9,21.3-17.7c20.2-2.7,57.9-7.3,76.4,4.7c8.7,5.7,5.6,11.4,9.7,19.4
					c7.4,14.6,29.4,15.1,43.4,15.2c17.3-1.1,34.6-1.9,51.8-2.4c15.4-7.9,30.8-15.7,46.2-23.6c14.4-51.1,38.4-64.2,72.1-39.3
					c33.6,10.9,63,29.3,88.2,55.2c10.7,4.8,20.7,7.3,32.1,5.5c-1.2-0.6-2.4-1.4-3.4-2c17.5-4.8,34.4,1.8,43.9-18
					c10.9-22.5,1.8-60.3,34-65.3c57.4-8.9,113,40.8,165.1,56.7c27.5,8.4,52.8,1.5,78.7-9.4c41.6-17.5,79.9-43.1,118.1-67.1
					c27.9-17.5,64.8-48.2,98.5-53c23.5-3.4,40.5,21.3,53.1,37.7c17.6,23,34.3,57.1,60.7,71.5c16.2,8.9,37.7,7,55.8,11.8
					c37.6,10.1,72.2,26.7,111.3,31.2"/>
			</g>
			<g>
				<radialGradient id="SVGID_34_" cx="957.7979" cy="778.1779" r="682.3817" gradientUnits="userSpaceOnUse">
					<stop  offset="0" style="stop-color:#CCFFBD"/>
					<stop  offset="1" style="stop-color:#7ECA9C"/>
				</radialGradient>
				<path class="st34" d="M-3.3,860.7c144.9,10.6,293.2-3,438.3-6.2c56.2-1.2,113-3.5,169.2,0.3c15.2,1,33.1,3.3,48-1.5
					c15.8-5,9.2-9.6,7.6-21.4c-1.9-14.3,7.9-16.2,21.2-18.4c20.9-3.4,57.8-7.3,77.5,3.9c9.5,5.4,7.1,10.8,11.5,19.2
					c6.9,13.2,24.8,15.7,38.3,16.2c24,0.9,57,1.2,80.3-4.8c12.4-33.9,34.4-53.5,66-58.8c33.2-17.1,62.5-5.6,87.9,34.5
					c19.7,13.3,33.9,27.8,58.1,24.6c-0.4-0.5-1.6-1.4-2-2.2c16.7-6.7,33.6,1.7,44.5-17.9c11.1-20.1,3.3-55.3,29.2-64.5
					c24.2-8.6,59.5,3.8,81.5,13.9c29.4,13.6,57,30.2,88.1,39.9c66.4,20.7,136.2-35.4,189.7-68.7c30.6-19,64.4-46.6,100.1-55.7
					c28.5-7.3,44.5,15.7,60.9,37c16.8,21.8,34.5,56.4,60.1,68.7c14.8,7.1,32.9,5.8,49.2,9.2c39.7,8.3,76.5,25.1,117.1,30"/>
			</g>
			<g>
				<radialGradient id="SVGID_35_" cx="958.3315" cy="771.5787" r="682.9003" gradientUnits="userSpaceOnUse">
					<stop  offset="0" style="stop-color:#CCFFBD"/>
					<stop  offset="1" style="stop-color:#7ECA9C"/>
				</radialGradient>
				<path class="st35" d="M-3.3,857.2c93.1,7.5,188.3-0.8,281.4-4.7c100.4-4.1,201.7-11.5,302.2-8c18.9,0.7,55.6,9.6,73.6-2
					c8.1-5.3,5.7-8.2,5.2-16.6c-1.7-26.9,30.4-24.1,52.2-24.2c25.1-0.2,48.1-2,59.6,21c3.1,6.3,4.4,9.5,10.8,13.4
					c5.1,3.1,12.1,4.4,17.9,5.4c3.7,0.6,7.5,1.1,11.3,1.2c16.8,0.7,69.1,0.9,78.8-4.7c33.6-19.2,32.6-75.4,87.8-64.5
					c10.5,6.8,21,13.6,31.5,20.4c22.8,14.5,45.4,29.5,67.6,44.8c5.5,0.9,14,1.4,19.5,0c5.2-1.3-0.3-2.7,4.6-4.2
					c21.1-6.3,36.6-0.4,46.2-25.3c8.1-20.9,4.9-50.5,31.7-57c52.8-12.7,108.7,32.5,154.7,49.8c26.2,9.9,47.6,13.3,75.1,3.8
					c39.8-13.8,76.5-36.7,112.1-58.7c33.6-20.8,66.9-45.3,103.6-60.2c29.4-12,43.5,3.5,62.5,25.6c19.4,22.6,35.4,53.7,60,71.4
					c15.9,11.4,36.9,8.5,55.6,11.8c39.8,7.1,77.3,22,117.6,27"/>
			</g>
			<g>
				<radialGradient id="SVGID_36_" cx="958.9565" cy="766.5639" r="683.5433" gradientUnits="userSpaceOnUse">
					<stop  offset="0" style="stop-color:#CCFFBD"/>
					<stop  offset="1" style="stop-color:#7ECA9C"/>
				</radialGradient>
				<path class="st36" d="M-3.3,855.5c92.3,7.8,187.3-2.5,279.5-7.7c99.3-5.5,199.8-14.9,299.3-11.7c23.4,0.8,79,15.4,81.4-18.7
					c1.9-27,32.2-24.9,55.3-25.1c25.2-0.2,48.8-1.8,61.1,21.1c3.4,6.2,5.1,9.6,11.5,13.5c5.2,3.1,12.1,4.4,18,5.5
					c3.7,0.7,7.5,1.1,11.3,1.3c16.5,0.7,67.4,1,77.1-4.5c32.8-18.7,32-73.1,85.7-62.5c10.2,6.6,20.4,13.2,30.7,19.8
					c22.3,14.2,44.3,28.6,66.2,43.5c5.7,1,14.2,1.3,19.9,0c4.8-1.1,2.7-3.4,7.2-4.9c21.1-7.2,36.8-1,47.2-25.8
					c8.5-20.2,6.7-50.5,33.3-56.1c55.4-11.7,109,30.6,157.4,49.1c26,9.9,47,13.3,74.2,3.9c39.2-13.5,75.2-35.9,110.2-57.6
					c33.1-20.4,66-44.4,102.1-59.3c29.2-12,43.3,3.4,62.4,25.1c19.3,22,35.3,52.2,59.7,69.3c16,11.2,36.8,7.9,55.4,10.5
					c39.9,5.6,78.1,18.6,118.2,23.5"/>
			</g>
			<g>
				<radialGradient id="SVGID_37_" cx="959.6646" cy="762.6597" r="684.2751" gradientUnits="userSpaceOnUse">
					<stop  offset="0" style="stop-color:#CCFFBD"/>
					<stop  offset="1" style="stop-color:#7ECA9C"/>
				</radialGradient>
				<path class="st37" d="M-3.3,855.2c91.5,7.9,186-4.5,277.3-11.1c98.1-7.1,197.6-18.5,296-15.8c25.3,0.7,77.7,15.2,84.4-19
					c5.3-26.9,34.6-25.8,58.8-26.1c25.7-0.3,49.2-1.4,62.8,21.1c3.7,6.1,5.8,9.8,12.3,13.6c5.3,3.1,12.2,4.5,18.1,5.5
					c3.7,0.7,7.5,1.1,11.2,1.3c16.1,0.8,65.7,1.2,75.2-4.2c31.9-18.1,31.3-70.6,83.4-60.3c9.9,6.4,19.8,12.7,29.8,19.1
					c21.7,13.7,43.1,27.7,64.5,42c5.8,1,14.7,1.4,20.4-0.1c4.9-1.3,5.4-4.1,10.1-5.8c21.2-7.6,37.2-1.9,48.4-26.3
					c9.2-20.2,8.5-49.5,35.1-55.2c56.6-12.1,110.9,29.2,160.3,48.3c25.7,9.9,46.3,13.3,73.2,4c38.4-13.2,73.8-35.1,108.2-56.3
					c32.6-20.1,64.9-43.5,100.5-58.3c28.9-12,43.1,3.2,62.2,24.5c19.1,21.3,35.3,50.6,59.4,67.1c16.1,11,36.6,7.2,55.2,9
					c40,3.9,78.9,14.9,118.9,19.6"/>
			</g>
			<g>
				<radialGradient id="SVGID_38_" cx="960.4474" cy="759.7034" r="685.0986" gradientUnits="userSpaceOnUse">
					<stop  offset="0" style="stop-color:#CCFFBD"/>
					<stop  offset="1" style="stop-color:#7ECA9C"/>
				</radialGradient>
				<path class="st38" d="M-3.3,856.5c89.9,7.7,183-6.7,272.6-14.7c99-8.9,202.3-25.8,302-20.1c26.2,1.5,69.7,11.8,80.2-19.3
					c9.4-27.6,37.9-27.4,65-27.6c24.5-0.2,48.1-0.6,62.1,20.5c23.1,34.6,87.1,24.2,116.3,8.7c6.7-3.6,13.4-7.1,20.1-10.7
					c13.3-43.1,34.4-54,63.3-32.8c8.7,3.5,17.3,7,26,10.5c17.1,12.2,34.2,24.4,51.3,36.6c9,4.4,21.8,8.3,32.4,5.5
					c5.5-1.4,7.9-4.5,13-6.6c20.8-8.6,37.4-2,49.3-26c11.1-22.2,11.5-50.9,40.9-55.5c56.9-8.9,106.8,26.5,156.8,46.5
					c24.4,9.8,43.8,13.8,69.6,7.1c37.1-9.7,71.5-31.9,104-51.4c35.5-21.4,70.4-47.7,109.2-63.1c23.8-9.5,38.1,2,54.5,19.1
					c21.6,22.6,38.4,54.3,65.3,71.2c16,10.1,36.5,5.6,54.6,6.6c39.9,2.2,79.2,10.9,118.9,15.2"/>
			</g>
			<g>
				<radialGradient id="SVGID_39_" cx="961.2968" cy="757.8707" r="685.991" gradientUnits="userSpaceOnUse">
					<stop  offset="0" style="stop-color:#CCFFBD"/>
					<stop  offset="1" style="stop-color:#7ECA9C"/>
				</radialGradient>
				<path class="st39" d="M-3.3,859c89,7.3,181.5-9.2,269.8-18.9c55.6-6.1,111.1-12.5,166.7-17.6c43.3-4,87.8-9.6,131.3-7.3
					c27.4,1.4,70.4,11.2,83.9-19.7c12-27.5,41.4-28.3,69.3-28.6c24.7-0.3,49.2-0.3,64.1,20.6c23.8,33.6,85.3,25.2,115.1,9.6
					c6.5-3.4,12.9-6.8,19.4-10.2c12.9-41.2,33.3-51.7,61.1-31.3c8.4,3.4,16.7,6.7,25.1,10.1c16.5,11.7,33,23.3,49.5,35
					c9.4,4.4,22,7.9,32.8,5.1c6.4-1.6,10.2-5.2,16.3-7.6c21.1-8.5,38.2-3.3,50.9-26.5c12-22.1,13.7-49.7,43.1-54.4
					c58.2-9.4,109.1,25,160.2,45.6c24.1,9.7,43.1,13.9,68.7,7.3c36.3-9.4,69.9-31,101.7-50c34.9-20.9,69-46.5,107-61.7
					c23.5-9.4,37.8,1.9,54.2,18.5c21.3,21.7,38.4,52.4,64.9,68.4c16.2,9.8,36.4,4.6,54.5,4.8c40,0.3,79.8,6.6,119.6,10.5"/>
			</g>
			<g>
				<radialGradient id="SVGID_40_" cx="962.2043" cy="756.9965" r="686.9539" gradientUnits="userSpaceOnUse">
					<stop  offset="0" style="stop-color:#CCFFBD"/>
					<stop  offset="1" style="stop-color:#7ECA9C"/>
				</radialGradient>
				<path class="st40" d="M-3.3,862.8c88.1,6.7,179.8-12.1,266.9-23.4c54.9-7.1,109.7-14.6,164.7-20.8c42.5-4.8,86.4-11.4,129.3-9.4
					c30.1,1.4,70.1,10.1,87.7-20.1c15.7-26.9,43.9-29.3,73.8-29.6c25.4-0.3,49.9,0.1,66.1,20.7c25.2,32,82.6,26.7,113.9,10.5
					c6.2-3.2,12.5-6.4,18.7-9.7c12.6-39.2,32.2-49.2,58.8-29.8c8,3.2,16.1,6.4,24.1,9.6c15.9,11.1,31.7,22.2,47.6,33.4
					c10.1,4.7,22,7.1,33.2,4.7c7.6-1.7,12.6-5.8,19.7-8.7c21.4-8.6,39.1-4.4,52.6-27c13-21.9,16.1-48.5,45.4-53.3
					c59.5-9.8,111.4,23.5,163.9,44.7c23.7,9.6,42.5,14,67.7,7.5c35.4-9.1,68.2-30,99.3-48.5c34.2-20.4,67.6-45.3,104.7-60.2
					c23.1-9.3,37.5,1.7,53.9,17.9c21.1,20.8,38.3,50.3,64.4,65.3c16.4,9.4,36.3,3.5,54.3,2.8c40.2-1.7,80.4,2.2,120.4,5.4"/>
			</g>
			<g>
				<radialGradient id="SVGID_41_" cx="963.1617" cy="757.0267" r="687.9804" gradientUnits="userSpaceOnUse">
					<stop  offset="0" style="stop-color:#CCFFBD"/>
					<stop  offset="1" style="stop-color:#7ECA9C"/>
				</radialGradient>
				<path class="st41" d="M-3.3,867.7c87.1,5.9,178-15.1,263.8-28.2c54.1-8.2,108.2-16.9,162.5-24.1c41.7-5.6,84.9-13.2,127.1-11.6
					c32.3,1.2,70.5,9,91.8-20.6c18.9-26.3,46.9-30.2,78.6-30.7c26.1-0.4,50.8,0.6,68.2,20.8c26.4,30.5,80,28.1,112.7,11.5
					c6-3,12-6.1,17.9-9.1c12.2-37.1,31-46.5,56.3-28.2c26,10.2,43.9,29.5,68.7,40.7c10.7,4.8,22.1,6.4,33.7,4.1
					c8.8-1.7,15.1-6.6,23.3-9.8c21.7-8.3,40.2-5.7,54.4-27.6c14.1-21.7,18.5-47.3,47.8-52.2c60.8-10.2,113.9,21.9,167.7,43.7
					c23.4,9.5,41.8,14,66.8,7.8c34.5-8.7,66.5-29,96.8-46.9c33.4-19.8,66-44,102.2-58.6c22.7-9.2,37.1,1.6,53.5,17.2
					c20.9,19.8,38.2,48.1,64,62.1c16.6,9,36.3,2.3,54.1,0.6c40.3-3.8,80.8-2.5,121.2,0.1"/>
			</g>
			<g>
				<radialGradient id="SVGID_42_" cx="964.1605" cy="757.5074" r="689.0975" gradientUnits="userSpaceOnUse">
					<stop  offset="0" style="stop-color:#CCFFBD"/>
					<stop  offset="1" style="stop-color:#7ECA9C"/>
				</radialGradient>
				<path class="st42" d="M-3.3,873.5c85.5,5,174.9-18.2,258.5-32.8c53.2-9.3,106.3-19.1,159.7-27.5c41.1-6.5,84-15.3,125.8-14.4
					c35.7,0.8,73.2,8.2,98.2-21.8c20.5-24.5,48.3-30.1,79.9-30.9c27.4-0.7,54.7,0.3,73.7,21.1c5.6,6.2,10.2,11.1,17.9,14.7
					c5.1,2.4,10.6,3.9,16.1,5.1c17.9,3.9,64.2,6.8,77.9-0.9c26.2-14.8,25.6-55,67.9-46.5c27.8,5.6,49.6,42.8,77.5,47.8
					c7.8,1.4,18.6,0.5,26.5-1.3c8.9-2.1,16-7.2,24.4-10.5c21.6-8.4,41.1-6.7,56.2-27.2c15.5-21.1,20.5-46.2,49.5-51.7
					c63.2-12,119.3,21,175.5,43.4c24.3,9.7,40.9,13.2,66.8,6c33.5-9.3,64.5-28.8,94.2-46.4c29.4-17.5,58.4-38,89.8-51.7
					c10.3-4.5,17.9-8.7,29.1-6.5c12.3,2.4,22.7,13.1,31.7,21.4c20.2,18.7,37.8,45.7,63.1,57.9c16.6,8,36.4,0.2,53.6-2.3
					c40.3-5.9,80.7-7.2,121.3-5.3"/>
			</g>
			<g>
				<radialGradient id="SVGID_43_" cx="965.1927" cy="759.194" r="690.2285" gradientUnits="userSpaceOnUse">
					<stop  offset="0" style="stop-color:#CCFFBD"/>
					<stop  offset="1" style="stop-color:#7ECA9C"/>
				</radialGradient>
				<path class="st43" d="M-3.3,880.2c84.5,3.9,172.9-21.6,255.2-38.1c52.4-10.5,104.8-21.5,157.4-31c40.2-7.3,82.4-17.3,123.5-17
					c38.1,0.3,74.1,6.7,102.6-22.4c23.3-23.8,51.4-30.9,84.8-31.8c28.2-0.8,55.7,0.8,76,21.3c6.1,6.1,11.1,11.2,19.1,14.8
					c5.2,2.4,10.8,3.9,16.3,5.1c17.4,3.8,61.6,7.1,75.1-0.5c25-13.9,24.6-51.6,64.6-43.5c26.4,5.3,47.2,40,73.7,44.8
					c8.2,1.5,19.3,0.1,27.5-1.6c10.2-2.1,18.5-7.9,28-11.6c22-8.5,42.3-7.8,58.2-27.8c16.6-20.8,23-45,52.2-50.5
					c64.6-12.3,121.9,19.4,179.5,42.4c23.9,9.6,40.2,13.3,65.7,6.4c32.6-8.8,62.7-27.6,91.5-44.6c28.7-16.9,56.9-36.8,87.5-50
					c10.2-4.4,17.6-8.4,28.6-6.4c12.1,2.2,22.6,12.5,31.6,20.4c19.9,17.6,37.8,43.3,62.6,54.4c16.8,7.5,36.4-1.3,53.5-4.7
					c40.4-8.2,80.9-12.1,122.1-11"/>
			</g>
			<g>
				<radialGradient id="SVGID_44_" cx="966.2496" cy="761.587" r="691.4019" gradientUnits="userSpaceOnUse">
					<stop  offset="0" style="stop-color:#CCFFBD"/>
					<stop  offset="1" style="stop-color:#7ECA9C"/>
				</radialGradient>
				<path class="st44" d="M-3.3,887.7c83,2.7,169.6-24.9,249.9-43c51.5-11.6,102.9-23.7,154.6-34.6c39.6-8.3,81.4-19.5,122.1-20
					c39.5-0.5,77,6.2,108.2-22.4c40.7-37.3,125.7-51.9,169-11.6c28,26.1,75.2,30.5,108.9,13.8c5.1-2.5,10.2-5.1,15.3-7.6
					c10.8-29.9,26.8-37.4,47.9-22.6c22,8.3,37.5,24.5,58.5,33.4c11.5,4.9,23.2,4.8,35.2,2.7c13.3-2.3,24.2-9.4,36.7-14.1
					c23.3-8.6,43.3-9.5,60-30.1c15.3-18.7,24.2-40.9,50.1-46.5c67.3-14.6,128.8,18.4,189,42.2c19.3,7.6,35.4,12.4,56.4,7.5
					c34.8-8.1,67.3-28.4,97.7-46.5c27.3-16.2,54.4-35,83.9-47.2c10.2-4.2,16.8-7.4,27.5-5.1c11.7,2.5,22.3,12.8,31.2,20.4
					c19.3,16.4,37.4,40.6,61.7,49.9c15.7,6,31.7-2.1,47-6.2c42.2-11.2,84.6-18.5,128.3-18.2"/>
			</g>
			<g>
				<radialGradient id="SVGID_45_" cx="967.33" cy="764.6808" r="692.6068" gradientUnits="userSpaceOnUse">
					<stop  offset="0" style="stop-color:#CCFFBD"/>
					<stop  offset="1" style="stop-color:#7ECA9C"/>
				</radialGradient>
				<path class="st45" d="M-3.3,895.8c82.1,1.4,167.7-28.6,246.5-48.6c50.7-12.9,101.4-26.1,152.3-38.2
					c38.7-9.2,79.7-21.5,119.7-22.8c41.6-1.3,78.5,4.8,112.6-22.9c44.7-36.3,129.6-53.6,176.6-12.3c28.2,24.9,73.6,31.2,107.4,15
					c4.8-2.3,9.7-4.6,14.5-7c10.4-27.6,25.4-34.6,45.2-20.9c20.6,7.6,35.4,22.9,55.1,31c11.5,4.7,23.7,4.1,35.7,2
					c14.7-2.6,27-10.2,40.8-15.3c23.6-8.8,44.4-10.6,62.1-30.5c16.3-18.4,26.6-39.7,52.6-45.3c68.8-14.7,131.4,16.7,193.2,41.2
					c18.9,7.5,34.8,12.5,55.5,7.9c33.7-7.5,65.2-27,94.6-44.3c26.6-15.6,52.9-33.7,81.5-45.5c10-4.1,16.6-7.1,27.1-5
					c11.5,2.4,22.1,12.1,31.1,19.3c19.1,15.3,37.4,38,61.2,46.1c15.9,5.4,31.7-3.5,46.9-8.4c42.3-13.6,84.6-23.8,129.2-24.4"/>
			</g>
			<g>
				<radialGradient id="SVGID_46_" cx="968.4226" cy="768.8887" r="693.7849" gradientUnits="userSpaceOnUse">
					<stop  offset="0" style="stop-color:#CCFFBD"/>
					<stop  offset="1" style="stop-color:#7ECA9C"/>
				</radialGradient>
				<path class="st46" d="M-3.3,904.4c81.3,0,165.7-32.4,243.1-54.2c50-14.1,99.8-28.6,150-42c37.8-10.1,78.1-23.5,117.4-25.6
					c43.3-2.2,80.3,3.7,117-23.3c48.8-35.9,133.3-54.6,184.1-12.9c28.6,23.4,71.7,31.8,105.9,16.1c4.6-2.1,9.1-4.2,13.7-6.3
					c9.9-25.3,24.1-31.7,42.5-19.1c19.2,7,33.3,21.3,51.7,28.5c11.5,4.5,24.2,3.4,36.1,1.3c16.1-2.8,29.8-10.9,44.9-16.7
					c24-9.1,45.5-11.6,64.1-31c17.3-18,29-38.5,55.2-44.1c70.4-14.9,134.1,15,197.5,40.1c18.5,7.3,34.2,12.6,54.5,8.3
					c32.6-7,63-25.6,91.5-42c25.9-14.9,51.3-32.3,79.1-43.6c24.5-10,36.9-2.3,57.6,13.3c18.9,14.2,37.4,35.3,60.7,42.1
					c16.1,4.8,31.8-5,46.7-10.6c42.3-15.9,84.6-29.1,130.1-30.6"/>
			</g>
			<g>
				<radialGradient id="SVGID_47_" cx="969.5064" cy="773.1268" r="695.0225" gradientUnits="userSpaceOnUse">
					<stop  offset="0" style="stop-color:#CCFFBD"/>
					<stop  offset="1" style="stop-color:#7ECA9C"/>
				</radialGradient>
				<path class="st47" d="M-3.3,913.3c79.9-1.4,162.6-35.9,237.9-59.4c49.1-15.3,98-30.9,147.2-45.6c39.5-11.8,82.6-27.9,124.1-30
					c42.6-2.1,76.8,2.3,113.9-22.2c52.5-34.8,136.7-56.7,191.5-14.7c7.4,5.7,14.2,11.3,22.9,15.2c6.2,2.8,12.8,4.6,19.4,6.1
					c15.1,3.4,51.4,7.9,63.8,1.3c19.8-10.7,19.4-37.1,50.2-30.9c20.5,4.1,36.9,28.3,57.7,32.2c9.5,1.8,22.4-0.8,31.9-2.7
					c16.1-3.3,30.4-11.3,45.6-17.2c22-8.5,44.2-11.5,62.4-27.6c21.8-19.3,34.7-41.8,65.3-47.3c70.1-12.5,131.5,12.8,195.1,38.1
					c20.8,8.3,37.3,14.5,59.9,9.3c31.5-7.2,60.7-24.9,88.5-40.7c24.5-14,49-31,75.6-40.7c23.5-8.6,36.7,0.1,56.4,14
					c17,12.1,33.7,28.6,53.9,35.2c19.7,6.5,34.1-3.4,52.1-11.2c42.1-18.1,84.1-34,130.3-36.6"/>
			</g>
			<g>
				<radialGradient id="SVGID_48_" cx="970.5807" cy="773.1949" r="696.7405" gradientUnits="userSpaceOnUse">
					<stop  offset="0" style="stop-color:#CCFFBD"/>
					<stop  offset="1" style="stop-color:#7ECA9C"/>
				</radialGradient>
				<path class="st48" d="M-3.3,922.6c79.2-2.8,160.7-39.8,234.7-65.1c48.3-16.5,96.5-33.4,145-49.4c38.5-12.7,80.8-30.2,121.7-33
					c44.1-3,78.9,1.6,118.2-22.3c56.1-34,140.8-57.6,198.9-15.1c7.8,5.7,15.1,11.4,24.1,15.3c6.3,2.7,13,4.7,19.7,6.1
					c14.5,3.2,48.8,8.2,60.8,1.8c18.5-9.8,18.3-33.5,46.8-27.8c19.1,3.8,34.4,25.4,53.8,29.1c9.8,1.9,23.2-1,33-3
					c17.4-3.6,33-12,49.4-18.4c22.4-8.8,45.2-12.5,64.3-28.2c22.8-18.8,37.3-40.5,68.1-46c71.5-12.8,134.2,11.1,199.3,37
					c20.3,8.1,36.7,14.6,58.9,9.8c30.3-6.6,58.7-23.3,85.4-38.3c23.8-13.3,47.6-29.5,73.3-38.8c22.9-8.3,36.2-0.1,55.8,12.7
					c16.9,11,33.6,26,53.4,31.4c19.9,5.5,34.3-5.2,51.9-13.8c42-20.4,84.1-39.2,131.2-42.8"/>
			</g>
			<g>
				<radialGradient id="SVGID_49_" cx="971.6376" cy="771.2076" r="698.7574" gradientUnits="userSpaceOnUse">
					<stop  offset="0" style="stop-color:#CCFFBD"/>
					<stop  offset="1" style="stop-color:#7ECA9C"/>
				</radialGradient>
				<path class="st49" d="M-3.3,932c78-4.3,157.7-43.3,229.9-70.2c47.4-17.7,94.7-35.8,142.3-53.1c37.9-13.7,79.7-32.8,120.3-36.8
					c26.2-2.6,51.8,2.2,78-3.6c17-3.8,32.1-11.1,47.2-19.7c60.3-34.2,144.7-56,206.3-13.3c28.3,19.6,67.9,32.5,101.3,18.8
					c3.7-1.5,7.4-3,11.1-4.6c8.5-18.1,19.8-22.7,34-13.6c15.2,5,26.7,16,41.4,21.1c11.5,4,25.7,1.7,37.4-0.4
					c19.9-3.6,37.7-12.7,56.3-20.1c24.4-9.7,48.6-14.4,69.5-31.2c22.1-17.8,37.9-36.8,67.1-42.3c71.6-13.4,135.8,8.2,201.1,34.4
					c21.9,8.8,40.1,16.5,64.1,11.1c26.1-5.9,50.5-19.5,73.9-32c23.8-12.8,47-27.5,72-38c24.3-10.3,39.7-2.5,61.4,10.4
					c16.5,9.8,33.3,23.1,52.5,27c19.9,4,34.5-7.9,51.4-17c41.7-22.4,83.5-43.9,131.3-48.4"/>
			</g>
			<g>
				<radialGradient id="SVGID_50_" cx="972.6686" cy="769.5361" r="700.8104" gradientUnits="userSpaceOnUse">
					<stop  offset="0" style="stop-color:#CCFFBD"/>
					<stop  offset="1" style="stop-color:#7ECA9C"/>
				</radialGradient>
				<path class="st50" d="M-3.3,941.5c30.9-2.3,60-12.5,89.2-22.6c46.5-16,92.2-34.9,137.8-53.4c46.8-18.9,93.4-38.3,140.3-56.9
					c36.9-14.6,78.1-35.1,118-39.9c26.3-3.2,52.5,2,79-3.5c17.9-3.7,34.2-11.1,50.3-19.6c63.7-33.7,148.4-56.1,213.3-13.5
					c28.8,18.9,65.8,31.7,99.8,19.8c18.7-6.5,20.9-22.4,41.7-15.9c13.9,4.4,24.7,14.4,38.2,18.7c11.5,3.7,26.2,1.1,37.7-1
					c21.2-3.9,40.3-13.4,60.2-21.3c24.8-10,49.6-15.4,71.4-31.7c23-17.2,40.3-35.6,69.7-41.1c72.9-13.6,138.4,6.6,205.1,33.4
					c21.4,8.6,39.5,16.6,63,11.7c25.1-5.2,48.7-18,71.3-29.7c23.1-12,45.6-25.9,69.7-35.8c23.6-9.7,39.2-2.5,60.7,9
					c16.4,8.8,33.2,20.4,52,23c20,2.8,34.6-9.8,51.2-19.6c41.6-24.5,83.4-48.8,132.2-54.3"/>
			</g>
			<g>
				<radialGradient id="SVGID_51_" cx="973.6653" cy="768.1536" r="702.8746" gradientUnits="userSpaceOnUse">
					<stop  offset="0" style="stop-color:#CCFFBD"/>
					<stop  offset="1" style="stop-color:#7ECA9C"/>
				</radialGradient>
				<path class="st51" d="M-3.3,950.9c30.5-2.9,58.9-13.7,87.5-24.4c45.7-17.1,90.4-37,135.1-56.5c46-20.1,91.7-40.6,137.8-60.4
					c36.5-15.7,77.1-37.6,116.8-43.7c26.3-4.1,53.4,1.7,80.1-3.3c18.8-3.5,36.2-10.7,53.3-19.1c66.6-32.7,151.9-57.3,219.9-14.7
					c9,5.6,17.5,11.4,27.4,15.4c6.6,2.7,13.6,4.6,20.5,6.2c12.7,2.9,41.4,8.5,52.4,3.1c14.7-7.2,14.8-23.1,36.5-18.9
					c14.8,2.9,27.1,17.3,42.2,20.1c10.7,2,25.2-1.6,35.8-3.7c20.9-4.3,40.1-13.6,59.8-21.6c24.9-10.1,50.5-16.1,72.8-31.8
					c22.9-16.1,42-34.5,70.3-40.3c75.8-15.3,145,5.2,214.6,33.1c21.2,8.5,38.9,15.8,62,10.8c24.1-5.1,46.9-17,68.7-28.1
					c22-11.2,43.6-24.1,66.7-32.9c22.4-8.6,38.9-0.7,59.6,9c16.1,7.6,33,17.4,51.1,18.5c19.9,1.3,34.6-12.3,50.8-22.7
					c41.2-26.4,82.9-53.1,132.3-59.6"/>
			</g>
			<g>
				<radialGradient id="SVGID_52_" cx="974.6194" cy="767.033" r="704.9235" gradientUnits="userSpaceOnUse">
					<stop  offset="0" style="stop-color:#CCFFBD"/>
					<stop  offset="1" style="stop-color:#7ECA9C"/>
				</radialGradient>
				<path class="st52" d="M-3.3,960.1c30.3-3.5,58.4-15,86.6-26.4c45.2-18.2,89.4-39.3,133.5-60.1c45.4-21.3,90.5-43.1,136-64.2
					c35.6-16.5,75.6-39.9,114.7-46.8c26.3-4.7,54,1.6,80.9-3.1c19.7-3.4,38-10.5,56.1-18.8c69.2-31.8,155.8-57.4,226.2-14.5
					c9.3,5.7,18.3,11.4,28.4,15.4c18.4,7.3,51.7,16.1,70.5,9.9c15-5,12.2-20.2,33.5-16.1c13.5,2.6,24.8,14.8,38.7,17.3
					c11,1.9,25.8-1.7,36.7-4c22.1-4.6,42.5-14.2,63.3-22.6c25.4-10.4,51.4-17.1,74.5-32.3c23.7-15.6,44.1-33.4,72.7-39.1
					c77.1-15.4,147.4,3.6,218.4,32.1c20.6,8.3,38.2,15.9,60.9,11.7c23.2-4.4,45.2-15.4,66.2-25.6c21.3-10.4,42.3-22.4,64.6-30.6
					c21.8-8,38.5-0.8,59,7.5c16.1,6.5,32.9,14.5,50.6,14.5c20.1,0,34.7-14.2,50.6-25.1c41.1-28.2,82.8-57.7,133.1-65"/>
			</g>
			<g>
				<radialGradient id="SVGID_53_" cx="975.5227" cy="766.1473" r="706.9281" gradientUnits="userSpaceOnUse">
					<stop  offset="0" style="stop-color:#CCFFBD"/>
					<stop  offset="1" style="stop-color:#7ECA9C"/>
				</radialGradient>
				<path class="st53" d="M-3.3,969c30.2-4,58-16.3,85.9-28.3c44.8-19.4,88.4-41.7,132-63.6c44.8-22.5,89.4-45.5,134.3-67.8
					c34.8-17.3,74.2-42.1,112.9-49.8c26.2-5.2,54.6,1.6,81.5-2.8c20.5-3.3,39.7-10.3,58.6-18.4c72.1-31,159-56.8,232-14.1
					c9.6,5.6,19,11.4,29.5,15.5c17.9,7,49.7,16.1,68.2,10.4c13.8-4.2,11.6-17.1,30.7-13.5c12.3,2.3,22.7,12.6,35.4,14.6
					c11.4,1.8,26.3-1.8,37.6-4.2c23.2-4.8,44.8-14.7,66.6-23.7c25.8-10.6,52.3-18,76.1-32.9c24.4-15.2,46.1-32.2,75-38
					c78.2-15.6,149.8,2,222.1,31.2c20.1,8.1,37.6,16.1,59.8,12.5c22.3-3.6,43.6-13.7,63.9-23.1c20.7-9.6,41.1-20.8,62.7-28.3
					c21.1-7.3,38.1-0.8,58.5,5.9c16.1,5.3,32.9,11.5,50.1,10.4c20.1-1.3,34.6-16,50.3-27.5c40.9-30,82.6-62,133.9-70.1"/>
			</g>
			<g>
				<radialGradient id="SVGID_54_" cx="976.3667" cy="765.4696" r="708.8577" gradientUnits="userSpaceOnUse">
					<stop  offset="0" style="stop-color:#CCFFBD"/>
					<stop  offset="1" style="stop-color:#7ECA9C"/>
				</radialGradient>
				<path class="st54" d="M-3.3,977.4c30-4.5,57.2-17.3,84.6-29.9c44.1-20.3,87-43.6,129.8-66.4c44.2-23.6,88-47.7,132.2-71.2
					c34.6-18.4,73.4-44.5,112-53.5c26-6.1,55.1,1.4,82.1-2.5c22.3-3.3,43.4-10.5,64.2-18.9c74.4-30.3,160.9-54.4,235.8-12.5
					c26.6,14.9,56.9,28.8,88.4,26c4.8-1.2,9.7-2.3,14.5-3.5c6.4-7.9,13.7-9.9,22-5.9c11.5,0.4,20.2,9.1,31.5,10.3
					c12.1,1.3,26.1-1.5,38-4c24.2-5,46.6-15,69.3-24.3c26-10.7,52.8-18.8,77.2-33c26.9-15.7,50.4-32.3,81.7-38.1
					c79.8-14.7,151,1.9,224.7,31.8c17.8,7.2,32.9,14.2,52.4,12.6c21.1-1.8,41.6-10.4,60.8-18.6c22.3-9.6,44.1-21.3,67.3-28.6
					c18.4-5.8,33.8-0.9,51.9,3.8c17.8,4.5,36.4,10.2,55,7.3c19.8-3.1,34.5-18.3,49.9-30.3c40.5-31.4,82.1-65.7,133.9-74.4"/>
			</g>
			<g>
				<radialGradient id="SVGID_55_" cx="977.1431" cy="764.9728" r="710.6809" gradientUnits="userSpaceOnUse">
					<stop  offset="0" style="stop-color:#CCFFBD"/>
					<stop  offset="1" style="stop-color:#7ECA9C"/>
				</radialGradient>
				<path class="st55" d="M-3.3,985.3c30-4.9,57-18.4,84.2-31.6c43.8-21.4,86.2-45.8,128.7-69.7c43.7-24.7,87.1-50,130.8-74.7
					c33.9-19.1,72.3-46.6,110.5-56.4c25.7-6.6,55.5,1.5,82.4-2c23-3,44.9-10,66.5-18.3c76.7-29.3,163.6-53.4,240.5-11.7
					c26.8,14.5,56.4,28.3,87.9,26.3c13.3-0.8,20.7-7.5,33.3-7.1c10.4,0.4,18.6,7.4,28.9,8.3c12.3,1.1,26.5-1.8,38.5-4.3
					c25.2-5.2,48.7-15.4,72.3-25.2c26.4-10.9,53.5-19.7,78.5-33.6c27.5-15.3,52.3-31.2,83.7-37.1c80.8-14.9,153.2,0.4,227.9,31
					c17.3,7.1,32.4,14.4,51.6,13.4c20.3-1,40.2-8.6,58.9-16.1c21.7-8.7,42.9-19.3,65.5-25.9c17.9-5.2,33.7-0.9,51.6,2.5
					c17.9,3.3,36.3,6.9,54.4,2.8c19.8-4.5,34.3-19.9,49.7-32.5c40.3-32.9,81.9-69.5,134.6-78.8"/>
			</g>
			<g>
				<radialGradient id="SVGID_56_" cx="977.8438" cy="764.6299" r="712.365" gradientUnits="userSpaceOnUse">
					<stop  offset="0" style="stop-color:#CCFFBD"/>
					<stop  offset="1" style="stop-color:#7ECA9C"/>
				</radialGradient>
				<path class="st56" d="M-3.3,992.6c29.8-5.3,56.5-19.2,83.3-33c43.3-22.2,85-47.5,126.8-72.4c47.9-28.5,95.3-57.8,143.3-86.2
					c29.3-17.3,62.7-41.8,95.9-51.5c25.3-7.4,55.8,1.3,82.6-1.7c23.6-2.6,46.2-9.2,68.5-17.2c79.3-28.3,167.2-53.1,246.4-11
					c25.7,13.6,63.5,33.2,93.6,27c10.3-2.1,10.1-8,23.2-6.6c9.1,1,17.2,6.7,26.6,7.6c12.5,1.2,27-2,39.2-4.5
					c27.5-5.6,53.4-17,79.2-27.8c26.7-11.1,53.6-20.7,79.1-34.4c26.6-14.3,51.3-28.4,81.3-34.1c80.4-15.3,153.9-1.9,228.5,28.8
					c16.3,6.7,32.3,15.3,50.3,15.8c21.4,0.5,43.1-7.3,62.9-14.6c21-7.7,41.5-17.3,63.3-22.7c17.2-4.3,33.7-0.2,51,1.7
					c15.8,1.8,32.6,3.3,48.3-0.6c22.1-5.6,37.5-22,54.4-36.4c39.8-34,81.4-72.6,134.6-82.1"/>
			</g>
			<g>
				<radialGradient id="SVGID_57_" cx="978.4601" cy="764.414" r="713.8773" gradientUnits="userSpaceOnUse">
					<stop  offset="0" style="stop-color:#CCFFBD"/>
					<stop  offset="1" style="stop-color:#7ECA9C"/>
				</radialGradient>
				<path class="st57" d="M-3.3,999c30-5.6,56.5-20.2,83.2-34.5c43.1-23.2,84.6-49.5,126-75.4c47.5-29.7,94.5-60.2,142.1-89.8
					c28.8-17.9,62-43.5,95-53.8c25-7.8,56,1.6,82.6-0.9c24.1-2.3,47.3-8.6,70.2-16.3c81.1-27.2,169.4-51.4,249.9-9.7
					c27.6,14.3,60.5,29.9,92.6,27.4c8.7-0.7,10.7-5.5,21.3-4.7c8.2,0.6,15.9,5.1,24.3,5.7c12.8,1,27.1-2,39.7-4.5
					c28.4-5.8,55.2-17.3,81.8-28.5c26.9-11.3,54-21.5,80-34.8c27.1-13.9,52.7-27.5,82.9-33.3c81.1-15.6,155.8-3.3,231.2,28.1
					c16.1,6.7,31.9,15.4,49.6,16.5c20.7,1.3,41.8-5.3,61.2-11.7c20.6-6.7,40.7-15.3,61.9-20c16.9-3.8,33.7-0.4,50.8,0.3
					c44.9,1.7,68.9-14.2,102-43.5c39.6-35.1,81.3-75.9,135.2-85.6"/>
			</g>
			<g>
				<radialGradient id="SVGID_58_" cx="978.9839" cy="764.2981" r="715.1847" gradientUnits="userSpaceOnUse">
					<stop  offset="0" style="stop-color:#CCFFBD"/>
					<stop  offset="1" style="stop-color:#7ECA9C"/>
				</radialGradient>
				<path class="st58" d="M-3.3,1004.6c30-5.8,56.3-20.7,82.8-35.5c48.4-27.1,94.8-58.1,141.1-88.6c41.5-27.3,82.7-55,124.3-82.1
					c29-18.9,61.8-45.1,95-56.7c25.7-8.9,59.2,1.7,86.8-0.8c22.9-2.1,45.1-7.6,67-14.4c82.1-25.5,171-50.5,252.6-9.5
					c83,41.7,169.4,33.7,253.8-1.9c28.5-12,57.3-23.4,85.1-37.1c29.4-14.6,57.5-28.1,90.1-33.9c81.4-14.7,156-2.7,231.5,29.3
					c15.9,6.7,31.2,15.1,48.6,16.4c20.1,1.5,40.5-4,59.6-9.5c19.9-5.7,39.8-13.4,60.3-16.9c16.7-2.8,33.5-0.2,50.3-0.9
					c98.8-4.4,139.7-121.4,235.7-138.3"/>
			</g>
			<g>
				<radialGradient id="SVGID_59_" cx="979.4066" cy="764.2552" r="716.2554" gradientUnits="userSpaceOnUse">
					<stop  offset="0" style="stop-color:#CCFFBD"/>
					<stop  offset="1" style="stop-color:#7ECA9C"/>
				</radialGradient>
				<path class="st59" d="M-3.3,1009.1c30.3-5.9,56.6-21.4,83.2-36.8c48.4-28,94.6-60.2,140.7-91.7c41.3-28.3,82.3-57,123.7-85.1
					c28.7-19.5,61.4-46.8,94.6-58.7c25.3-9.1,59.2,2.3,86.5,0.3c23.2-1.7,45.7-6.8,68-13.3c83.2-24.1,172.2-48.2,254.5-7.7
					c83.6,41.1,167.4,33.9,252.3-2c57.5-24.3,115.2-59.5,176.9-70.9c81.8-15.1,157.6-4,233.4,28.8c15.7,6.8,30.8,15.3,48,17.2
					c19.5,2.2,39.5-2,58.3-6.5c19.8-4.8,39.3-11.1,59.5-14.2c16.7-2.6,33.5-0.4,50.3-2.5c98.2-12,138-130.3,235.4-146.8"/>
			</g>
			<g>
				<radialGradient id="SVGID_60_" cx="979.7199" cy="764.2585" r="717.0582" gradientUnits="userSpaceOnUse">
					<stop  offset="0" style="stop-color:#CCFFBD"/>
					<stop  offset="1" style="stop-color:#7ECA9C"/>
				</radialGradient>
				<path class="st60" d="M-3.3,1012.5c30.7-6,57.2-22,83.8-37.8c48.5-28.9,94.7-62.1,140.7-94.7c41.2-29.2,82.1-58.8,123.4-87.8
					c28.5-20,61.2-48.3,94.4-60.5c24.9-9.1,59,3.1,86,1.7c23.3-1.2,46.1-6,68.6-12c84-22.4,173-45.5,255.6-5.6
					c28.2,13.6,55.7,25.9,87.6,28.1c59.2,4.1,109.2-7,163.7-30.2c58.1-24.7,115.6-59.1,178.1-70.8c82-15.5,159.1-5.2,235,28.4
					c36.9,16.4,64.4,22.2,104.8,14.6c19.7-3.7,39.1-8.9,59-11.4c16.9-2,33.6-0.7,50.3-4.1c96.8-19.4,136.3-138.9,235-154.4"/>
			</g>
			<g>
				<radialGradient id="SVGID_61_" cx="979.9154" cy="764.2808" r="717.5637" gradientUnits="userSpaceOnUse">
					<stop  offset="0" style="stop-color:#CCFFBD"/>
					<stop  offset="1" style="stop-color:#7ECA9C"/>
				</radialGradient>
				<path class="st61" d="M-3.3,1014.7c30.9-5.9,57.4-22.1,84.1-38.3c48.4-29.4,94.3-63.4,139.9-96.7c41-30,81.7-60.4,122.9-90.2
					c29.9-21.6,61.3-47.5,95.2-63c23.3-10.6,59.4,3.3,85.3,2.6c24.6-0.6,48.7-5.2,72.5-11.1c84.8-21,173.4-41.3,255.9-1.4
					c84.6,40.9,167,31.9,252.3-5.1c55.7-24.1,110.4-55.9,170.2-68.3c81.8-16.9,161.6-8.3,237.6,25.9c37.9,17.1,66.2,25.5,108.5,19.7
					c33.5-4.6,70.5-4.7,103.2-12.7c97.4-23.7,137.6-148.2,238.6-162.4"/>
			</g>
			<g>
				<radialGradient id="SVGID_62_" cx="979.9846" cy="764.2952" r="717.7455" gradientUnits="userSpaceOnUse">
					<stop  offset="0" style="stop-color:#CCFFBD"/>
					<stop  offset="1" style="stop-color:#7ECA9C"/>
				</radialGradient>
				<path class="st62" d="M-3.3,1015.5c31.5-5.7,58.3-22.3,85.4-39c48.7-30,94.7-65,140.4-99.2c41.1-30.8,81.9-62,123.1-92.6
					c29.8-22.1,61.4-48.9,95.6-64.4c23-10.4,58.8,4.4,84.4,4.4c24.5,0,48.6-4,72.4-9.4c84.8-19,173-38,255.1,1.3
					c84.8,40.6,166.7,32.4,252.2-4.9c55.9-24.4,110-55.6,170.2-68.4c81.7-17.4,162.7-9.4,238.5,25.6c37.1,17.1,65.9,27.2,107.7,23.8
					c33-2.7,72-1.2,103.5-11.1c94.6-29.7,136.2-156.5,238.1-168.5"/>
			</g>
		</g>
	</g>
</g>
</svg>
