<svg width="200" height="200" viewBox="0 0 200 200" fill="none" xmlns="http://www.w3.org/2000/svg">
<path d="M200 100C200 155.228 155.228 200 100 200C44.7715 200 0 155.228 0 100C0 44.7715 44.7715 0 100 0C155.228 0 200 44.7715 200 100Z" fill="#1C7293"/>
<path d="M108.801 51.0418L51.6582 61.7753C50.6936 61.9568 50 62.825 50 63.7957V139.183C50 140.154 50.6936 141.022 51.6582 141.203L108.801 151.937C108.929 151.961 109.056 152 109.184 152C109.654 152 110.092 151.858 110.459 151.558C110.93 151.171 111.224 150.579 111.224 149.98V52.9991C111.224 52.3993 110.93 51.8074 110.459 51.4206C109.989 51.0339 109.399 50.9313 108.801 51.0418ZM115.306 63.1012V77.2442H119.388V81.2851H115.306V91.3872H119.388V95.4281H115.306V105.53H119.388V109.571H115.306V121.694H119.388V125.734H115.306V139.877H145.918C148.166 139.877 150 138.062 150 135.837V67.1421C150 64.9165 148.166 63.1012 145.918 63.1012H115.306ZM123.469 77.2442H139.796V81.2851H123.469V77.2442ZM63.648 82.6741H74.1071L79.5918 93.9759C80.0223 94.8677 80.405 95.9647 80.7398 97.1959H80.8036C81.0188 96.4619 81.4334 95.3097 82.0153 93.8496L88.074 82.6741H97.6403L86.2245 101.363L97.9592 120.431H87.8189L81.1862 108.119C80.9391 107.661 80.684 106.817 80.4209 105.593H80.3571C80.2296 106.169 79.9267 107.069 79.4643 108.245L72.8316 120.431H62.6276L74.8087 101.552L63.648 82.6741ZM123.469 91.3872H139.796V95.4281H123.469V91.3872ZM123.469 105.53H139.796V109.571H123.469V105.53ZM123.469 121.694H139.796V125.734H123.469V121.694Z" fill="#0D0D0D"/>
</svg>
